%TF.GenerationSoftware,KiCad,Pcbnew,(6.0.9)*%
%TF.CreationDate,2023-03-08T22:08:51+01:00*%
%TF.ProjectId,03_Cartucho_MSX_Tang_Nano_9k_Breakout,30335f43-6172-4747-9563-686f5f4d5358,rev?*%
%TF.SameCoordinates,Original*%
%TF.FileFunction,Drillmap*%
%TF.FilePolarity,Positive*%
%FSLAX45Y45*%
G04 Gerber Fmt 4.5, Leading zero omitted, Abs format (unit mm)*
G04 Created by KiCad (PCBNEW (6.0.9)) date 2023-03-08 22:08:51*
%MOMM*%
%LPD*%
G01*
G04 APERTURE LIST*
%ADD10C,0.200000*%
G04 APERTURE END LIST*
D10*
X5896419Y-14610676D02*
X5896419Y-14410676D01*
X5944038Y-14410676D01*
X5972609Y-14420200D01*
X5991657Y-14439248D01*
X6001181Y-14458295D01*
X6010705Y-14496390D01*
X6010705Y-14524962D01*
X6001181Y-14563057D01*
X5991657Y-14582105D01*
X5972609Y-14601152D01*
X5944038Y-14610676D01*
X5896419Y-14610676D01*
X6096419Y-14610676D02*
X6096419Y-14477343D01*
X6096419Y-14515438D02*
X6105943Y-14496390D01*
X6115467Y-14486867D01*
X6134514Y-14477343D01*
X6153562Y-14477343D01*
X6220228Y-14610676D02*
X6220228Y-14477343D01*
X6220228Y-14410676D02*
X6210705Y-14420200D01*
X6220228Y-14429724D01*
X6229752Y-14420200D01*
X6220228Y-14410676D01*
X6220228Y-14429724D01*
X6344038Y-14610676D02*
X6324990Y-14601152D01*
X6315467Y-14582105D01*
X6315467Y-14410676D01*
X6448800Y-14610676D02*
X6429752Y-14601152D01*
X6420228Y-14582105D01*
X6420228Y-14410676D01*
X6677371Y-14610676D02*
X6677371Y-14410676D01*
X6744038Y-14553533D01*
X6810705Y-14410676D01*
X6810705Y-14610676D01*
X6991657Y-14610676D02*
X6991657Y-14505914D01*
X6982133Y-14486867D01*
X6963086Y-14477343D01*
X6924990Y-14477343D01*
X6905943Y-14486867D01*
X6991657Y-14601152D02*
X6972609Y-14610676D01*
X6924990Y-14610676D01*
X6905943Y-14601152D01*
X6896419Y-14582105D01*
X6896419Y-14563057D01*
X6905943Y-14544009D01*
X6924990Y-14534486D01*
X6972609Y-14534486D01*
X6991657Y-14524962D01*
X7086895Y-14477343D02*
X7086895Y-14677343D01*
X7086895Y-14486867D02*
X7105943Y-14477343D01*
X7144038Y-14477343D01*
X7163086Y-14486867D01*
X7172609Y-14496390D01*
X7182133Y-14515438D01*
X7182133Y-14572581D01*
X7172609Y-14591628D01*
X7163086Y-14601152D01*
X7144038Y-14610676D01*
X7105943Y-14610676D01*
X7086895Y-14601152D01*
X7267848Y-14591628D02*
X7277371Y-14601152D01*
X7267848Y-14610676D01*
X7258324Y-14601152D01*
X7267848Y-14591628D01*
X7267848Y-14610676D01*
X7267848Y-14486867D02*
X7277371Y-14496390D01*
X7267848Y-14505914D01*
X7258324Y-14496390D01*
X7267848Y-14486867D01*
X7267848Y-14505914D01*
M02*
