%TF.GenerationSoftware,KiCad,Pcbnew,(6.0.9)*%
%TF.CreationDate,2023-03-08T22:08:51+01:00*%
%TF.ProjectId,03_Cartucho_MSX_Tang_Nano_9k_Breakout,30335f43-6172-4747-9563-686f5f4d5358,rev?*%
%TF.SameCoordinates,Original*%
%TF.FileFunction,Drillmap*%
%TF.FilePolarity,Positive*%
%FSLAX45Y45*%
G04 Gerber Fmt 4.5, Leading zero omitted, Abs format (unit mm)*
G04 Created by KiCad (PCBNEW (6.0.9)) date 2023-03-08 22:08:51*
%MOMM*%
%LPD*%
G01*
G04 APERTURE LIST*
%ADD10C,0.200000*%
%ADD11C,0.040000*%
%ADD12C,0.080000*%
%ADD13C,0.100000*%
G04 APERTURE END LIST*
D10*
D11*
X8232630Y-12710550D02*
X8272630Y-12750550D01*
X8272630Y-12710550D02*
X8232630Y-12750550D01*
X8533910Y-12940400D02*
X8573910Y-12980400D01*
X8573910Y-12940400D02*
X8533910Y-12980400D01*
X8597960Y-9685490D02*
X8637960Y-9725490D01*
X8637960Y-9685490D02*
X8597960Y-9725490D01*
X8971140Y-9111320D02*
X9011140Y-9151320D01*
X9011140Y-9111320D02*
X8971140Y-9151320D01*
X9058510Y-9001020D02*
X9098510Y-9041020D01*
X9098510Y-9001020D02*
X9058510Y-9041020D01*
X9058550Y-9775670D02*
X9098550Y-9815670D01*
X9098550Y-9775670D02*
X9058550Y-9815670D01*
X9086830Y-9627670D02*
X9126830Y-9667670D01*
X9126830Y-9627670D02*
X9086830Y-9667670D01*
X9225840Y-10962260D02*
X9265840Y-11002260D01*
X9265840Y-10962260D02*
X9225840Y-11002260D01*
X9251000Y-13022150D02*
X9291000Y-13062150D01*
X9291000Y-13022150D02*
X9251000Y-13062150D01*
X9392070Y-12999060D02*
X9432070Y-13039060D01*
X9432070Y-12999060D02*
X9392070Y-13039060D01*
X9562150Y-13000550D02*
X9602150Y-13040550D01*
X9602150Y-13000550D02*
X9562150Y-13040550D01*
X9760840Y-13164850D02*
X9800840Y-13204850D01*
X9800840Y-13164850D02*
X9760840Y-13204850D01*
X9786980Y-10330810D02*
X9826980Y-10370810D01*
X9826980Y-10330810D02*
X9786980Y-10370810D01*
X9811720Y-12541920D02*
X9851720Y-12581920D01*
X9851720Y-12541920D02*
X9811720Y-12581920D01*
X9906670Y-12495430D02*
X9946670Y-12535430D01*
X9946670Y-12495430D02*
X9906670Y-12535430D01*
X9911120Y-12298030D02*
X9951120Y-12338030D01*
X9951120Y-12298030D02*
X9911120Y-12338030D01*
X9985660Y-11590220D02*
X10025660Y-11630220D01*
X10025660Y-11590220D02*
X9985660Y-11630220D01*
X10059320Y-11033690D02*
X10099320Y-11073690D01*
X10099320Y-11033690D02*
X10059320Y-11073690D01*
X10129550Y-12391770D02*
X10169550Y-12431770D01*
X10169550Y-12391770D02*
X10129550Y-12431770D01*
X10187550Y-11297480D02*
X10227550Y-11337480D01*
X10227550Y-11297480D02*
X10187550Y-11337480D01*
X10260060Y-11512510D02*
X10300060Y-11552510D01*
X10300060Y-11512510D02*
X10260060Y-11552510D01*
X10260620Y-11840120D02*
X10300620Y-11880120D01*
X10300620Y-11840120D02*
X10260620Y-11880120D01*
X10264190Y-13226840D02*
X10304190Y-13266840D01*
X10304190Y-13226840D02*
X10264190Y-13266840D01*
X10274330Y-12307260D02*
X10314330Y-12347260D01*
X10314330Y-12307260D02*
X10274330Y-12347260D01*
X10930730Y-12677550D02*
X10970730Y-12717550D01*
X10970730Y-12677550D02*
X10930730Y-12717550D01*
X10942670Y-9201700D02*
X10982670Y-9241700D01*
X10982670Y-9201700D02*
X10942670Y-9241700D01*
X10959920Y-12878080D02*
X10999920Y-12918080D01*
X10999920Y-12878080D02*
X10959920Y-12918080D01*
X11032430Y-13199680D02*
X11072430Y-13239680D01*
X11072430Y-13199680D02*
X11032430Y-13239680D01*
X11142590Y-10252520D02*
X11182590Y-10292520D01*
X11182590Y-10252520D02*
X11142590Y-10292520D01*
X11149750Y-12634370D02*
X11189750Y-12674370D01*
X11189750Y-12634370D02*
X11149750Y-12674370D01*
X11173240Y-10017380D02*
X11213240Y-10057380D01*
X11213240Y-10017380D02*
X11173240Y-10057380D01*
X11460980Y-12899410D02*
X11500980Y-12939410D01*
X11500980Y-12899410D02*
X11460980Y-12939410D01*
X11516260Y-10013000D02*
X11556260Y-10053000D01*
X11556260Y-10013000D02*
X11516260Y-10053000D01*
X11552410Y-12211070D02*
X11592410Y-12251070D01*
X11592410Y-12211070D02*
X11552410Y-12251070D01*
X11599920Y-12371370D02*
X11639920Y-12411370D01*
X11639920Y-12371370D02*
X11599920Y-12411370D01*
X11625340Y-12576860D02*
X11665340Y-12616860D01*
X11665340Y-12576860D02*
X11625340Y-12616860D01*
X11770550Y-12563850D02*
X11810550Y-12603850D01*
X11810550Y-12563850D02*
X11770550Y-12603850D01*
X12131240Y-10734930D02*
X12171240Y-10774930D01*
X12171240Y-10734930D02*
X12131240Y-10774930D01*
X12145960Y-12354950D02*
X12185960Y-12394950D01*
X12185960Y-12354950D02*
X12145960Y-12394950D01*
X12195110Y-9268230D02*
X12235110Y-9308230D01*
X12235110Y-9268230D02*
X12195110Y-9308230D01*
X12224310Y-11588010D02*
X12264310Y-11628010D01*
X12264310Y-11588010D02*
X12224310Y-11628010D01*
X12224970Y-10267000D02*
X12264970Y-10307000D01*
X12264970Y-10267000D02*
X12224970Y-10307000D01*
X12374060Y-12585920D02*
X12414060Y-12625920D01*
X12414060Y-12585920D02*
X12374060Y-12625920D01*
X12447780Y-12508170D02*
X12487780Y-12548170D01*
X12487780Y-12508170D02*
X12447780Y-12548170D01*
X12556430Y-13216440D02*
X12596430Y-13256440D01*
X12596430Y-13216440D02*
X12556430Y-13256440D01*
X12587610Y-9811850D02*
X12627610Y-9851850D01*
X12627610Y-9811850D02*
X12587610Y-9851850D01*
X12705380Y-10960080D02*
X12745380Y-11000080D01*
X12745380Y-10960080D02*
X12705380Y-11000080D01*
X12735080Y-12959690D02*
X12775080Y-12999690D01*
X12775080Y-12959690D02*
X12735080Y-12999690D01*
X12808310Y-13091560D02*
X12848310Y-13131560D01*
X12848310Y-13091560D02*
X12808310Y-13131560D01*
X13039880Y-12354950D02*
X13079880Y-12394950D01*
X13079880Y-12354950D02*
X13039880Y-12394950D01*
X13193330Y-12508170D02*
X13233330Y-12548170D01*
X13233330Y-12508170D02*
X13193330Y-12548170D01*
X13271060Y-12585920D02*
X13311060Y-12625920D01*
X13311060Y-12585920D02*
X13271060Y-12625920D01*
X14364040Y-10190190D02*
X14404040Y-10230190D01*
X14404040Y-10190190D02*
X14364040Y-10230190D01*
X14577550Y-9459740D02*
X14617550Y-9499740D01*
X14617550Y-9459740D02*
X14577550Y-9499740D01*
D12*
X6771000Y-5461000D02*
G75*
G03*
X6771000Y-5461000I-40000J0D01*
G01*
X6771000Y-7747000D02*
G75*
G03*
X6771000Y-7747000I-40000J0D01*
G01*
X7025000Y-5461000D02*
G75*
G03*
X7025000Y-5461000I-40000J0D01*
G01*
X7025000Y-7747000D02*
G75*
G03*
X7025000Y-7747000I-40000J0D01*
G01*
X7152000Y-9906000D02*
G75*
G03*
X7152000Y-9906000I-40000J0D01*
G01*
X7152000Y-10160000D02*
G75*
G03*
X7152000Y-10160000I-40000J0D01*
G01*
X7152000Y-10414000D02*
G75*
G03*
X7152000Y-10414000I-40000J0D01*
G01*
X7152000Y-10668000D02*
G75*
G03*
X7152000Y-10668000I-40000J0D01*
G01*
X7152000Y-10922000D02*
G75*
G03*
X7152000Y-10922000I-40000J0D01*
G01*
X7152000Y-11176000D02*
G75*
G03*
X7152000Y-11176000I-40000J0D01*
G01*
X7152000Y-11430000D02*
G75*
G03*
X7152000Y-11430000I-40000J0D01*
G01*
X7152000Y-11684000D02*
G75*
G03*
X7152000Y-11684000I-40000J0D01*
G01*
X7152000Y-11938000D02*
G75*
G03*
X7152000Y-11938000I-40000J0D01*
G01*
X7152000Y-12192000D02*
G75*
G03*
X7152000Y-12192000I-40000J0D01*
G01*
X7160000Y-7112000D02*
G75*
G03*
X7160000Y-7112000I-40000J0D01*
G01*
X7279000Y-5461000D02*
G75*
G03*
X7279000Y-5461000I-40000J0D01*
G01*
X7279000Y-7747000D02*
G75*
G03*
X7279000Y-7747000I-40000J0D01*
G01*
X7287000Y-9398000D02*
G75*
G03*
X7287000Y-9398000I-40000J0D01*
G01*
X7533000Y-5461000D02*
G75*
G03*
X7533000Y-5461000I-40000J0D01*
G01*
X7533000Y-7747000D02*
G75*
G03*
X7533000Y-7747000I-40000J0D01*
G01*
X7660000Y-7112000D02*
G75*
G03*
X7660000Y-7112000I-40000J0D01*
G01*
X7787000Y-5461000D02*
G75*
G03*
X7787000Y-5461000I-40000J0D01*
G01*
X7787000Y-7747000D02*
G75*
G03*
X7787000Y-7747000I-40000J0D01*
G01*
X7787000Y-9398000D02*
G75*
G03*
X7787000Y-9398000I-40000J0D01*
G01*
X7914000Y-9906000D02*
G75*
G03*
X7914000Y-9906000I-40000J0D01*
G01*
X7914000Y-10160000D02*
G75*
G03*
X7914000Y-10160000I-40000J0D01*
G01*
X7914000Y-10414000D02*
G75*
G03*
X7914000Y-10414000I-40000J0D01*
G01*
X7914000Y-10668000D02*
G75*
G03*
X7914000Y-10668000I-40000J0D01*
G01*
X7914000Y-10922000D02*
G75*
G03*
X7914000Y-10922000I-40000J0D01*
G01*
X7914000Y-11176000D02*
G75*
G03*
X7914000Y-11176000I-40000J0D01*
G01*
X7914000Y-11430000D02*
G75*
G03*
X7914000Y-11430000I-40000J0D01*
G01*
X7914000Y-11684000D02*
G75*
G03*
X7914000Y-11684000I-40000J0D01*
G01*
X7914000Y-11938000D02*
G75*
G03*
X7914000Y-11938000I-40000J0D01*
G01*
X7914000Y-12192000D02*
G75*
G03*
X7914000Y-12192000I-40000J0D01*
G01*
X8041000Y-5461000D02*
G75*
G03*
X8041000Y-5461000I-40000J0D01*
G01*
X8041000Y-7747000D02*
G75*
G03*
X8041000Y-7747000I-40000J0D01*
G01*
X8295000Y-5461000D02*
G75*
G03*
X8295000Y-5461000I-40000J0D01*
G01*
X8295000Y-7747000D02*
G75*
G03*
X8295000Y-7747000I-40000J0D01*
G01*
X8549000Y-5461000D02*
G75*
G03*
X8549000Y-5461000I-40000J0D01*
G01*
X8549000Y-7747000D02*
G75*
G03*
X8549000Y-7747000I-40000J0D01*
G01*
X8803000Y-5461000D02*
G75*
G03*
X8803000Y-5461000I-40000J0D01*
G01*
X8803000Y-7747000D02*
G75*
G03*
X8803000Y-7747000I-40000J0D01*
G01*
X8930000Y-9906000D02*
G75*
G03*
X8930000Y-9906000I-40000J0D01*
G01*
X8930000Y-10160000D02*
G75*
G03*
X8930000Y-10160000I-40000J0D01*
G01*
X8930000Y-10414000D02*
G75*
G03*
X8930000Y-10414000I-40000J0D01*
G01*
X8930000Y-10668000D02*
G75*
G03*
X8930000Y-10668000I-40000J0D01*
G01*
X8930000Y-10922000D02*
G75*
G03*
X8930000Y-10922000I-40000J0D01*
G01*
X8930000Y-11176000D02*
G75*
G03*
X8930000Y-11176000I-40000J0D01*
G01*
X8930000Y-11430000D02*
G75*
G03*
X8930000Y-11430000I-40000J0D01*
G01*
X8930000Y-11684000D02*
G75*
G03*
X8930000Y-11684000I-40000J0D01*
G01*
X8930000Y-11938000D02*
G75*
G03*
X8930000Y-11938000I-40000J0D01*
G01*
X8930000Y-12192000D02*
G75*
G03*
X8930000Y-12192000I-40000J0D01*
G01*
X9057000Y-5461000D02*
G75*
G03*
X9057000Y-5461000I-40000J0D01*
G01*
X9057000Y-7747000D02*
G75*
G03*
X9057000Y-7747000I-40000J0D01*
G01*
X9065000Y-9398000D02*
G75*
G03*
X9065000Y-9398000I-40000J0D01*
G01*
X9311000Y-5461000D02*
G75*
G03*
X9311000Y-5461000I-40000J0D01*
G01*
X9311000Y-7747000D02*
G75*
G03*
X9311000Y-7747000I-40000J0D01*
G01*
X9565000Y-5461000D02*
G75*
G03*
X9565000Y-5461000I-40000J0D01*
G01*
X9565000Y-7747000D02*
G75*
G03*
X9565000Y-7747000I-40000J0D01*
G01*
X9565000Y-9398000D02*
G75*
G03*
X9565000Y-9398000I-40000J0D01*
G01*
X9692000Y-9906000D02*
G75*
G03*
X9692000Y-9906000I-40000J0D01*
G01*
X9692000Y-10160000D02*
G75*
G03*
X9692000Y-10160000I-40000J0D01*
G01*
X9692000Y-10414000D02*
G75*
G03*
X9692000Y-10414000I-40000J0D01*
G01*
X9692000Y-10668000D02*
G75*
G03*
X9692000Y-10668000I-40000J0D01*
G01*
X9692000Y-10922000D02*
G75*
G03*
X9692000Y-10922000I-40000J0D01*
G01*
X9692000Y-11176000D02*
G75*
G03*
X9692000Y-11176000I-40000J0D01*
G01*
X9692000Y-11430000D02*
G75*
G03*
X9692000Y-11430000I-40000J0D01*
G01*
X9692000Y-11684000D02*
G75*
G03*
X9692000Y-11684000I-40000J0D01*
G01*
X9692000Y-11938000D02*
G75*
G03*
X9692000Y-11938000I-40000J0D01*
G01*
X9692000Y-12192000D02*
G75*
G03*
X9692000Y-12192000I-40000J0D01*
G01*
X9819000Y-5461000D02*
G75*
G03*
X9819000Y-5461000I-40000J0D01*
G01*
X9819000Y-7747000D02*
G75*
G03*
X9819000Y-7747000I-40000J0D01*
G01*
X10073000Y-5461000D02*
G75*
G03*
X10073000Y-5461000I-40000J0D01*
G01*
X10073000Y-7747000D02*
G75*
G03*
X10073000Y-7747000I-40000J0D01*
G01*
X10327000Y-5461000D02*
G75*
G03*
X10327000Y-5461000I-40000J0D01*
G01*
X10327000Y-7747000D02*
G75*
G03*
X10327000Y-7747000I-40000J0D01*
G01*
X10581000Y-5461000D02*
G75*
G03*
X10581000Y-5461000I-40000J0D01*
G01*
X10581000Y-7747000D02*
G75*
G03*
X10581000Y-7747000I-40000J0D01*
G01*
X10708000Y-9906000D02*
G75*
G03*
X10708000Y-9906000I-40000J0D01*
G01*
X10708000Y-10160000D02*
G75*
G03*
X10708000Y-10160000I-40000J0D01*
G01*
X10708000Y-10414000D02*
G75*
G03*
X10708000Y-10414000I-40000J0D01*
G01*
X10708000Y-10668000D02*
G75*
G03*
X10708000Y-10668000I-40000J0D01*
G01*
X10708000Y-10922000D02*
G75*
G03*
X10708000Y-10922000I-40000J0D01*
G01*
X10708000Y-11176000D02*
G75*
G03*
X10708000Y-11176000I-40000J0D01*
G01*
X10708000Y-11430000D02*
G75*
G03*
X10708000Y-11430000I-40000J0D01*
G01*
X10708000Y-11684000D02*
G75*
G03*
X10708000Y-11684000I-40000J0D01*
G01*
X10708000Y-11938000D02*
G75*
G03*
X10708000Y-11938000I-40000J0D01*
G01*
X10708000Y-12192000D02*
G75*
G03*
X10708000Y-12192000I-40000J0D01*
G01*
X10835000Y-5461000D02*
G75*
G03*
X10835000Y-5461000I-40000J0D01*
G01*
X10835000Y-7747000D02*
G75*
G03*
X10835000Y-7747000I-40000J0D01*
G01*
X10835000Y-9398000D02*
G75*
G03*
X10835000Y-9398000I-40000J0D01*
G01*
X11089000Y-5461000D02*
G75*
G03*
X11089000Y-5461000I-40000J0D01*
G01*
X11089000Y-7747000D02*
G75*
G03*
X11089000Y-7747000I-40000J0D01*
G01*
X11335000Y-9398000D02*
G75*
G03*
X11335000Y-9398000I-40000J0D01*
G01*
X11343000Y-5461000D02*
G75*
G03*
X11343000Y-5461000I-40000J0D01*
G01*
X11343000Y-7747000D02*
G75*
G03*
X11343000Y-7747000I-40000J0D01*
G01*
X11470000Y-9906000D02*
G75*
G03*
X11470000Y-9906000I-40000J0D01*
G01*
X11470000Y-10160000D02*
G75*
G03*
X11470000Y-10160000I-40000J0D01*
G01*
X11470000Y-10414000D02*
G75*
G03*
X11470000Y-10414000I-40000J0D01*
G01*
X11470000Y-10668000D02*
G75*
G03*
X11470000Y-10668000I-40000J0D01*
G01*
X11470000Y-10922000D02*
G75*
G03*
X11470000Y-10922000I-40000J0D01*
G01*
X11470000Y-11176000D02*
G75*
G03*
X11470000Y-11176000I-40000J0D01*
G01*
X11470000Y-11430000D02*
G75*
G03*
X11470000Y-11430000I-40000J0D01*
G01*
X11470000Y-11684000D02*
G75*
G03*
X11470000Y-11684000I-40000J0D01*
G01*
X11470000Y-11938000D02*
G75*
G03*
X11470000Y-11938000I-40000J0D01*
G01*
X11470000Y-12192000D02*
G75*
G03*
X11470000Y-12192000I-40000J0D01*
G01*
X11597000Y-5461000D02*
G75*
G03*
X11597000Y-5461000I-40000J0D01*
G01*
X11597000Y-7747000D02*
G75*
G03*
X11597000Y-7747000I-40000J0D01*
G01*
X11851000Y-5461000D02*
G75*
G03*
X11851000Y-5461000I-40000J0D01*
G01*
X11851000Y-7747000D02*
G75*
G03*
X11851000Y-7747000I-40000J0D01*
G01*
X12105000Y-5461000D02*
G75*
G03*
X12105000Y-5461000I-40000J0D01*
G01*
X12105000Y-7747000D02*
G75*
G03*
X12105000Y-7747000I-40000J0D01*
G01*
X12359000Y-5461000D02*
G75*
G03*
X12359000Y-5461000I-40000J0D01*
G01*
X12359000Y-7747000D02*
G75*
G03*
X12359000Y-7747000I-40000J0D01*
G01*
X12486000Y-9906000D02*
G75*
G03*
X12486000Y-9906000I-40000J0D01*
G01*
X12486000Y-10160000D02*
G75*
G03*
X12486000Y-10160000I-40000J0D01*
G01*
X12486000Y-10414000D02*
G75*
G03*
X12486000Y-10414000I-40000J0D01*
G01*
X12486000Y-10668000D02*
G75*
G03*
X12486000Y-10668000I-40000J0D01*
G01*
X12486000Y-10922000D02*
G75*
G03*
X12486000Y-10922000I-40000J0D01*
G01*
X12486000Y-11176000D02*
G75*
G03*
X12486000Y-11176000I-40000J0D01*
G01*
X12486000Y-11430000D02*
G75*
G03*
X12486000Y-11430000I-40000J0D01*
G01*
X12486000Y-11684000D02*
G75*
G03*
X12486000Y-11684000I-40000J0D01*
G01*
X12486000Y-11938000D02*
G75*
G03*
X12486000Y-11938000I-40000J0D01*
G01*
X12486000Y-12192000D02*
G75*
G03*
X12486000Y-12192000I-40000J0D01*
G01*
X12613000Y-5461000D02*
G75*
G03*
X12613000Y-5461000I-40000J0D01*
G01*
X12613000Y-7747000D02*
G75*
G03*
X12613000Y-7747000I-40000J0D01*
G01*
X12613000Y-9398000D02*
G75*
G03*
X12613000Y-9398000I-40000J0D01*
G01*
X13113000Y-9398000D02*
G75*
G03*
X13113000Y-9398000I-40000J0D01*
G01*
X13248000Y-9906000D02*
G75*
G03*
X13248000Y-9906000I-40000J0D01*
G01*
X13248000Y-10160000D02*
G75*
G03*
X13248000Y-10160000I-40000J0D01*
G01*
X13248000Y-10414000D02*
G75*
G03*
X13248000Y-10414000I-40000J0D01*
G01*
X13248000Y-10668000D02*
G75*
G03*
X13248000Y-10668000I-40000J0D01*
G01*
X13248000Y-10922000D02*
G75*
G03*
X13248000Y-10922000I-40000J0D01*
G01*
X13248000Y-11176000D02*
G75*
G03*
X13248000Y-11176000I-40000J0D01*
G01*
X13248000Y-11430000D02*
G75*
G03*
X13248000Y-11430000I-40000J0D01*
G01*
X13248000Y-11684000D02*
G75*
G03*
X13248000Y-11684000I-40000J0D01*
G01*
X13248000Y-11938000D02*
G75*
G03*
X13248000Y-11938000I-40000J0D01*
G01*
X13248000Y-12192000D02*
G75*
G03*
X13248000Y-12192000I-40000J0D01*
G01*
X13756000Y-10033000D02*
G75*
G03*
X13756000Y-10033000I-40000J0D01*
G01*
X13756000Y-10795000D02*
G75*
G03*
X13756000Y-10795000I-40000J0D01*
G01*
X14264000Y-9906000D02*
G75*
G03*
X14264000Y-9906000I-40000J0D01*
G01*
X14264000Y-10160000D02*
G75*
G03*
X14264000Y-10160000I-40000J0D01*
G01*
X14264000Y-10414000D02*
G75*
G03*
X14264000Y-10414000I-40000J0D01*
G01*
X14264000Y-10668000D02*
G75*
G03*
X14264000Y-10668000I-40000J0D01*
G01*
X14264000Y-10922000D02*
G75*
G03*
X14264000Y-10922000I-40000J0D01*
G01*
X14264000Y-11176000D02*
G75*
G03*
X14264000Y-11176000I-40000J0D01*
G01*
X14264000Y-11430000D02*
G75*
G03*
X14264000Y-11430000I-40000J0D01*
G01*
X14264000Y-11684000D02*
G75*
G03*
X14264000Y-11684000I-40000J0D01*
G01*
X14264000Y-11938000D02*
G75*
G03*
X14264000Y-11938000I-40000J0D01*
G01*
X14264000Y-12192000D02*
G75*
G03*
X14264000Y-12192000I-40000J0D01*
G01*
X14399000Y-9398000D02*
G75*
G03*
X14399000Y-9398000I-40000J0D01*
G01*
X14899000Y-9398000D02*
G75*
G03*
X14899000Y-9398000I-40000J0D01*
G01*
X15026000Y-9906000D02*
G75*
G03*
X15026000Y-9906000I-40000J0D01*
G01*
X15026000Y-10160000D02*
G75*
G03*
X15026000Y-10160000I-40000J0D01*
G01*
X15026000Y-10414000D02*
G75*
G03*
X15026000Y-10414000I-40000J0D01*
G01*
X15026000Y-10668000D02*
G75*
G03*
X15026000Y-10668000I-40000J0D01*
G01*
X15026000Y-10922000D02*
G75*
G03*
X15026000Y-10922000I-40000J0D01*
G01*
X15026000Y-11176000D02*
G75*
G03*
X15026000Y-11176000I-40000J0D01*
G01*
X15026000Y-11430000D02*
G75*
G03*
X15026000Y-11430000I-40000J0D01*
G01*
X15026000Y-11684000D02*
G75*
G03*
X15026000Y-11684000I-40000J0D01*
G01*
X15026000Y-11938000D02*
G75*
G03*
X15026000Y-11938000I-40000J0D01*
G01*
X15026000Y-12192000D02*
G75*
G03*
X15026000Y-12192000I-40000J0D01*
G01*
D13*
X6731000Y-5030000D02*
X6731000Y-5130000D01*
X6681000Y-5080000D02*
X6781000Y-5080000D01*
X6731000Y-8080500D02*
X6731000Y-8180500D01*
X6681000Y-8130500D02*
X6781000Y-8130500D01*
X6985000Y-5030000D02*
X6985000Y-5130000D01*
X6935000Y-5080000D02*
X7035000Y-5080000D01*
X6985000Y-8080500D02*
X6985000Y-8180500D01*
X6935000Y-8130500D02*
X7035000Y-8130500D01*
X6985000Y-8840000D02*
X6985000Y-8940000D01*
X6935000Y-8890000D02*
X7035000Y-8890000D01*
X7239000Y-5030000D02*
X7239000Y-5130000D01*
X7189000Y-5080000D02*
X7289000Y-5080000D01*
X7239000Y-8080500D02*
X7239000Y-8180500D01*
X7189000Y-8130500D02*
X7289000Y-8130500D01*
X7239000Y-8840000D02*
X7239000Y-8940000D01*
X7189000Y-8890000D02*
X7289000Y-8890000D01*
X7493000Y-5030000D02*
X7493000Y-5130000D01*
X7443000Y-5080000D02*
X7543000Y-5080000D01*
X7493000Y-8080500D02*
X7493000Y-8180500D01*
X7443000Y-8130500D02*
X7543000Y-8130500D01*
X7493000Y-8840000D02*
X7493000Y-8940000D01*
X7443000Y-8890000D02*
X7543000Y-8890000D01*
X7747000Y-5030000D02*
X7747000Y-5130000D01*
X7697000Y-5080000D02*
X7797000Y-5080000D01*
X7747000Y-8080500D02*
X7747000Y-8180500D01*
X7697000Y-8130500D02*
X7797000Y-8130500D01*
X7747000Y-8840000D02*
X7747000Y-8940000D01*
X7697000Y-8890000D02*
X7797000Y-8890000D01*
X8001000Y-5030000D02*
X8001000Y-5130000D01*
X7951000Y-5080000D02*
X8051000Y-5080000D01*
X8001000Y-8080500D02*
X8001000Y-8180500D01*
X7951000Y-8130500D02*
X8051000Y-8130500D01*
X8001000Y-8840000D02*
X8001000Y-8940000D01*
X7951000Y-8890000D02*
X8051000Y-8890000D01*
X8255000Y-5030000D02*
X8255000Y-5130000D01*
X8205000Y-5080000D02*
X8305000Y-5080000D01*
X8255000Y-8080500D02*
X8255000Y-8180500D01*
X8205000Y-8130500D02*
X8305000Y-8130500D01*
X8255000Y-8840000D02*
X8255000Y-8940000D01*
X8205000Y-8890000D02*
X8305000Y-8890000D01*
X8509000Y-5030000D02*
X8509000Y-5130000D01*
X8459000Y-5080000D02*
X8559000Y-5080000D01*
X8509000Y-8080500D02*
X8509000Y-8180500D01*
X8459000Y-8130500D02*
X8559000Y-8130500D01*
X8509000Y-8840000D02*
X8509000Y-8940000D01*
X8459000Y-8890000D02*
X8559000Y-8890000D01*
X8763000Y-5030000D02*
X8763000Y-5130000D01*
X8713000Y-5080000D02*
X8813000Y-5080000D01*
X8763000Y-8080500D02*
X8763000Y-8180500D01*
X8713000Y-8130500D02*
X8813000Y-8130500D01*
X8763000Y-8840000D02*
X8763000Y-8940000D01*
X8713000Y-8890000D02*
X8813000Y-8890000D01*
X9017000Y-5030000D02*
X9017000Y-5130000D01*
X8967000Y-5080000D02*
X9067000Y-5080000D01*
X9017000Y-8080500D02*
X9017000Y-8180500D01*
X8967000Y-8130500D02*
X9067000Y-8130500D01*
X9271000Y-5030000D02*
X9271000Y-5130000D01*
X9221000Y-5080000D02*
X9321000Y-5080000D01*
X9271000Y-8080500D02*
X9271000Y-8180500D01*
X9221000Y-8130500D02*
X9321000Y-8130500D01*
X9525000Y-5030000D02*
X9525000Y-5130000D01*
X9475000Y-5080000D02*
X9575000Y-5080000D01*
X9525000Y-8080500D02*
X9525000Y-8180500D01*
X9475000Y-8130500D02*
X9575000Y-8130500D01*
X9779000Y-5030000D02*
X9779000Y-5130000D01*
X9729000Y-5080000D02*
X9829000Y-5080000D01*
X9779000Y-8080500D02*
X9779000Y-8180500D01*
X9729000Y-8130500D02*
X9829000Y-8130500D01*
X10033000Y-5030000D02*
X10033000Y-5130000D01*
X9983000Y-5080000D02*
X10083000Y-5080000D01*
X10033000Y-8080500D02*
X10033000Y-8180500D01*
X9983000Y-8130500D02*
X10083000Y-8130500D01*
X10287000Y-5030000D02*
X10287000Y-5130000D01*
X10237000Y-5080000D02*
X10337000Y-5080000D01*
X10287000Y-8080500D02*
X10287000Y-8180500D01*
X10237000Y-8130500D02*
X10337000Y-8130500D01*
X10287000Y-8840000D02*
X10287000Y-8940000D01*
X10237000Y-8890000D02*
X10337000Y-8890000D01*
X10541000Y-5030000D02*
X10541000Y-5130000D01*
X10491000Y-5080000D02*
X10591000Y-5080000D01*
X10541000Y-8080500D02*
X10541000Y-8180500D01*
X10491000Y-8130500D02*
X10591000Y-8130500D01*
X10541000Y-8840000D02*
X10541000Y-8940000D01*
X10491000Y-8890000D02*
X10591000Y-8890000D01*
X10795000Y-5030000D02*
X10795000Y-5130000D01*
X10745000Y-5080000D02*
X10845000Y-5080000D01*
X10795000Y-8080500D02*
X10795000Y-8180500D01*
X10745000Y-8130500D02*
X10845000Y-8130500D01*
X10795000Y-8840000D02*
X10795000Y-8940000D01*
X10745000Y-8890000D02*
X10845000Y-8890000D01*
X11049000Y-5030000D02*
X11049000Y-5130000D01*
X10999000Y-5080000D02*
X11099000Y-5080000D01*
X11049000Y-8080500D02*
X11049000Y-8180500D01*
X10999000Y-8130500D02*
X11099000Y-8130500D01*
X11049000Y-8840000D02*
X11049000Y-8940000D01*
X10999000Y-8890000D02*
X11099000Y-8890000D01*
X11303000Y-5030000D02*
X11303000Y-5130000D01*
X11253000Y-5080000D02*
X11353000Y-5080000D01*
X11303000Y-8080500D02*
X11303000Y-8180500D01*
X11253000Y-8130500D02*
X11353000Y-8130500D01*
X11303000Y-8840000D02*
X11303000Y-8940000D01*
X11253000Y-8890000D02*
X11353000Y-8890000D01*
X11557000Y-5030000D02*
X11557000Y-5130000D01*
X11507000Y-5080000D02*
X11607000Y-5080000D01*
X11557000Y-8080500D02*
X11557000Y-8180500D01*
X11507000Y-8130500D02*
X11607000Y-8130500D01*
X11557000Y-8840000D02*
X11557000Y-8940000D01*
X11507000Y-8890000D02*
X11607000Y-8890000D01*
X11811000Y-5030000D02*
X11811000Y-5130000D01*
X11761000Y-5080000D02*
X11861000Y-5080000D01*
X11811000Y-8080500D02*
X11811000Y-8180500D01*
X11761000Y-8130500D02*
X11861000Y-8130500D01*
X11811000Y-8840000D02*
X11811000Y-8940000D01*
X11761000Y-8890000D02*
X11861000Y-8890000D01*
X12065000Y-5030000D02*
X12065000Y-5130000D01*
X12015000Y-5080000D02*
X12115000Y-5080000D01*
X12065000Y-8080500D02*
X12065000Y-8180500D01*
X12015000Y-8130500D02*
X12115000Y-8130500D01*
X12065000Y-8840000D02*
X12065000Y-8940000D01*
X12015000Y-8890000D02*
X12115000Y-8890000D01*
X12319000Y-5030000D02*
X12319000Y-5130000D01*
X12269000Y-5080000D02*
X12369000Y-5080000D01*
X12319000Y-8080500D02*
X12319000Y-8180500D01*
X12269000Y-8130500D02*
X12369000Y-8130500D01*
X12573000Y-5030000D02*
X12573000Y-5130000D01*
X12523000Y-5080000D02*
X12623000Y-5080000D01*
X12573000Y-8080500D02*
X12573000Y-8180500D01*
X12523000Y-8130500D02*
X12623000Y-8130500D01*
X13716000Y-5284000D02*
X13716000Y-5384000D01*
X13666000Y-5334000D02*
X13766000Y-5334000D01*
X13716000Y-7824000D02*
X13716000Y-7924000D01*
X13666000Y-7874000D02*
X13766000Y-7874000D01*
X13716000Y-8840000D02*
X13716000Y-8940000D01*
X13666000Y-8890000D02*
X13766000Y-8890000D01*
X13970000Y-5284000D02*
X13970000Y-5384000D01*
X13920000Y-5334000D02*
X14020000Y-5334000D01*
X13970000Y-7824000D02*
X13970000Y-7924000D01*
X13920000Y-7874000D02*
X14020000Y-7874000D01*
X13970000Y-8840000D02*
X13970000Y-8940000D01*
X13920000Y-8890000D02*
X14020000Y-8890000D01*
X14224000Y-5284000D02*
X14224000Y-5384000D01*
X14174000Y-5334000D02*
X14274000Y-5334000D01*
X14224000Y-7824000D02*
X14224000Y-7924000D01*
X14174000Y-7874000D02*
X14274000Y-7874000D01*
X14224000Y-8840000D02*
X14224000Y-8940000D01*
X14174000Y-8890000D02*
X14274000Y-8890000D01*
X14478000Y-5284000D02*
X14478000Y-5384000D01*
X14428000Y-5334000D02*
X14528000Y-5334000D01*
X14478000Y-7824000D02*
X14478000Y-7924000D01*
X14428000Y-7874000D02*
X14528000Y-7874000D01*
X14478000Y-8840000D02*
X14478000Y-8940000D01*
X14428000Y-8890000D02*
X14528000Y-8890000D01*
X14732000Y-5284000D02*
X14732000Y-5384000D01*
X14682000Y-5334000D02*
X14782000Y-5334000D01*
X14732000Y-7824000D02*
X14732000Y-7924000D01*
X14682000Y-7874000D02*
X14782000Y-7874000D01*
X14732000Y-8840000D02*
X14732000Y-8940000D01*
X14682000Y-8890000D02*
X14782000Y-8890000D01*
X14986000Y-5284000D02*
X14986000Y-5384000D01*
X14936000Y-5334000D02*
X15036000Y-5334000D01*
X14986000Y-7824000D02*
X14986000Y-7924000D01*
X14936000Y-7874000D02*
X15036000Y-7874000D01*
X14986000Y-8840000D02*
X14986000Y-8940000D01*
X14936000Y-8890000D02*
X15036000Y-8890000D01*
X15240000Y-5284000D02*
X15240000Y-5384000D01*
X15190000Y-5334000D02*
X15290000Y-5334000D01*
X15240000Y-7824000D02*
X15240000Y-7924000D01*
X15190000Y-7874000D02*
X15290000Y-7874000D01*
X15240000Y-8840000D02*
X15240000Y-8940000D01*
X15190000Y-8890000D02*
X15290000Y-8890000D01*
X15494000Y-5284000D02*
X15494000Y-5384000D01*
X15444000Y-5334000D02*
X15544000Y-5334000D01*
X15494000Y-7824000D02*
X15494000Y-7924000D01*
X15444000Y-7874000D02*
X15544000Y-7874000D01*
X15494000Y-8840000D02*
X15494000Y-8940000D01*
X15444000Y-8890000D02*
X15544000Y-8890000D01*
D10*
X5896419Y-14610676D02*
X5896419Y-14410676D01*
X5944038Y-14410676D01*
X5972609Y-14420200D01*
X5991657Y-14439248D01*
X6001181Y-14458295D01*
X6010705Y-14496390D01*
X6010705Y-14524962D01*
X6001181Y-14563057D01*
X5991657Y-14582105D01*
X5972609Y-14601152D01*
X5944038Y-14610676D01*
X5896419Y-14610676D01*
X6096419Y-14610676D02*
X6096419Y-14477343D01*
X6096419Y-14515438D02*
X6105943Y-14496390D01*
X6115467Y-14486867D01*
X6134514Y-14477343D01*
X6153562Y-14477343D01*
X6220228Y-14610676D02*
X6220228Y-14477343D01*
X6220228Y-14410676D02*
X6210705Y-14420200D01*
X6220228Y-14429724D01*
X6229752Y-14420200D01*
X6220228Y-14410676D01*
X6220228Y-14429724D01*
X6344038Y-14610676D02*
X6324990Y-14601152D01*
X6315467Y-14582105D01*
X6315467Y-14410676D01*
X6448800Y-14610676D02*
X6429752Y-14601152D01*
X6420228Y-14582105D01*
X6420228Y-14410676D01*
X6677371Y-14610676D02*
X6677371Y-14410676D01*
X6744038Y-14553533D01*
X6810705Y-14410676D01*
X6810705Y-14610676D01*
X6991657Y-14610676D02*
X6991657Y-14505914D01*
X6982133Y-14486867D01*
X6963086Y-14477343D01*
X6924990Y-14477343D01*
X6905943Y-14486867D01*
X6991657Y-14601152D02*
X6972609Y-14610676D01*
X6924990Y-14610676D01*
X6905943Y-14601152D01*
X6896419Y-14582105D01*
X6896419Y-14563057D01*
X6905943Y-14544009D01*
X6924990Y-14534486D01*
X6972609Y-14534486D01*
X6991657Y-14524962D01*
X7086895Y-14477343D02*
X7086895Y-14677343D01*
X7086895Y-14486867D02*
X7105943Y-14477343D01*
X7144038Y-14477343D01*
X7163086Y-14486867D01*
X7172609Y-14496390D01*
X7182133Y-14515438D01*
X7182133Y-14572581D01*
X7172609Y-14591628D01*
X7163086Y-14601152D01*
X7144038Y-14610676D01*
X7105943Y-14610676D01*
X7086895Y-14601152D01*
X7267848Y-14591628D02*
X7277371Y-14601152D01*
X7267848Y-14610676D01*
X7258324Y-14601152D01*
X7267848Y-14591628D01*
X7267848Y-14610676D01*
X7267848Y-14486867D02*
X7277371Y-14496390D01*
X7267848Y-14505914D01*
X7258324Y-14496390D01*
X7267848Y-14486867D01*
X7267848Y-14505914D01*
D11*
X5598800Y-14920200D02*
X5638800Y-14960200D01*
X5638800Y-14920200D02*
X5598800Y-14960200D01*
D10*
X5934514Y-14830676D02*
X5953562Y-14830676D01*
X5972609Y-14840200D01*
X5982133Y-14849724D01*
X5991657Y-14868771D01*
X6001181Y-14906867D01*
X6001181Y-14954486D01*
X5991657Y-14992581D01*
X5982133Y-15011628D01*
X5972609Y-15021152D01*
X5953562Y-15030676D01*
X5934514Y-15030676D01*
X5915467Y-15021152D01*
X5905943Y-15011628D01*
X5896419Y-14992581D01*
X5886895Y-14954486D01*
X5886895Y-14906867D01*
X5896419Y-14868771D01*
X5905943Y-14849724D01*
X5915467Y-14840200D01*
X5934514Y-14830676D01*
X6086895Y-15011628D02*
X6096419Y-15021152D01*
X6086895Y-15030676D01*
X6077371Y-15021152D01*
X6086895Y-15011628D01*
X6086895Y-15030676D01*
X6267848Y-14897343D02*
X6267848Y-15030676D01*
X6220228Y-14821152D02*
X6172609Y-14964009D01*
X6296419Y-14964009D01*
X6410705Y-14830676D02*
X6429752Y-14830676D01*
X6448800Y-14840200D01*
X6458324Y-14849724D01*
X6467848Y-14868771D01*
X6477371Y-14906867D01*
X6477371Y-14954486D01*
X6467848Y-14992581D01*
X6458324Y-15011628D01*
X6448800Y-15021152D01*
X6429752Y-15030676D01*
X6410705Y-15030676D01*
X6391657Y-15021152D01*
X6382133Y-15011628D01*
X6372609Y-14992581D01*
X6363086Y-14954486D01*
X6363086Y-14906867D01*
X6372609Y-14868771D01*
X6382133Y-14849724D01*
X6391657Y-14840200D01*
X6410705Y-14830676D01*
X6601181Y-14830676D02*
X6620228Y-14830676D01*
X6639276Y-14840200D01*
X6648800Y-14849724D01*
X6658324Y-14868771D01*
X6667848Y-14906867D01*
X6667848Y-14954486D01*
X6658324Y-14992581D01*
X6648800Y-15011628D01*
X6639276Y-15021152D01*
X6620228Y-15030676D01*
X6601181Y-15030676D01*
X6582133Y-15021152D01*
X6572609Y-15011628D01*
X6563086Y-14992581D01*
X6553562Y-14954486D01*
X6553562Y-14906867D01*
X6563086Y-14868771D01*
X6572609Y-14849724D01*
X6582133Y-14840200D01*
X6601181Y-14830676D01*
X6753562Y-15030676D02*
X6753562Y-14897343D01*
X6753562Y-14916390D02*
X6763086Y-14906867D01*
X6782133Y-14897343D01*
X6810705Y-14897343D01*
X6829752Y-14906867D01*
X6839276Y-14925914D01*
X6839276Y-15030676D01*
X6839276Y-14925914D02*
X6848800Y-14906867D01*
X6867848Y-14897343D01*
X6896419Y-14897343D01*
X6915467Y-14906867D01*
X6924990Y-14925914D01*
X6924990Y-15030676D01*
X7020228Y-15030676D02*
X7020228Y-14897343D01*
X7020228Y-14916390D02*
X7029752Y-14906867D01*
X7048800Y-14897343D01*
X7077371Y-14897343D01*
X7096419Y-14906867D01*
X7105943Y-14925914D01*
X7105943Y-15030676D01*
X7105943Y-14925914D02*
X7115467Y-14906867D01*
X7134514Y-14897343D01*
X7163086Y-14897343D01*
X7182133Y-14906867D01*
X7191657Y-14925914D01*
X7191657Y-15030676D01*
X7582133Y-14821152D02*
X7410705Y-15078295D01*
X7839276Y-14830676D02*
X7858324Y-14830676D01*
X7877371Y-14840200D01*
X7886895Y-14849724D01*
X7896419Y-14868771D01*
X7905943Y-14906867D01*
X7905943Y-14954486D01*
X7896419Y-14992581D01*
X7886895Y-15011628D01*
X7877371Y-15021152D01*
X7858324Y-15030676D01*
X7839276Y-15030676D01*
X7820228Y-15021152D01*
X7810705Y-15011628D01*
X7801181Y-14992581D01*
X7791657Y-14954486D01*
X7791657Y-14906867D01*
X7801181Y-14868771D01*
X7810705Y-14849724D01*
X7820228Y-14840200D01*
X7839276Y-14830676D01*
X7991657Y-15011628D02*
X8001181Y-15021152D01*
X7991657Y-15030676D01*
X7982133Y-15021152D01*
X7991657Y-15011628D01*
X7991657Y-15030676D01*
X8124990Y-14830676D02*
X8144038Y-14830676D01*
X8163086Y-14840200D01*
X8172609Y-14849724D01*
X8182133Y-14868771D01*
X8191657Y-14906867D01*
X8191657Y-14954486D01*
X8182133Y-14992581D01*
X8172609Y-15011628D01*
X8163086Y-15021152D01*
X8144038Y-15030676D01*
X8124990Y-15030676D01*
X8105943Y-15021152D01*
X8096419Y-15011628D01*
X8086895Y-14992581D01*
X8077371Y-14954486D01*
X8077371Y-14906867D01*
X8086895Y-14868771D01*
X8096419Y-14849724D01*
X8105943Y-14840200D01*
X8124990Y-14830676D01*
X8382133Y-15030676D02*
X8267848Y-15030676D01*
X8324990Y-15030676D02*
X8324990Y-14830676D01*
X8305943Y-14859248D01*
X8286895Y-14878295D01*
X8267848Y-14887819D01*
X8563086Y-14830676D02*
X8467848Y-14830676D01*
X8458324Y-14925914D01*
X8467848Y-14916390D01*
X8486895Y-14906867D01*
X8534514Y-14906867D01*
X8553562Y-14916390D01*
X8563086Y-14925914D01*
X8572610Y-14944962D01*
X8572610Y-14992581D01*
X8563086Y-15011628D01*
X8553562Y-15021152D01*
X8534514Y-15030676D01*
X8486895Y-15030676D01*
X8467848Y-15021152D01*
X8458324Y-15011628D01*
X8639276Y-14830676D02*
X8772610Y-14830676D01*
X8686895Y-15030676D01*
X8839276Y-14830676D02*
X8839276Y-14868771D01*
X8915467Y-14830676D02*
X8915467Y-14868771D01*
X9210705Y-15106867D02*
X9201181Y-15097343D01*
X9182133Y-15068771D01*
X9172610Y-15049724D01*
X9163086Y-15021152D01*
X9153562Y-14973533D01*
X9153562Y-14935438D01*
X9163086Y-14887819D01*
X9172610Y-14859248D01*
X9182133Y-14840200D01*
X9201181Y-14811628D01*
X9210705Y-14802105D01*
X9382133Y-14830676D02*
X9286895Y-14830676D01*
X9277371Y-14925914D01*
X9286895Y-14916390D01*
X9305943Y-14906867D01*
X9353562Y-14906867D01*
X9372610Y-14916390D01*
X9382133Y-14925914D01*
X9391657Y-14944962D01*
X9391657Y-14992581D01*
X9382133Y-15011628D01*
X9372610Y-15021152D01*
X9353562Y-15030676D01*
X9305943Y-15030676D01*
X9286895Y-15021152D01*
X9277371Y-15011628D01*
X9563086Y-14897343D02*
X9563086Y-15030676D01*
X9515467Y-14821152D02*
X9467848Y-14964009D01*
X9591657Y-14964009D01*
X9820229Y-15030676D02*
X9820229Y-14830676D01*
X9905943Y-15030676D02*
X9905943Y-14925914D01*
X9896419Y-14906867D01*
X9877371Y-14897343D01*
X9848800Y-14897343D01*
X9829752Y-14906867D01*
X9820229Y-14916390D01*
X10029752Y-15030676D02*
X10010705Y-15021152D01*
X10001181Y-15011628D01*
X9991657Y-14992581D01*
X9991657Y-14935438D01*
X10001181Y-14916390D01*
X10010705Y-14906867D01*
X10029752Y-14897343D01*
X10058324Y-14897343D01*
X10077371Y-14906867D01*
X10086895Y-14916390D01*
X10096419Y-14935438D01*
X10096419Y-14992581D01*
X10086895Y-15011628D01*
X10077371Y-15021152D01*
X10058324Y-15030676D01*
X10029752Y-15030676D01*
X10210705Y-15030676D02*
X10191657Y-15021152D01*
X10182133Y-15002105D01*
X10182133Y-14830676D01*
X10363086Y-15021152D02*
X10344038Y-15030676D01*
X10305943Y-15030676D01*
X10286895Y-15021152D01*
X10277371Y-15002105D01*
X10277371Y-14925914D01*
X10286895Y-14906867D01*
X10305943Y-14897343D01*
X10344038Y-14897343D01*
X10363086Y-14906867D01*
X10372610Y-14925914D01*
X10372610Y-14944962D01*
X10277371Y-14964009D01*
X10448800Y-15021152D02*
X10467848Y-15030676D01*
X10505943Y-15030676D01*
X10524990Y-15021152D01*
X10534514Y-15002105D01*
X10534514Y-14992581D01*
X10524990Y-14973533D01*
X10505943Y-14964009D01*
X10477371Y-14964009D01*
X10458324Y-14954486D01*
X10448800Y-14935438D01*
X10448800Y-14925914D01*
X10458324Y-14906867D01*
X10477371Y-14897343D01*
X10505943Y-14897343D01*
X10524990Y-14906867D01*
X10601181Y-15106867D02*
X10610705Y-15097343D01*
X10629752Y-15068771D01*
X10639276Y-15049724D01*
X10648800Y-15021152D01*
X10658324Y-14973533D01*
X10658324Y-14935438D01*
X10648800Y-14887819D01*
X10639276Y-14859248D01*
X10629752Y-14840200D01*
X10610705Y-14811628D01*
X10601181Y-14802105D01*
D12*
X5638800Y-15204200D02*
G75*
G03*
X5638800Y-15204200I-40000J0D01*
G01*
D10*
X5934514Y-15094676D02*
X5953562Y-15094676D01*
X5972609Y-15104200D01*
X5982133Y-15113724D01*
X5991657Y-15132771D01*
X6001181Y-15170867D01*
X6001181Y-15218486D01*
X5991657Y-15256581D01*
X5982133Y-15275628D01*
X5972609Y-15285152D01*
X5953562Y-15294676D01*
X5934514Y-15294676D01*
X5915467Y-15285152D01*
X5905943Y-15275628D01*
X5896419Y-15256581D01*
X5886895Y-15218486D01*
X5886895Y-15170867D01*
X5896419Y-15132771D01*
X5905943Y-15113724D01*
X5915467Y-15104200D01*
X5934514Y-15094676D01*
X6086895Y-15275628D02*
X6096419Y-15285152D01*
X6086895Y-15294676D01*
X6077371Y-15285152D01*
X6086895Y-15275628D01*
X6086895Y-15294676D01*
X6210705Y-15180390D02*
X6191657Y-15170867D01*
X6182133Y-15161343D01*
X6172609Y-15142295D01*
X6172609Y-15132771D01*
X6182133Y-15113724D01*
X6191657Y-15104200D01*
X6210705Y-15094676D01*
X6248800Y-15094676D01*
X6267848Y-15104200D01*
X6277371Y-15113724D01*
X6286895Y-15132771D01*
X6286895Y-15142295D01*
X6277371Y-15161343D01*
X6267848Y-15170867D01*
X6248800Y-15180390D01*
X6210705Y-15180390D01*
X6191657Y-15189914D01*
X6182133Y-15199438D01*
X6172609Y-15218486D01*
X6172609Y-15256581D01*
X6182133Y-15275628D01*
X6191657Y-15285152D01*
X6210705Y-15294676D01*
X6248800Y-15294676D01*
X6267848Y-15285152D01*
X6277371Y-15275628D01*
X6286895Y-15256581D01*
X6286895Y-15218486D01*
X6277371Y-15199438D01*
X6267848Y-15189914D01*
X6248800Y-15180390D01*
X6410705Y-15094676D02*
X6429752Y-15094676D01*
X6448800Y-15104200D01*
X6458324Y-15113724D01*
X6467848Y-15132771D01*
X6477371Y-15170867D01*
X6477371Y-15218486D01*
X6467848Y-15256581D01*
X6458324Y-15275628D01*
X6448800Y-15285152D01*
X6429752Y-15294676D01*
X6410705Y-15294676D01*
X6391657Y-15285152D01*
X6382133Y-15275628D01*
X6372609Y-15256581D01*
X6363086Y-15218486D01*
X6363086Y-15170867D01*
X6372609Y-15132771D01*
X6382133Y-15113724D01*
X6391657Y-15104200D01*
X6410705Y-15094676D01*
X6601181Y-15094676D02*
X6620228Y-15094676D01*
X6639276Y-15104200D01*
X6648800Y-15113724D01*
X6658324Y-15132771D01*
X6667848Y-15170867D01*
X6667848Y-15218486D01*
X6658324Y-15256581D01*
X6648800Y-15275628D01*
X6639276Y-15285152D01*
X6620228Y-15294676D01*
X6601181Y-15294676D01*
X6582133Y-15285152D01*
X6572609Y-15275628D01*
X6563086Y-15256581D01*
X6553562Y-15218486D01*
X6553562Y-15170867D01*
X6563086Y-15132771D01*
X6572609Y-15113724D01*
X6582133Y-15104200D01*
X6601181Y-15094676D01*
X6753562Y-15294676D02*
X6753562Y-15161343D01*
X6753562Y-15180390D02*
X6763086Y-15170867D01*
X6782133Y-15161343D01*
X6810705Y-15161343D01*
X6829752Y-15170867D01*
X6839276Y-15189914D01*
X6839276Y-15294676D01*
X6839276Y-15189914D02*
X6848800Y-15170867D01*
X6867848Y-15161343D01*
X6896419Y-15161343D01*
X6915467Y-15170867D01*
X6924990Y-15189914D01*
X6924990Y-15294676D01*
X7020228Y-15294676D02*
X7020228Y-15161343D01*
X7020228Y-15180390D02*
X7029752Y-15170867D01*
X7048800Y-15161343D01*
X7077371Y-15161343D01*
X7096419Y-15170867D01*
X7105943Y-15189914D01*
X7105943Y-15294676D01*
X7105943Y-15189914D02*
X7115467Y-15170867D01*
X7134514Y-15161343D01*
X7163086Y-15161343D01*
X7182133Y-15170867D01*
X7191657Y-15189914D01*
X7191657Y-15294676D01*
X7582133Y-15085152D02*
X7410705Y-15342295D01*
X7839276Y-15094676D02*
X7858324Y-15094676D01*
X7877371Y-15104200D01*
X7886895Y-15113724D01*
X7896419Y-15132771D01*
X7905943Y-15170867D01*
X7905943Y-15218486D01*
X7896419Y-15256581D01*
X7886895Y-15275628D01*
X7877371Y-15285152D01*
X7858324Y-15294676D01*
X7839276Y-15294676D01*
X7820228Y-15285152D01*
X7810705Y-15275628D01*
X7801181Y-15256581D01*
X7791657Y-15218486D01*
X7791657Y-15170867D01*
X7801181Y-15132771D01*
X7810705Y-15113724D01*
X7820228Y-15104200D01*
X7839276Y-15094676D01*
X7991657Y-15275628D02*
X8001181Y-15285152D01*
X7991657Y-15294676D01*
X7982133Y-15285152D01*
X7991657Y-15275628D01*
X7991657Y-15294676D01*
X8124990Y-15094676D02*
X8144038Y-15094676D01*
X8163086Y-15104200D01*
X8172609Y-15113724D01*
X8182133Y-15132771D01*
X8191657Y-15170867D01*
X8191657Y-15218486D01*
X8182133Y-15256581D01*
X8172609Y-15275628D01*
X8163086Y-15285152D01*
X8144038Y-15294676D01*
X8124990Y-15294676D01*
X8105943Y-15285152D01*
X8096419Y-15275628D01*
X8086895Y-15256581D01*
X8077371Y-15218486D01*
X8077371Y-15170867D01*
X8086895Y-15132771D01*
X8096419Y-15113724D01*
X8105943Y-15104200D01*
X8124990Y-15094676D01*
X8258324Y-15094676D02*
X8382133Y-15094676D01*
X8315467Y-15170867D01*
X8344038Y-15170867D01*
X8363086Y-15180390D01*
X8372609Y-15189914D01*
X8382133Y-15208962D01*
X8382133Y-15256581D01*
X8372609Y-15275628D01*
X8363086Y-15285152D01*
X8344038Y-15294676D01*
X8286895Y-15294676D01*
X8267848Y-15285152D01*
X8258324Y-15275628D01*
X8572610Y-15294676D02*
X8458324Y-15294676D01*
X8515467Y-15294676D02*
X8515467Y-15094676D01*
X8496419Y-15123248D01*
X8477371Y-15142295D01*
X8458324Y-15151819D01*
X8753562Y-15094676D02*
X8658324Y-15094676D01*
X8648800Y-15189914D01*
X8658324Y-15180390D01*
X8677371Y-15170867D01*
X8724990Y-15170867D01*
X8744038Y-15180390D01*
X8753562Y-15189914D01*
X8763086Y-15208962D01*
X8763086Y-15256581D01*
X8753562Y-15275628D01*
X8744038Y-15285152D01*
X8724990Y-15294676D01*
X8677371Y-15294676D01*
X8658324Y-15285152D01*
X8648800Y-15275628D01*
X8839276Y-15094676D02*
X8839276Y-15132771D01*
X8915467Y-15094676D02*
X8915467Y-15132771D01*
X9210705Y-15370867D02*
X9201181Y-15361343D01*
X9182133Y-15332771D01*
X9172610Y-15313724D01*
X9163086Y-15285152D01*
X9153562Y-15237533D01*
X9153562Y-15199438D01*
X9163086Y-15151819D01*
X9172610Y-15123248D01*
X9182133Y-15104200D01*
X9201181Y-15075628D01*
X9210705Y-15066105D01*
X9391657Y-15294676D02*
X9277371Y-15294676D01*
X9334514Y-15294676D02*
X9334514Y-15094676D01*
X9315467Y-15123248D01*
X9296419Y-15142295D01*
X9277371Y-15151819D01*
X9563086Y-15094676D02*
X9524990Y-15094676D01*
X9505943Y-15104200D01*
X9496419Y-15113724D01*
X9477371Y-15142295D01*
X9467848Y-15180390D01*
X9467848Y-15256581D01*
X9477371Y-15275628D01*
X9486895Y-15285152D01*
X9505943Y-15294676D01*
X9544038Y-15294676D01*
X9563086Y-15285152D01*
X9572610Y-15275628D01*
X9582133Y-15256581D01*
X9582133Y-15208962D01*
X9572610Y-15189914D01*
X9563086Y-15180390D01*
X9544038Y-15170867D01*
X9505943Y-15170867D01*
X9486895Y-15180390D01*
X9477371Y-15189914D01*
X9467848Y-15208962D01*
X9658324Y-15113724D02*
X9667848Y-15104200D01*
X9686895Y-15094676D01*
X9734514Y-15094676D01*
X9753562Y-15104200D01*
X9763086Y-15113724D01*
X9772610Y-15132771D01*
X9772610Y-15151819D01*
X9763086Y-15180390D01*
X9648800Y-15294676D01*
X9772610Y-15294676D01*
X10010705Y-15294676D02*
X10010705Y-15094676D01*
X10096419Y-15294676D02*
X10096419Y-15189914D01*
X10086895Y-15170867D01*
X10067848Y-15161343D01*
X10039276Y-15161343D01*
X10020229Y-15170867D01*
X10010705Y-15180390D01*
X10220229Y-15294676D02*
X10201181Y-15285152D01*
X10191657Y-15275628D01*
X10182133Y-15256581D01*
X10182133Y-15199438D01*
X10191657Y-15180390D01*
X10201181Y-15170867D01*
X10220229Y-15161343D01*
X10248800Y-15161343D01*
X10267848Y-15170867D01*
X10277371Y-15180390D01*
X10286895Y-15199438D01*
X10286895Y-15256581D01*
X10277371Y-15275628D01*
X10267848Y-15285152D01*
X10248800Y-15294676D01*
X10220229Y-15294676D01*
X10401181Y-15294676D02*
X10382133Y-15285152D01*
X10372610Y-15266105D01*
X10372610Y-15094676D01*
X10553562Y-15285152D02*
X10534514Y-15294676D01*
X10496419Y-15294676D01*
X10477371Y-15285152D01*
X10467848Y-15266105D01*
X10467848Y-15189914D01*
X10477371Y-15170867D01*
X10496419Y-15161343D01*
X10534514Y-15161343D01*
X10553562Y-15170867D01*
X10563086Y-15189914D01*
X10563086Y-15208962D01*
X10467848Y-15228009D01*
X10639276Y-15285152D02*
X10658324Y-15294676D01*
X10696419Y-15294676D01*
X10715467Y-15285152D01*
X10724990Y-15266105D01*
X10724990Y-15256581D01*
X10715467Y-15237533D01*
X10696419Y-15228009D01*
X10667848Y-15228009D01*
X10648800Y-15218486D01*
X10639276Y-15199438D01*
X10639276Y-15189914D01*
X10648800Y-15170867D01*
X10667848Y-15161343D01*
X10696419Y-15161343D01*
X10715467Y-15170867D01*
X10791657Y-15370867D02*
X10801181Y-15361343D01*
X10820229Y-15332771D01*
X10829752Y-15313724D01*
X10839276Y-15285152D01*
X10848800Y-15237533D01*
X10848800Y-15199438D01*
X10839276Y-15151819D01*
X10829752Y-15123248D01*
X10820229Y-15104200D01*
X10801181Y-15075628D01*
X10791657Y-15066105D01*
D13*
X5588800Y-15418200D02*
X5588800Y-15518200D01*
X5538800Y-15468200D02*
X5638800Y-15468200D01*
D10*
X6001181Y-15558676D02*
X5886895Y-15558676D01*
X5944038Y-15558676D02*
X5944038Y-15358676D01*
X5924990Y-15387248D01*
X5905943Y-15406295D01*
X5886895Y-15415819D01*
X6086895Y-15539628D02*
X6096419Y-15549152D01*
X6086895Y-15558676D01*
X6077371Y-15549152D01*
X6086895Y-15539628D01*
X6086895Y-15558676D01*
X6220228Y-15358676D02*
X6239276Y-15358676D01*
X6258324Y-15368200D01*
X6267848Y-15377724D01*
X6277371Y-15396771D01*
X6286895Y-15434867D01*
X6286895Y-15482486D01*
X6277371Y-15520581D01*
X6267848Y-15539628D01*
X6258324Y-15549152D01*
X6239276Y-15558676D01*
X6220228Y-15558676D01*
X6201181Y-15549152D01*
X6191657Y-15539628D01*
X6182133Y-15520581D01*
X6172609Y-15482486D01*
X6172609Y-15434867D01*
X6182133Y-15396771D01*
X6191657Y-15377724D01*
X6201181Y-15368200D01*
X6220228Y-15358676D01*
X6410705Y-15358676D02*
X6429752Y-15358676D01*
X6448800Y-15368200D01*
X6458324Y-15377724D01*
X6467848Y-15396771D01*
X6477371Y-15434867D01*
X6477371Y-15482486D01*
X6467848Y-15520581D01*
X6458324Y-15539628D01*
X6448800Y-15549152D01*
X6429752Y-15558676D01*
X6410705Y-15558676D01*
X6391657Y-15549152D01*
X6382133Y-15539628D01*
X6372609Y-15520581D01*
X6363086Y-15482486D01*
X6363086Y-15434867D01*
X6372609Y-15396771D01*
X6382133Y-15377724D01*
X6391657Y-15368200D01*
X6410705Y-15358676D01*
X6601181Y-15358676D02*
X6620228Y-15358676D01*
X6639276Y-15368200D01*
X6648800Y-15377724D01*
X6658324Y-15396771D01*
X6667848Y-15434867D01*
X6667848Y-15482486D01*
X6658324Y-15520581D01*
X6648800Y-15539628D01*
X6639276Y-15549152D01*
X6620228Y-15558676D01*
X6601181Y-15558676D01*
X6582133Y-15549152D01*
X6572609Y-15539628D01*
X6563086Y-15520581D01*
X6553562Y-15482486D01*
X6553562Y-15434867D01*
X6563086Y-15396771D01*
X6572609Y-15377724D01*
X6582133Y-15368200D01*
X6601181Y-15358676D01*
X6753562Y-15558676D02*
X6753562Y-15425343D01*
X6753562Y-15444390D02*
X6763086Y-15434867D01*
X6782133Y-15425343D01*
X6810705Y-15425343D01*
X6829752Y-15434867D01*
X6839276Y-15453914D01*
X6839276Y-15558676D01*
X6839276Y-15453914D02*
X6848800Y-15434867D01*
X6867848Y-15425343D01*
X6896419Y-15425343D01*
X6915467Y-15434867D01*
X6924990Y-15453914D01*
X6924990Y-15558676D01*
X7020228Y-15558676D02*
X7020228Y-15425343D01*
X7020228Y-15444390D02*
X7029752Y-15434867D01*
X7048800Y-15425343D01*
X7077371Y-15425343D01*
X7096419Y-15434867D01*
X7105943Y-15453914D01*
X7105943Y-15558676D01*
X7105943Y-15453914D02*
X7115467Y-15434867D01*
X7134514Y-15425343D01*
X7163086Y-15425343D01*
X7182133Y-15434867D01*
X7191657Y-15453914D01*
X7191657Y-15558676D01*
X7582133Y-15349152D02*
X7410705Y-15606295D01*
X7839276Y-15358676D02*
X7858324Y-15358676D01*
X7877371Y-15368200D01*
X7886895Y-15377724D01*
X7896419Y-15396771D01*
X7905943Y-15434867D01*
X7905943Y-15482486D01*
X7896419Y-15520581D01*
X7886895Y-15539628D01*
X7877371Y-15549152D01*
X7858324Y-15558676D01*
X7839276Y-15558676D01*
X7820228Y-15549152D01*
X7810705Y-15539628D01*
X7801181Y-15520581D01*
X7791657Y-15482486D01*
X7791657Y-15434867D01*
X7801181Y-15396771D01*
X7810705Y-15377724D01*
X7820228Y-15368200D01*
X7839276Y-15358676D01*
X7991657Y-15539628D02*
X8001181Y-15549152D01*
X7991657Y-15558676D01*
X7982133Y-15549152D01*
X7991657Y-15539628D01*
X7991657Y-15558676D01*
X8124990Y-15358676D02*
X8144038Y-15358676D01*
X8163086Y-15368200D01*
X8172609Y-15377724D01*
X8182133Y-15396771D01*
X8191657Y-15434867D01*
X8191657Y-15482486D01*
X8182133Y-15520581D01*
X8172609Y-15539628D01*
X8163086Y-15549152D01*
X8144038Y-15558676D01*
X8124990Y-15558676D01*
X8105943Y-15549152D01*
X8096419Y-15539628D01*
X8086895Y-15520581D01*
X8077371Y-15482486D01*
X8077371Y-15434867D01*
X8086895Y-15396771D01*
X8096419Y-15377724D01*
X8105943Y-15368200D01*
X8124990Y-15358676D01*
X8258324Y-15358676D02*
X8382133Y-15358676D01*
X8315467Y-15434867D01*
X8344038Y-15434867D01*
X8363086Y-15444390D01*
X8372609Y-15453914D01*
X8382133Y-15472962D01*
X8382133Y-15520581D01*
X8372609Y-15539628D01*
X8363086Y-15549152D01*
X8344038Y-15558676D01*
X8286895Y-15558676D01*
X8267848Y-15549152D01*
X8258324Y-15539628D01*
X8477371Y-15558676D02*
X8515467Y-15558676D01*
X8534514Y-15549152D01*
X8544038Y-15539628D01*
X8563086Y-15511057D01*
X8572610Y-15472962D01*
X8572610Y-15396771D01*
X8563086Y-15377724D01*
X8553562Y-15368200D01*
X8534514Y-15358676D01*
X8496419Y-15358676D01*
X8477371Y-15368200D01*
X8467848Y-15377724D01*
X8458324Y-15396771D01*
X8458324Y-15444390D01*
X8467848Y-15463438D01*
X8477371Y-15472962D01*
X8496419Y-15482486D01*
X8534514Y-15482486D01*
X8553562Y-15472962D01*
X8563086Y-15463438D01*
X8572610Y-15444390D01*
X8744038Y-15425343D02*
X8744038Y-15558676D01*
X8696419Y-15349152D02*
X8648800Y-15492009D01*
X8772610Y-15492009D01*
X8839276Y-15358676D02*
X8839276Y-15396771D01*
X8915467Y-15358676D02*
X8915467Y-15396771D01*
X9210705Y-15634867D02*
X9201181Y-15625343D01*
X9182133Y-15596771D01*
X9172610Y-15577724D01*
X9163086Y-15549152D01*
X9153562Y-15501533D01*
X9153562Y-15463438D01*
X9163086Y-15415819D01*
X9172610Y-15387248D01*
X9182133Y-15368200D01*
X9201181Y-15339628D01*
X9210705Y-15330105D01*
X9315467Y-15444390D02*
X9296419Y-15434867D01*
X9286895Y-15425343D01*
X9277371Y-15406295D01*
X9277371Y-15396771D01*
X9286895Y-15377724D01*
X9296419Y-15368200D01*
X9315467Y-15358676D01*
X9353562Y-15358676D01*
X9372610Y-15368200D01*
X9382133Y-15377724D01*
X9391657Y-15396771D01*
X9391657Y-15406295D01*
X9382133Y-15425343D01*
X9372610Y-15434867D01*
X9353562Y-15444390D01*
X9315467Y-15444390D01*
X9296419Y-15453914D01*
X9286895Y-15463438D01*
X9277371Y-15482486D01*
X9277371Y-15520581D01*
X9286895Y-15539628D01*
X9296419Y-15549152D01*
X9315467Y-15558676D01*
X9353562Y-15558676D01*
X9372610Y-15549152D01*
X9382133Y-15539628D01*
X9391657Y-15520581D01*
X9391657Y-15482486D01*
X9382133Y-15463438D01*
X9372610Y-15453914D01*
X9353562Y-15444390D01*
X9505943Y-15444390D02*
X9486895Y-15434867D01*
X9477371Y-15425343D01*
X9467848Y-15406295D01*
X9467848Y-15396771D01*
X9477371Y-15377724D01*
X9486895Y-15368200D01*
X9505943Y-15358676D01*
X9544038Y-15358676D01*
X9563086Y-15368200D01*
X9572610Y-15377724D01*
X9582133Y-15396771D01*
X9582133Y-15406295D01*
X9572610Y-15425343D01*
X9563086Y-15434867D01*
X9544038Y-15444390D01*
X9505943Y-15444390D01*
X9486895Y-15453914D01*
X9477371Y-15463438D01*
X9467848Y-15482486D01*
X9467848Y-15520581D01*
X9477371Y-15539628D01*
X9486895Y-15549152D01*
X9505943Y-15558676D01*
X9544038Y-15558676D01*
X9563086Y-15549152D01*
X9572610Y-15539628D01*
X9582133Y-15520581D01*
X9582133Y-15482486D01*
X9572610Y-15463438D01*
X9563086Y-15453914D01*
X9544038Y-15444390D01*
X9820229Y-15558676D02*
X9820229Y-15358676D01*
X9905943Y-15558676D02*
X9905943Y-15453914D01*
X9896419Y-15434867D01*
X9877371Y-15425343D01*
X9848800Y-15425343D01*
X9829752Y-15434867D01*
X9820229Y-15444390D01*
X10029752Y-15558676D02*
X10010705Y-15549152D01*
X10001181Y-15539628D01*
X9991657Y-15520581D01*
X9991657Y-15463438D01*
X10001181Y-15444390D01*
X10010705Y-15434867D01*
X10029752Y-15425343D01*
X10058324Y-15425343D01*
X10077371Y-15434867D01*
X10086895Y-15444390D01*
X10096419Y-15463438D01*
X10096419Y-15520581D01*
X10086895Y-15539628D01*
X10077371Y-15549152D01*
X10058324Y-15558676D01*
X10029752Y-15558676D01*
X10210705Y-15558676D02*
X10191657Y-15549152D01*
X10182133Y-15530105D01*
X10182133Y-15358676D01*
X10363086Y-15549152D02*
X10344038Y-15558676D01*
X10305943Y-15558676D01*
X10286895Y-15549152D01*
X10277371Y-15530105D01*
X10277371Y-15453914D01*
X10286895Y-15434867D01*
X10305943Y-15425343D01*
X10344038Y-15425343D01*
X10363086Y-15434867D01*
X10372610Y-15453914D01*
X10372610Y-15472962D01*
X10277371Y-15492009D01*
X10448800Y-15549152D02*
X10467848Y-15558676D01*
X10505943Y-15558676D01*
X10524990Y-15549152D01*
X10534514Y-15530105D01*
X10534514Y-15520581D01*
X10524990Y-15501533D01*
X10505943Y-15492009D01*
X10477371Y-15492009D01*
X10458324Y-15482486D01*
X10448800Y-15463438D01*
X10448800Y-15453914D01*
X10458324Y-15434867D01*
X10477371Y-15425343D01*
X10505943Y-15425343D01*
X10524990Y-15434867D01*
X10601181Y-15634867D02*
X10610705Y-15625343D01*
X10629752Y-15596771D01*
X10639276Y-15577724D01*
X10648800Y-15549152D01*
X10658324Y-15501533D01*
X10658324Y-15463438D01*
X10648800Y-15415819D01*
X10639276Y-15387248D01*
X10629752Y-15368200D01*
X10610705Y-15339628D01*
X10601181Y-15330105D01*
M02*
