G04 #@! TF.GenerationSoftware,KiCad,Pcbnew,(6.0.9)*
G04 #@! TF.CreationDate,2023-03-08T22:08:06+01:00*
G04 #@! TF.ProjectId,03_Cartucho_MSX_Tang_Nano_9k_Breakout,30335f43-6172-4747-9563-686f5f4d5358,rev?*
G04 #@! TF.SameCoordinates,Original*
G04 #@! TF.FileFunction,Soldermask,Bot*
G04 #@! TF.FilePolarity,Negative*
%FSLAX46Y46*%
G04 Gerber Fmt 4.6, Leading zero omitted, Abs format (unit mm)*
G04 Created by KiCad (PCBNEW (6.0.9)) date 2023-03-08 22:08:06*
%MOMM*%
%LPD*%
G01*
G04 APERTURE LIST*
%ADD10R,1.700000X1.700000*%
%ADD11O,1.700000X1.700000*%
%ADD12C,1.600000*%
%ADD13R,1.600000X1.600000*%
%ADD14O,1.600000X1.600000*%
%ADD15R,1.270000X7.620000*%
%ADD16R,1.600000X2.400000*%
%ADD17O,1.600000X2.400000*%
G04 APERTURE END LIST*
D10*
X125730000Y-81305000D03*
D11*
X123190000Y-81305000D03*
X120650000Y-81305000D03*
X118110000Y-81305000D03*
X115570000Y-81305000D03*
X113030000Y-81305000D03*
X110490000Y-81305000D03*
X107950000Y-81305000D03*
X105410000Y-81305000D03*
X102870000Y-81305000D03*
X100330000Y-81305000D03*
X97790000Y-81305000D03*
X95250000Y-81305000D03*
X92710000Y-81305000D03*
X90170000Y-81305000D03*
X87630000Y-81305000D03*
X85090000Y-81305000D03*
X82550000Y-81305000D03*
X80010000Y-81305000D03*
X77470000Y-81305000D03*
X74930000Y-81305000D03*
X72390000Y-81305000D03*
X69850000Y-81305000D03*
X67310000Y-81305000D03*
D12*
X76200000Y-71120000D03*
X71200000Y-71120000D03*
X148590000Y-93980000D03*
X143590000Y-93980000D03*
X72470000Y-93980000D03*
X77470000Y-93980000D03*
D13*
X71120000Y-99060000D03*
D14*
X71120000Y-101600000D03*
X71120000Y-104140000D03*
X71120000Y-106680000D03*
X71120000Y-109220000D03*
X71120000Y-111760000D03*
X71120000Y-114300000D03*
X71120000Y-116840000D03*
X71120000Y-119380000D03*
X71120000Y-121920000D03*
X78740000Y-121920000D03*
X78740000Y-119380000D03*
X78740000Y-116840000D03*
X78740000Y-114300000D03*
X78740000Y-111760000D03*
X78740000Y-109220000D03*
X78740000Y-106680000D03*
X78740000Y-104140000D03*
X78740000Y-101600000D03*
X78740000Y-99060000D03*
D15*
X142240000Y-139065000D03*
X139700000Y-139065000D03*
X137160000Y-139065000D03*
X134620000Y-139065000D03*
X132080000Y-139065000D03*
X129540000Y-139065000D03*
X127000000Y-139065000D03*
X124460000Y-139065000D03*
X121920000Y-139065000D03*
X119380000Y-139065000D03*
X116840000Y-139065000D03*
X114300000Y-139065000D03*
X111760000Y-139065000D03*
X109220000Y-139065000D03*
X106680000Y-139065000D03*
X104140000Y-139065000D03*
X101600000Y-139065000D03*
X99060000Y-139065000D03*
X96520000Y-139065000D03*
X93980000Y-139065000D03*
X91440000Y-139065000D03*
X88900000Y-139065000D03*
X86360000Y-139065000D03*
X83820000Y-139065000D03*
X81280000Y-139065000D03*
D16*
X125730000Y-54610000D03*
D17*
X123190000Y-54610000D03*
X120650000Y-54610000D03*
X118110000Y-54610000D03*
X115570000Y-54610000D03*
X113030000Y-54610000D03*
X110490000Y-54610000D03*
X107950000Y-54610000D03*
X105410000Y-54610000D03*
X102870000Y-54610000D03*
X100330000Y-54610000D03*
X97790000Y-54610000D03*
X95250000Y-54610000D03*
X92710000Y-54610000D03*
X90170000Y-54610000D03*
X87630000Y-54610000D03*
X85090000Y-54610000D03*
X82550000Y-54610000D03*
X80010000Y-54610000D03*
X77470000Y-54610000D03*
X74930000Y-54610000D03*
X72390000Y-54610000D03*
X69850000Y-54610000D03*
X67310000Y-54610000D03*
X67310000Y-77470000D03*
X69850000Y-77470000D03*
X72390000Y-77470000D03*
X74930000Y-77470000D03*
X77470000Y-77470000D03*
X80010000Y-77470000D03*
X82550000Y-77470000D03*
X85090000Y-77470000D03*
X87630000Y-77470000D03*
X90170000Y-77470000D03*
X92710000Y-77470000D03*
X95250000Y-77470000D03*
X97790000Y-77470000D03*
X100330000Y-77470000D03*
X102870000Y-77470000D03*
X105410000Y-77470000D03*
X107950000Y-77470000D03*
X110490000Y-77470000D03*
X113030000Y-77470000D03*
X115570000Y-77470000D03*
X118110000Y-77470000D03*
X120650000Y-77470000D03*
X123190000Y-77470000D03*
X125730000Y-77470000D03*
D10*
X125730000Y-50800000D03*
D11*
X123190000Y-50800000D03*
X120650000Y-50800000D03*
X118110000Y-50800000D03*
X115570000Y-50800000D03*
X113030000Y-50800000D03*
X110490000Y-50800000D03*
X107950000Y-50800000D03*
X105410000Y-50800000D03*
X102870000Y-50800000D03*
X100330000Y-50800000D03*
X97790000Y-50800000D03*
X95250000Y-50800000D03*
X92710000Y-50800000D03*
X90170000Y-50800000D03*
X87630000Y-50800000D03*
X85090000Y-50800000D03*
X82550000Y-50800000D03*
X80010000Y-50800000D03*
X77470000Y-50800000D03*
X74930000Y-50800000D03*
X72390000Y-50800000D03*
X69850000Y-50800000D03*
X67310000Y-50800000D03*
D10*
X137160000Y-78740000D03*
D11*
X139700000Y-78740000D03*
X142240000Y-78740000D03*
X144780000Y-78740000D03*
X147320000Y-78740000D03*
X149860000Y-78740000D03*
X152400000Y-78740000D03*
X154940000Y-78740000D03*
D14*
X132080000Y-99060000D03*
X132080000Y-101600000D03*
X132080000Y-104140000D03*
X132080000Y-106680000D03*
X132080000Y-109220000D03*
X132080000Y-111760000D03*
X132080000Y-114300000D03*
X132080000Y-116840000D03*
X132080000Y-119380000D03*
X132080000Y-121920000D03*
X124460000Y-121920000D03*
X124460000Y-119380000D03*
X124460000Y-116840000D03*
X124460000Y-114300000D03*
X124460000Y-111760000D03*
X124460000Y-109220000D03*
X124460000Y-106680000D03*
X124460000Y-104140000D03*
X124460000Y-101600000D03*
D13*
X124460000Y-99060000D03*
D12*
X107950000Y-93980000D03*
X112950000Y-93980000D03*
X90250000Y-93980000D03*
X95250000Y-93980000D03*
X137160000Y-100330000D03*
D14*
X137160000Y-107950000D03*
D12*
X125730000Y-93980000D03*
X130730000Y-93980000D03*
D10*
X69850000Y-88900000D03*
D11*
X72390000Y-88900000D03*
X74930000Y-88900000D03*
X77470000Y-88900000D03*
X80010000Y-88900000D03*
X82550000Y-88900000D03*
X85090000Y-88900000D03*
X87630000Y-88900000D03*
D10*
X137160000Y-53340000D03*
D11*
X139700000Y-53340000D03*
X142240000Y-53340000D03*
X144780000Y-53340000D03*
X147320000Y-53340000D03*
X149860000Y-53340000D03*
X152400000Y-53340000D03*
X154940000Y-53340000D03*
D13*
X88900000Y-99060000D03*
D14*
X88900000Y-101600000D03*
X88900000Y-104140000D03*
X88900000Y-106680000D03*
X88900000Y-109220000D03*
X88900000Y-111760000D03*
X88900000Y-114300000D03*
X88900000Y-116840000D03*
X88900000Y-119380000D03*
X88900000Y-121920000D03*
X96520000Y-121920000D03*
X96520000Y-119380000D03*
X96520000Y-116840000D03*
X96520000Y-114300000D03*
X96520000Y-111760000D03*
X96520000Y-109220000D03*
X96520000Y-106680000D03*
X96520000Y-104140000D03*
X96520000Y-101600000D03*
X96520000Y-99060000D03*
D13*
X142240000Y-99060000D03*
D14*
X142240000Y-101600000D03*
X142240000Y-104140000D03*
X142240000Y-106680000D03*
X142240000Y-109220000D03*
X142240000Y-111760000D03*
X142240000Y-114300000D03*
X142240000Y-116840000D03*
X142240000Y-119380000D03*
X142240000Y-121920000D03*
X149860000Y-121920000D03*
X149860000Y-119380000D03*
X149860000Y-116840000D03*
X149860000Y-114300000D03*
X149860000Y-111760000D03*
X149860000Y-109220000D03*
X149860000Y-106680000D03*
X149860000Y-104140000D03*
X149860000Y-101600000D03*
X149860000Y-99060000D03*
D13*
X106680000Y-99060000D03*
D14*
X106680000Y-101600000D03*
X106680000Y-104140000D03*
X106680000Y-106680000D03*
X106680000Y-109220000D03*
X106680000Y-111760000D03*
X106680000Y-114300000D03*
X106680000Y-116840000D03*
X106680000Y-119380000D03*
X106680000Y-121920000D03*
X114300000Y-121920000D03*
X114300000Y-119380000D03*
X114300000Y-116840000D03*
X114300000Y-114300000D03*
X114300000Y-111760000D03*
X114300000Y-109220000D03*
X114300000Y-106680000D03*
X114300000Y-104140000D03*
X114300000Y-101600000D03*
X114300000Y-99060000D03*
D10*
X102870000Y-88900000D03*
D11*
X105410000Y-88900000D03*
X107950000Y-88900000D03*
X110490000Y-88900000D03*
X113030000Y-88900000D03*
X115570000Y-88900000D03*
X118110000Y-88900000D03*
X120650000Y-88900000D03*
D10*
X137160000Y-88900000D03*
D11*
X139700000Y-88900000D03*
X142240000Y-88900000D03*
X144780000Y-88900000D03*
X147320000Y-88900000D03*
X149860000Y-88900000D03*
X152400000Y-88900000D03*
X154940000Y-88900000D03*
M02*
