M48
; DRILL file {KiCad (6.0.9)} date Wed Mar  8 22:08:48 2023
; FORMAT={-:-/ absolute / metric / decimal}
; #@! TF.CreationDate,2023-03-08T22:08:48+01:00
; #@! TF.GenerationSoftware,Kicad,Pcbnew,(6.0.9)
; #@! TF.FileFunction,Plated,1,2,PTH
FMAT,2
METRIC
; #@! TA.AperFunction,Plated,PTH,ViaDrill
T1C0.400
; #@! TA.AperFunction,Plated,PTH,ComponentDrill
T2C0.800
; #@! TA.AperFunction,Plated,PTH,ComponentDrill
T3C1.000
%
G90
G05
T1
X82.526Y-127.305
X85.539Y-129.604
X86.18Y-97.055
X89.911Y-91.313
X90.785Y-90.21
X90.785Y-97.957
X91.068Y-96.477
X92.458Y-109.823
X92.71Y-130.421
X94.121Y-130.191
X95.822Y-130.206
X97.808Y-131.849
X98.07Y-103.508
X98.317Y-125.619
X99.267Y-125.154
X99.311Y-123.18
X100.057Y-116.102
X100.793Y-110.537
X101.495Y-124.118
X102.075Y-113.175
X102.801Y-115.325
X102.806Y-118.601
X102.842Y-132.468
X102.943Y-123.273
X109.507Y-126.975
X109.627Y-92.217
X109.799Y-128.981
X110.524Y-132.197
X111.626Y-102.725
X111.697Y-126.544
X111.932Y-100.374
X114.81Y-129.194
X115.363Y-100.33
X115.724Y-122.311
X116.199Y-123.914
X116.453Y-125.969
X117.905Y-125.838
X121.512Y-107.549
X121.66Y-123.749
X122.151Y-92.882
X122.443Y-116.08
X122.45Y-102.87
X123.941Y-126.059
X124.678Y-125.282
X125.764Y-132.364
X126.076Y-98.319
X127.254Y-109.801
X127.551Y-129.797
X128.283Y-131.116
X130.599Y-123.749
X132.133Y-125.282
X132.911Y-126.059
X143.84Y-102.102
X145.975Y-94.797
T2
X67.31Y-54.61
X67.31Y-77.47
X69.85Y-54.61
X69.85Y-77.47
X71.12Y-99.06
X71.12Y-101.6
X71.12Y-104.14
X71.12Y-106.68
X71.12Y-109.22
X71.12Y-111.76
X71.12Y-114.3
X71.12Y-116.84
X71.12Y-119.38
X71.12Y-121.92
X71.2Y-71.12
X72.39Y-54.61
X72.39Y-77.47
X72.47Y-93.98
X74.93Y-54.61
X74.93Y-77.47
X76.2Y-71.12
X77.47Y-54.61
X77.47Y-77.47
X77.47Y-93.98
X78.74Y-99.06
X78.74Y-101.6
X78.74Y-104.14
X78.74Y-106.68
X78.74Y-109.22
X78.74Y-111.76
X78.74Y-114.3
X78.74Y-116.84
X78.74Y-119.38
X78.74Y-121.92
X80.01Y-54.61
X80.01Y-77.47
X82.55Y-54.61
X82.55Y-77.47
X85.09Y-54.61
X85.09Y-77.47
X87.63Y-54.61
X87.63Y-77.47
X88.9Y-99.06
X88.9Y-101.6
X88.9Y-104.14
X88.9Y-106.68
X88.9Y-109.22
X88.9Y-111.76
X88.9Y-114.3
X88.9Y-116.84
X88.9Y-119.38
X88.9Y-121.92
X90.17Y-54.61
X90.17Y-77.47
X90.25Y-93.98
X92.71Y-54.61
X92.71Y-77.47
X95.25Y-54.61
X95.25Y-77.47
X95.25Y-93.98
X96.52Y-99.06
X96.52Y-101.6
X96.52Y-104.14
X96.52Y-106.68
X96.52Y-109.22
X96.52Y-111.76
X96.52Y-114.3
X96.52Y-116.84
X96.52Y-119.38
X96.52Y-121.92
X97.79Y-54.61
X97.79Y-77.47
X100.33Y-54.61
X100.33Y-77.47
X102.87Y-54.61
X102.87Y-77.47
X105.41Y-54.61
X105.41Y-77.47
X106.68Y-99.06
X106.68Y-101.6
X106.68Y-104.14
X106.68Y-106.68
X106.68Y-109.22
X106.68Y-111.76
X106.68Y-114.3
X106.68Y-116.84
X106.68Y-119.38
X106.68Y-121.92
X107.95Y-54.61
X107.95Y-77.47
X107.95Y-93.98
X110.49Y-54.61
X110.49Y-77.47
X112.95Y-93.98
X113.03Y-54.61
X113.03Y-77.47
X114.3Y-99.06
X114.3Y-101.6
X114.3Y-104.14
X114.3Y-106.68
X114.3Y-109.22
X114.3Y-111.76
X114.3Y-114.3
X114.3Y-116.84
X114.3Y-119.38
X114.3Y-121.92
X115.57Y-54.61
X115.57Y-77.47
X118.11Y-54.61
X118.11Y-77.47
X120.65Y-54.61
X120.65Y-77.47
X123.19Y-54.61
X123.19Y-77.47
X124.46Y-99.06
X124.46Y-101.6
X124.46Y-104.14
X124.46Y-106.68
X124.46Y-109.22
X124.46Y-111.76
X124.46Y-114.3
X124.46Y-116.84
X124.46Y-119.38
X124.46Y-121.92
X125.73Y-54.61
X125.73Y-77.47
X125.73Y-93.98
X130.73Y-93.98
X132.08Y-99.06
X132.08Y-101.6
X132.08Y-104.14
X132.08Y-106.68
X132.08Y-109.22
X132.08Y-111.76
X132.08Y-114.3
X132.08Y-116.84
X132.08Y-119.38
X132.08Y-121.92
X137.16Y-100.33
X137.16Y-107.95
X142.24Y-99.06
X142.24Y-101.6
X142.24Y-104.14
X142.24Y-106.68
X142.24Y-109.22
X142.24Y-111.76
X142.24Y-114.3
X142.24Y-116.84
X142.24Y-119.38
X142.24Y-121.92
X143.59Y-93.98
X148.59Y-93.98
X149.86Y-99.06
X149.86Y-101.6
X149.86Y-104.14
X149.86Y-106.68
X149.86Y-109.22
X149.86Y-111.76
X149.86Y-114.3
X149.86Y-116.84
X149.86Y-119.38
X149.86Y-121.92
T3
X67.31Y-50.8
X67.31Y-81.305
X69.85Y-50.8
X69.85Y-81.305
X69.85Y-88.9
X72.39Y-50.8
X72.39Y-81.305
X72.39Y-88.9
X74.93Y-50.8
X74.93Y-81.305
X74.93Y-88.9
X77.47Y-50.8
X77.47Y-81.305
X77.47Y-88.9
X80.01Y-50.8
X80.01Y-81.305
X80.01Y-88.9
X82.55Y-50.8
X82.55Y-81.305
X82.55Y-88.9
X85.09Y-50.8
X85.09Y-81.305
X85.09Y-88.9
X87.63Y-50.8
X87.63Y-81.305
X87.63Y-88.9
X90.17Y-50.8
X90.17Y-81.305
X92.71Y-50.8
X92.71Y-81.305
X95.25Y-50.8
X95.25Y-81.305
X97.79Y-50.8
X97.79Y-81.305
X100.33Y-50.8
X100.33Y-81.305
X102.87Y-50.8
X102.87Y-81.305
X102.87Y-88.9
X105.41Y-50.8
X105.41Y-81.305
X105.41Y-88.9
X107.95Y-50.8
X107.95Y-81.305
X107.95Y-88.9
X110.49Y-50.8
X110.49Y-81.305
X110.49Y-88.9
X113.03Y-50.8
X113.03Y-81.305
X113.03Y-88.9
X115.57Y-50.8
X115.57Y-81.305
X115.57Y-88.9
X118.11Y-50.8
X118.11Y-81.305
X118.11Y-88.9
X120.65Y-50.8
X120.65Y-81.305
X120.65Y-88.9
X123.19Y-50.8
X123.19Y-81.305
X125.73Y-50.8
X125.73Y-81.305
X137.16Y-53.34
X137.16Y-78.74
X137.16Y-88.9
X139.7Y-53.34
X139.7Y-78.74
X139.7Y-88.9
X142.24Y-53.34
X142.24Y-78.74
X142.24Y-88.9
X144.78Y-53.34
X144.78Y-78.74
X144.78Y-88.9
X147.32Y-53.34
X147.32Y-78.74
X147.32Y-88.9
X149.86Y-53.34
X149.86Y-78.74
X149.86Y-88.9
X152.4Y-53.34
X152.4Y-78.74
X152.4Y-88.9
X154.94Y-53.34
X154.94Y-78.74
X154.94Y-88.9
T0
M30
