G04 #@! TF.GenerationSoftware,KiCad,Pcbnew,(6.0.9)*
G04 #@! TF.CreationDate,2023-03-08T22:08:06+01:00*
G04 #@! TF.ProjectId,03_Cartucho_MSX_Tang_Nano_9k_Breakout,30335f43-6172-4747-9563-686f5f4d5358,rev?*
G04 #@! TF.SameCoordinates,Original*
G04 #@! TF.FileFunction,Legend,Top*
G04 #@! TF.FilePolarity,Positive*
%FSLAX46Y46*%
G04 Gerber Fmt 4.6, Leading zero omitted, Abs format (unit mm)*
G04 Created by KiCad (PCBNEW (6.0.9)) date 2023-03-08 22:08:06*
%MOMM*%
%LPD*%
G01*
G04 APERTURE LIST*
%ADD10C,0.150000*%
%ADD11C,0.096520*%
%ADD12C,0.120000*%
%ADD13C,0.100000*%
%ADD14R,1.700000X1.700000*%
%ADD15O,1.700000X1.700000*%
%ADD16C,1.600000*%
%ADD17R,1.600000X1.600000*%
%ADD18O,1.600000X1.600000*%
%ADD19R,1.270000X7.620000*%
%ADD20R,1.600000X2.400000*%
%ADD21O,1.600000X2.400000*%
G04 APERTURE END LIST*
D10*
X142597142Y-131807976D02*
X142644761Y-131855595D01*
X142692380Y-131998452D01*
X142692380Y-132093690D01*
X142644761Y-132236547D01*
X142549523Y-132331785D01*
X142454285Y-132379404D01*
X142263809Y-132427023D01*
X142120952Y-132427023D01*
X141930476Y-132379404D01*
X141835238Y-132331785D01*
X141740000Y-132236547D01*
X141692380Y-132093690D01*
X141692380Y-131998452D01*
X141740000Y-131855595D01*
X141787619Y-131807976D01*
X142644761Y-131427023D02*
X142692380Y-131284166D01*
X142692380Y-131046071D01*
X142644761Y-130950833D01*
X142597142Y-130903214D01*
X142501904Y-130855595D01*
X142406666Y-130855595D01*
X142311428Y-130903214D01*
X142263809Y-130950833D01*
X142216190Y-131046071D01*
X142168571Y-131236547D01*
X142120952Y-131331785D01*
X142073333Y-131379404D01*
X141978095Y-131427023D01*
X141882857Y-131427023D01*
X141787619Y-131379404D01*
X141740000Y-131331785D01*
X141692380Y-131236547D01*
X141692380Y-130998452D01*
X141740000Y-130855595D01*
X141787619Y-130474642D02*
X141740000Y-130427023D01*
X141692380Y-130331785D01*
X141692380Y-130093690D01*
X141740000Y-129998452D01*
X141787619Y-129950833D01*
X141882857Y-129903214D01*
X141978095Y-129903214D01*
X142120952Y-129950833D01*
X142692380Y-130522261D01*
X142692380Y-129903214D01*
X140104761Y-132427023D02*
X140152380Y-132284166D01*
X140152380Y-132046071D01*
X140104761Y-131950833D01*
X140057142Y-131903214D01*
X139961904Y-131855595D01*
X139866666Y-131855595D01*
X139771428Y-131903214D01*
X139723809Y-131950833D01*
X139676190Y-132046071D01*
X139628571Y-132236547D01*
X139580952Y-132331785D01*
X139533333Y-132379404D01*
X139438095Y-132427023D01*
X139342857Y-132427023D01*
X139247619Y-132379404D01*
X139200000Y-132331785D01*
X139152380Y-132236547D01*
X139152380Y-131998452D01*
X139200000Y-131855595D01*
X140152380Y-130950833D02*
X140152380Y-131427023D01*
X139152380Y-131427023D01*
X139152380Y-130760357D02*
X139152380Y-130188928D01*
X140152380Y-130474642D02*
X139152380Y-130474642D01*
X140104761Y-129903214D02*
X140152380Y-129760357D01*
X140152380Y-129522261D01*
X140104761Y-129427023D01*
X140057142Y-129379404D01*
X139961904Y-129331785D01*
X139866666Y-129331785D01*
X139771428Y-129379404D01*
X139723809Y-129427023D01*
X139676190Y-129522261D01*
X139628571Y-129712738D01*
X139580952Y-129807976D01*
X139533333Y-129855595D01*
X139438095Y-129903214D01*
X139342857Y-129903214D01*
X139247619Y-129855595D01*
X139200000Y-129807976D01*
X139152380Y-129712738D01*
X139152380Y-129474642D01*
X139200000Y-129331785D01*
X140152380Y-128427023D02*
X140152380Y-128903214D01*
X139152380Y-128903214D01*
X137612380Y-131807976D02*
X137136190Y-132141309D01*
X137612380Y-132379404D02*
X136612380Y-132379404D01*
X136612380Y-131998452D01*
X136660000Y-131903214D01*
X136707619Y-131855595D01*
X136802857Y-131807976D01*
X136945714Y-131807976D01*
X137040952Y-131855595D01*
X137088571Y-131903214D01*
X137136190Y-131998452D01*
X137136190Y-132379404D01*
X137088571Y-131046071D02*
X137088571Y-131379404D01*
X137612380Y-131379404D02*
X136612380Y-131379404D01*
X136612380Y-130903214D01*
X137564761Y-130569880D02*
X137612380Y-130427023D01*
X137612380Y-130188928D01*
X137564761Y-130093690D01*
X137517142Y-130046071D01*
X137421904Y-129998452D01*
X137326666Y-129998452D01*
X137231428Y-130046071D01*
X137183809Y-130093690D01*
X137136190Y-130188928D01*
X137088571Y-130379404D01*
X137040952Y-130474642D01*
X136993333Y-130522261D01*
X136898095Y-130569880D01*
X136802857Y-130569880D01*
X136707619Y-130522261D01*
X136660000Y-130474642D01*
X136612380Y-130379404D01*
X136612380Y-130141309D01*
X136660000Y-129998452D01*
X137612380Y-129569880D02*
X136612380Y-129569880D01*
X137088571Y-129569880D02*
X137088571Y-128998452D01*
X137612380Y-128998452D02*
X136612380Y-128998452D01*
X135072380Y-132379404D02*
X134072380Y-132379404D01*
X135072380Y-131903214D02*
X134072380Y-131903214D01*
X135072380Y-131331785D01*
X134072380Y-131331785D01*
X134072380Y-130998452D02*
X134072380Y-130427023D01*
X135072380Y-130712738D02*
X134072380Y-130712738D01*
X132008571Y-132046071D02*
X132056190Y-131903214D01*
X132103809Y-131855595D01*
X132199047Y-131807976D01*
X132341904Y-131807976D01*
X132437142Y-131855595D01*
X132484761Y-131903214D01*
X132532380Y-131998452D01*
X132532380Y-132379404D01*
X131532380Y-132379404D01*
X131532380Y-132046071D01*
X131580000Y-131950833D01*
X131627619Y-131903214D01*
X131722857Y-131855595D01*
X131818095Y-131855595D01*
X131913333Y-131903214D01*
X131960952Y-131950833D01*
X132008571Y-132046071D01*
X132008571Y-132379404D01*
X132532380Y-131379404D02*
X131532380Y-131379404D01*
X131532380Y-131141309D01*
X131580000Y-130998452D01*
X131675238Y-130903214D01*
X131770476Y-130855595D01*
X131960952Y-130807976D01*
X132103809Y-130807976D01*
X132294285Y-130855595D01*
X132389523Y-130903214D01*
X132484761Y-130998452D01*
X132532380Y-131141309D01*
X132532380Y-131379404D01*
X132532380Y-130379404D02*
X131532380Y-130379404D01*
X132532380Y-129331785D02*
X132056190Y-129665119D01*
X132532380Y-129903214D02*
X131532380Y-129903214D01*
X131532380Y-129522261D01*
X131580000Y-129427023D01*
X131627619Y-129379404D01*
X131722857Y-129331785D01*
X131865714Y-129331785D01*
X131960952Y-129379404D01*
X132008571Y-129427023D01*
X132056190Y-129522261D01*
X132056190Y-129903214D01*
X129992380Y-132379404D02*
X128992380Y-132379404D01*
X129706666Y-132046071D01*
X128992380Y-131712738D01*
X129992380Y-131712738D01*
X129992380Y-130665119D02*
X129516190Y-130998452D01*
X129992380Y-131236547D02*
X128992380Y-131236547D01*
X128992380Y-130855595D01*
X129040000Y-130760357D01*
X129087619Y-130712738D01*
X129182857Y-130665119D01*
X129325714Y-130665119D01*
X129420952Y-130712738D01*
X129468571Y-130760357D01*
X129516190Y-130855595D01*
X129516190Y-131236547D01*
X130087619Y-129569880D02*
X130040000Y-129665119D01*
X129944761Y-129760357D01*
X129801904Y-129903214D01*
X129754285Y-129998452D01*
X129754285Y-130093690D01*
X129992380Y-130046071D02*
X129944761Y-130141309D01*
X129849523Y-130236547D01*
X129659047Y-130284166D01*
X129325714Y-130284166D01*
X129135238Y-130236547D01*
X129040000Y-130141309D01*
X128992380Y-130046071D01*
X128992380Y-129855595D01*
X129040000Y-129760357D01*
X129135238Y-129665119D01*
X129325714Y-129617500D01*
X129659047Y-129617500D01*
X129849523Y-129665119D01*
X129944761Y-129760357D01*
X129992380Y-129855595D01*
X129992380Y-130046071D01*
X127452380Y-131807976D02*
X126976190Y-132141309D01*
X127452380Y-132379404D02*
X126452380Y-132379404D01*
X126452380Y-131998452D01*
X126500000Y-131903214D01*
X126547619Y-131855595D01*
X126642857Y-131807976D01*
X126785714Y-131807976D01*
X126880952Y-131855595D01*
X126928571Y-131903214D01*
X126976190Y-131998452D01*
X126976190Y-132379404D01*
X127452380Y-131379404D02*
X126452380Y-131379404D01*
X126452380Y-131141309D01*
X126500000Y-130998452D01*
X126595238Y-130903214D01*
X126690476Y-130855595D01*
X126880952Y-130807976D01*
X127023809Y-130807976D01*
X127214285Y-130855595D01*
X127309523Y-130903214D01*
X127404761Y-130998452D01*
X127452380Y-131141309D01*
X127452380Y-131379404D01*
X122086666Y-132427023D02*
X122086666Y-131950833D01*
X122372380Y-132522261D02*
X121372380Y-132188928D01*
X122372380Y-131855595D01*
X122372380Y-130998452D02*
X122372380Y-131569880D01*
X122372380Y-131284166D02*
X121372380Y-131284166D01*
X121515238Y-131379404D01*
X121610476Y-131474642D01*
X121658095Y-131569880D01*
X121372380Y-130093690D02*
X121372380Y-130569880D01*
X121848571Y-130617500D01*
X121800952Y-130569880D01*
X121753333Y-130474642D01*
X121753333Y-130236547D01*
X121800952Y-130141309D01*
X121848571Y-130093690D01*
X121943809Y-130046071D01*
X122181904Y-130046071D01*
X122277142Y-130093690D01*
X122324761Y-130141309D01*
X122372380Y-130236547D01*
X122372380Y-130474642D01*
X122324761Y-130569880D01*
X122277142Y-130617500D01*
X119546666Y-132427023D02*
X119546666Y-131950833D01*
X119832380Y-132522261D02*
X118832380Y-132188928D01*
X119832380Y-131855595D01*
X119832380Y-130998452D02*
X119832380Y-131569880D01*
X119832380Y-131284166D02*
X118832380Y-131284166D01*
X118975238Y-131379404D01*
X119070476Y-131474642D01*
X119118095Y-131569880D01*
X118832380Y-130379404D02*
X118832380Y-130284166D01*
X118880000Y-130188928D01*
X118927619Y-130141309D01*
X119022857Y-130093690D01*
X119213333Y-130046071D01*
X119451428Y-130046071D01*
X119641904Y-130093690D01*
X119737142Y-130141309D01*
X119784761Y-130188928D01*
X119832380Y-130284166D01*
X119832380Y-130379404D01*
X119784761Y-130474642D01*
X119737142Y-130522261D01*
X119641904Y-130569880D01*
X119451428Y-130617500D01*
X119213333Y-130617500D01*
X119022857Y-130569880D01*
X118927619Y-130522261D01*
X118880000Y-130474642D01*
X118832380Y-130379404D01*
X117006666Y-132427023D02*
X117006666Y-131950833D01*
X117292380Y-132522261D02*
X116292380Y-132188928D01*
X117292380Y-131855595D01*
X116292380Y-131093690D02*
X116292380Y-131284166D01*
X116340000Y-131379404D01*
X116387619Y-131427023D01*
X116530476Y-131522261D01*
X116720952Y-131569880D01*
X117101904Y-131569880D01*
X117197142Y-131522261D01*
X117244761Y-131474642D01*
X117292380Y-131379404D01*
X117292380Y-131188928D01*
X117244761Y-131093690D01*
X117197142Y-131046071D01*
X117101904Y-130998452D01*
X116863809Y-130998452D01*
X116768571Y-131046071D01*
X116720952Y-131093690D01*
X116673333Y-131188928D01*
X116673333Y-131379404D01*
X116720952Y-131474642D01*
X116768571Y-131522261D01*
X116863809Y-131569880D01*
X114466666Y-132427023D02*
X114466666Y-131950833D01*
X114752380Y-132522261D02*
X113752380Y-132188928D01*
X114752380Y-131855595D01*
X114180952Y-131379404D02*
X114133333Y-131474642D01*
X114085714Y-131522261D01*
X113990476Y-131569880D01*
X113942857Y-131569880D01*
X113847619Y-131522261D01*
X113800000Y-131474642D01*
X113752380Y-131379404D01*
X113752380Y-131188928D01*
X113800000Y-131093690D01*
X113847619Y-131046071D01*
X113942857Y-130998452D01*
X113990476Y-130998452D01*
X114085714Y-131046071D01*
X114133333Y-131093690D01*
X114180952Y-131188928D01*
X114180952Y-131379404D01*
X114228571Y-131474642D01*
X114276190Y-131522261D01*
X114371428Y-131569880D01*
X114561904Y-131569880D01*
X114657142Y-131522261D01*
X114704761Y-131474642D01*
X114752380Y-131379404D01*
X114752380Y-131188928D01*
X114704761Y-131093690D01*
X114657142Y-131046071D01*
X114561904Y-130998452D01*
X114371428Y-130998452D01*
X114276190Y-131046071D01*
X114228571Y-131093690D01*
X114180952Y-131188928D01*
X111926666Y-132427023D02*
X111926666Y-131950833D01*
X112212380Y-132522261D02*
X111212380Y-132188928D01*
X112212380Y-131855595D01*
X112212380Y-130998452D02*
X112212380Y-131569880D01*
X112212380Y-131284166D02*
X111212380Y-131284166D01*
X111355238Y-131379404D01*
X111450476Y-131474642D01*
X111498095Y-131569880D01*
X111212380Y-130665119D02*
X111212380Y-130046071D01*
X111593333Y-130379404D01*
X111593333Y-130236547D01*
X111640952Y-130141309D01*
X111688571Y-130093690D01*
X111783809Y-130046071D01*
X112021904Y-130046071D01*
X112117142Y-130093690D01*
X112164761Y-130141309D01*
X112212380Y-130236547D01*
X112212380Y-130522261D01*
X112164761Y-130617500D01*
X112117142Y-130665119D01*
X109386666Y-132427023D02*
X109386666Y-131950833D01*
X109672380Y-132522261D02*
X108672380Y-132188928D01*
X109672380Y-131855595D01*
X108672380Y-131331785D02*
X108672380Y-131236547D01*
X108720000Y-131141309D01*
X108767619Y-131093690D01*
X108862857Y-131046071D01*
X109053333Y-130998452D01*
X109291428Y-130998452D01*
X109481904Y-131046071D01*
X109577142Y-131093690D01*
X109624761Y-131141309D01*
X109672380Y-131236547D01*
X109672380Y-131331785D01*
X109624761Y-131427023D01*
X109577142Y-131474642D01*
X109481904Y-131522261D01*
X109291428Y-131569880D01*
X109053333Y-131569880D01*
X108862857Y-131522261D01*
X108767619Y-131474642D01*
X108720000Y-131427023D01*
X108672380Y-131331785D01*
X106846666Y-132427023D02*
X106846666Y-131950833D01*
X107132380Y-132522261D02*
X106132380Y-132188928D01*
X107132380Y-131855595D01*
X106227619Y-131569880D02*
X106180000Y-131522261D01*
X106132380Y-131427023D01*
X106132380Y-131188928D01*
X106180000Y-131093690D01*
X106227619Y-131046071D01*
X106322857Y-130998452D01*
X106418095Y-130998452D01*
X106560952Y-131046071D01*
X107132380Y-131617500D01*
X107132380Y-130998452D01*
X104306666Y-132427023D02*
X104306666Y-131950833D01*
X104592380Y-132522261D02*
X103592380Y-132188928D01*
X104592380Y-131855595D01*
X103925714Y-131093690D02*
X104592380Y-131093690D01*
X103544761Y-131331785D02*
X104259047Y-131569880D01*
X104259047Y-130950833D01*
X102052380Y-132379404D02*
X101052380Y-132379404D01*
X101052380Y-132141309D01*
X101100000Y-131998452D01*
X101195238Y-131903214D01*
X101290476Y-131855595D01*
X101480952Y-131807976D01*
X101623809Y-131807976D01*
X101814285Y-131855595D01*
X101909523Y-131903214D01*
X102004761Y-131998452D01*
X102052380Y-132141309D01*
X102052380Y-132379404D01*
X101052380Y-131188928D02*
X101052380Y-131093690D01*
X101100000Y-130998452D01*
X101147619Y-130950833D01*
X101242857Y-130903214D01*
X101433333Y-130855595D01*
X101671428Y-130855595D01*
X101861904Y-130903214D01*
X101957142Y-130950833D01*
X102004761Y-130998452D01*
X102052380Y-131093690D01*
X102052380Y-131188928D01*
X102004761Y-131284166D01*
X101957142Y-131331785D01*
X101861904Y-131379404D01*
X101671428Y-131427023D01*
X101433333Y-131427023D01*
X101242857Y-131379404D01*
X101147619Y-131331785D01*
X101100000Y-131284166D01*
X101052380Y-131188928D01*
X99512380Y-132379404D02*
X98512380Y-132379404D01*
X98512380Y-132141309D01*
X98560000Y-131998452D01*
X98655238Y-131903214D01*
X98750476Y-131855595D01*
X98940952Y-131807976D01*
X99083809Y-131807976D01*
X99274285Y-131855595D01*
X99369523Y-131903214D01*
X99464761Y-131998452D01*
X99512380Y-132141309D01*
X99512380Y-132379404D01*
X98607619Y-131427023D02*
X98560000Y-131379404D01*
X98512380Y-131284166D01*
X98512380Y-131046071D01*
X98560000Y-130950833D01*
X98607619Y-130903214D01*
X98702857Y-130855595D01*
X98798095Y-130855595D01*
X98940952Y-130903214D01*
X99512380Y-131474642D01*
X99512380Y-130855595D01*
X96972380Y-132379404D02*
X95972380Y-132379404D01*
X95972380Y-132141309D01*
X96020000Y-131998452D01*
X96115238Y-131903214D01*
X96210476Y-131855595D01*
X96400952Y-131807976D01*
X96543809Y-131807976D01*
X96734285Y-131855595D01*
X96829523Y-131903214D01*
X96924761Y-131998452D01*
X96972380Y-132141309D01*
X96972380Y-132379404D01*
X96305714Y-130950833D02*
X96972380Y-130950833D01*
X95924761Y-131188928D02*
X96639047Y-131427023D01*
X96639047Y-130807976D01*
X94432380Y-132379404D02*
X93432380Y-132379404D01*
X93432380Y-132141309D01*
X93480000Y-131998452D01*
X93575238Y-131903214D01*
X93670476Y-131855595D01*
X93860952Y-131807976D01*
X94003809Y-131807976D01*
X94194285Y-131855595D01*
X94289523Y-131903214D01*
X94384761Y-131998452D01*
X94432380Y-132141309D01*
X94432380Y-132379404D01*
X93432380Y-130950833D02*
X93432380Y-131141309D01*
X93480000Y-131236547D01*
X93527619Y-131284166D01*
X93670476Y-131379404D01*
X93860952Y-131427023D01*
X94241904Y-131427023D01*
X94337142Y-131379404D01*
X94384761Y-131331785D01*
X94432380Y-131236547D01*
X94432380Y-131046071D01*
X94384761Y-130950833D01*
X94337142Y-130903214D01*
X94241904Y-130855595D01*
X94003809Y-130855595D01*
X93908571Y-130903214D01*
X93860952Y-130950833D01*
X93813333Y-131046071D01*
X93813333Y-131236547D01*
X93860952Y-131331785D01*
X93908571Y-131379404D01*
X94003809Y-131427023D01*
X91797142Y-131807976D02*
X91844761Y-131855595D01*
X91892380Y-131998452D01*
X91892380Y-132093690D01*
X91844761Y-132236547D01*
X91749523Y-132331785D01*
X91654285Y-132379404D01*
X91463809Y-132427023D01*
X91320952Y-132427023D01*
X91130476Y-132379404D01*
X91035238Y-132331785D01*
X90940000Y-132236547D01*
X90892380Y-132093690D01*
X90892380Y-131998452D01*
X90940000Y-131855595D01*
X90987619Y-131807976D01*
X91892380Y-130903214D02*
X91892380Y-131379404D01*
X90892380Y-131379404D01*
X91892380Y-130569880D02*
X90892380Y-130569880D01*
X91892380Y-129998452D02*
X91320952Y-130427023D01*
X90892380Y-129998452D02*
X91463809Y-130569880D01*
X89304761Y-132427023D02*
X89352380Y-132284166D01*
X89352380Y-132046071D01*
X89304761Y-131950833D01*
X89257142Y-131903214D01*
X89161904Y-131855595D01*
X89066666Y-131855595D01*
X88971428Y-131903214D01*
X88923809Y-131950833D01*
X88876190Y-132046071D01*
X88828571Y-132236547D01*
X88780952Y-132331785D01*
X88733333Y-132379404D01*
X88638095Y-132427023D01*
X88542857Y-132427023D01*
X88447619Y-132379404D01*
X88400000Y-132331785D01*
X88352380Y-132236547D01*
X88352380Y-131998452D01*
X88400000Y-131855595D01*
X88352380Y-131522261D02*
X89352380Y-131284166D01*
X88638095Y-131093690D01*
X89352380Y-130903214D01*
X88352380Y-130665119D01*
X86764761Y-132427023D02*
X86812380Y-132284166D01*
X86812380Y-132046071D01*
X86764761Y-131950833D01*
X86717142Y-131903214D01*
X86621904Y-131855595D01*
X86526666Y-131855595D01*
X86431428Y-131903214D01*
X86383809Y-131950833D01*
X86336190Y-132046071D01*
X86288571Y-132236547D01*
X86240952Y-132331785D01*
X86193333Y-132379404D01*
X86098095Y-132427023D01*
X86002857Y-132427023D01*
X85907619Y-132379404D01*
X85860000Y-132331785D01*
X85812380Y-132236547D01*
X85812380Y-131998452D01*
X85860000Y-131855595D01*
X85812380Y-131522261D02*
X86812380Y-131284166D01*
X86098095Y-131093690D01*
X86812380Y-130903214D01*
X85812380Y-130665119D01*
X83891428Y-132379404D02*
X83891428Y-131617500D01*
X84272380Y-131998452D02*
X83510476Y-131998452D01*
X84272380Y-130617500D02*
X84272380Y-131188928D01*
X84272380Y-130903214D02*
X83272380Y-130903214D01*
X83415238Y-130998452D01*
X83510476Y-131093690D01*
X83558095Y-131188928D01*
X83367619Y-130236547D02*
X83320000Y-130188928D01*
X83272380Y-130093690D01*
X83272380Y-129855595D01*
X83320000Y-129760357D01*
X83367619Y-129712738D01*
X83462857Y-129665119D01*
X83558095Y-129665119D01*
X83700952Y-129712738D01*
X84272380Y-130284166D01*
X84272380Y-129665119D01*
X81351428Y-132379404D02*
X81351428Y-131617500D01*
X81732380Y-130617500D02*
X81732380Y-131188928D01*
X81732380Y-130903214D02*
X80732380Y-130903214D01*
X80875238Y-130998452D01*
X80970476Y-131093690D01*
X81018095Y-131188928D01*
X80827619Y-130236547D02*
X80780000Y-130188928D01*
X80732380Y-130093690D01*
X80732380Y-129855595D01*
X80780000Y-129760357D01*
X80827619Y-129712738D01*
X80922857Y-129665119D01*
X81018095Y-129665119D01*
X81160952Y-129712738D01*
X81732380Y-130284166D01*
X81732380Y-129665119D01*
X139890476Y-133770714D02*
X139890476Y-134437380D01*
X139652380Y-133389761D02*
X139414285Y-134104047D01*
X140033333Y-134104047D01*
X137350476Y-133437380D02*
X137160000Y-133437380D01*
X137064761Y-133485000D01*
X137017142Y-133532619D01*
X136921904Y-133675476D01*
X136874285Y-133865952D01*
X136874285Y-134246904D01*
X136921904Y-134342142D01*
X136969523Y-134389761D01*
X137064761Y-134437380D01*
X137255238Y-134437380D01*
X137350476Y-134389761D01*
X137398095Y-134342142D01*
X137445714Y-134246904D01*
X137445714Y-134008809D01*
X137398095Y-133913571D01*
X137350476Y-133865952D01*
X137255238Y-133818333D01*
X137064761Y-133818333D01*
X136969523Y-133865952D01*
X136921904Y-133913571D01*
X136874285Y-134008809D01*
X134524761Y-133865952D02*
X134429523Y-133818333D01*
X134381904Y-133770714D01*
X134334285Y-133675476D01*
X134334285Y-133627857D01*
X134381904Y-133532619D01*
X134429523Y-133485000D01*
X134524761Y-133437380D01*
X134715238Y-133437380D01*
X134810476Y-133485000D01*
X134858095Y-133532619D01*
X134905714Y-133627857D01*
X134905714Y-133675476D01*
X134858095Y-133770714D01*
X134810476Y-133818333D01*
X134715238Y-133865952D01*
X134524761Y-133865952D01*
X134429523Y-133913571D01*
X134381904Y-133961190D01*
X134334285Y-134056428D01*
X134334285Y-134246904D01*
X134381904Y-134342142D01*
X134429523Y-134389761D01*
X134524761Y-134437380D01*
X134715238Y-134437380D01*
X134810476Y-134389761D01*
X134858095Y-134342142D01*
X134905714Y-134246904D01*
X134905714Y-134056428D01*
X134858095Y-133961190D01*
X134810476Y-133913571D01*
X134715238Y-133865952D01*
X131889523Y-134437380D02*
X131318095Y-134437380D01*
X131603809Y-134437380D02*
X131603809Y-133437380D01*
X131508571Y-133580238D01*
X131413333Y-133675476D01*
X131318095Y-133723095D01*
X132508571Y-133437380D02*
X132603809Y-133437380D01*
X132699047Y-133485000D01*
X132746666Y-133532619D01*
X132794285Y-133627857D01*
X132841904Y-133818333D01*
X132841904Y-134056428D01*
X132794285Y-134246904D01*
X132746666Y-134342142D01*
X132699047Y-134389761D01*
X132603809Y-134437380D01*
X132508571Y-134437380D01*
X132413333Y-134389761D01*
X132365714Y-134342142D01*
X132318095Y-134246904D01*
X132270476Y-134056428D01*
X132270476Y-133818333D01*
X132318095Y-133627857D01*
X132365714Y-133532619D01*
X132413333Y-133485000D01*
X132508571Y-133437380D01*
X129349523Y-134437380D02*
X128778095Y-134437380D01*
X129063809Y-134437380D02*
X129063809Y-133437380D01*
X128968571Y-133580238D01*
X128873333Y-133675476D01*
X128778095Y-133723095D01*
X129730476Y-133532619D02*
X129778095Y-133485000D01*
X129873333Y-133437380D01*
X130111428Y-133437380D01*
X130206666Y-133485000D01*
X130254285Y-133532619D01*
X130301904Y-133627857D01*
X130301904Y-133723095D01*
X130254285Y-133865952D01*
X129682857Y-134437380D01*
X130301904Y-134437380D01*
X126809523Y-134437380D02*
X126238095Y-134437380D01*
X126523809Y-134437380D02*
X126523809Y-133437380D01*
X126428571Y-133580238D01*
X126333333Y-133675476D01*
X126238095Y-133723095D01*
X127666666Y-133770714D02*
X127666666Y-134437380D01*
X127428571Y-133389761D02*
X127190476Y-134104047D01*
X127809523Y-134104047D01*
X124269523Y-134437380D02*
X123698095Y-134437380D01*
X123983809Y-134437380D02*
X123983809Y-133437380D01*
X123888571Y-133580238D01*
X123793333Y-133675476D01*
X123698095Y-133723095D01*
X125126666Y-133437380D02*
X124936190Y-133437380D01*
X124840952Y-133485000D01*
X124793333Y-133532619D01*
X124698095Y-133675476D01*
X124650476Y-133865952D01*
X124650476Y-134246904D01*
X124698095Y-134342142D01*
X124745714Y-134389761D01*
X124840952Y-134437380D01*
X125031428Y-134437380D01*
X125126666Y-134389761D01*
X125174285Y-134342142D01*
X125221904Y-134246904D01*
X125221904Y-134008809D01*
X125174285Y-133913571D01*
X125126666Y-133865952D01*
X125031428Y-133818333D01*
X124840952Y-133818333D01*
X124745714Y-133865952D01*
X124698095Y-133913571D01*
X124650476Y-134008809D01*
X121729523Y-134437380D02*
X121158095Y-134437380D01*
X121443809Y-134437380D02*
X121443809Y-133437380D01*
X121348571Y-133580238D01*
X121253333Y-133675476D01*
X121158095Y-133723095D01*
X122300952Y-133865952D02*
X122205714Y-133818333D01*
X122158095Y-133770714D01*
X122110476Y-133675476D01*
X122110476Y-133627857D01*
X122158095Y-133532619D01*
X122205714Y-133485000D01*
X122300952Y-133437380D01*
X122491428Y-133437380D01*
X122586666Y-133485000D01*
X122634285Y-133532619D01*
X122681904Y-133627857D01*
X122681904Y-133675476D01*
X122634285Y-133770714D01*
X122586666Y-133818333D01*
X122491428Y-133865952D01*
X122300952Y-133865952D01*
X122205714Y-133913571D01*
X122158095Y-133961190D01*
X122110476Y-134056428D01*
X122110476Y-134246904D01*
X122158095Y-134342142D01*
X122205714Y-134389761D01*
X122300952Y-134437380D01*
X122491428Y-134437380D01*
X122586666Y-134389761D01*
X122634285Y-134342142D01*
X122681904Y-134246904D01*
X122681904Y-134056428D01*
X122634285Y-133961190D01*
X122586666Y-133913571D01*
X122491428Y-133865952D01*
X118618095Y-133532619D02*
X118665714Y-133485000D01*
X118760952Y-133437380D01*
X118999047Y-133437380D01*
X119094285Y-133485000D01*
X119141904Y-133532619D01*
X119189523Y-133627857D01*
X119189523Y-133723095D01*
X119141904Y-133865952D01*
X118570476Y-134437380D01*
X119189523Y-134437380D01*
X119808571Y-133437380D02*
X119903809Y-133437380D01*
X119999047Y-133485000D01*
X120046666Y-133532619D01*
X120094285Y-133627857D01*
X120141904Y-133818333D01*
X120141904Y-134056428D01*
X120094285Y-134246904D01*
X120046666Y-134342142D01*
X119999047Y-134389761D01*
X119903809Y-134437380D01*
X119808571Y-134437380D01*
X119713333Y-134389761D01*
X119665714Y-134342142D01*
X119618095Y-134246904D01*
X119570476Y-134056428D01*
X119570476Y-133818333D01*
X119618095Y-133627857D01*
X119665714Y-133532619D01*
X119713333Y-133485000D01*
X119808571Y-133437380D01*
X116078095Y-133532619D02*
X116125714Y-133485000D01*
X116220952Y-133437380D01*
X116459047Y-133437380D01*
X116554285Y-133485000D01*
X116601904Y-133532619D01*
X116649523Y-133627857D01*
X116649523Y-133723095D01*
X116601904Y-133865952D01*
X116030476Y-134437380D01*
X116649523Y-134437380D01*
X117030476Y-133532619D02*
X117078095Y-133485000D01*
X117173333Y-133437380D01*
X117411428Y-133437380D01*
X117506666Y-133485000D01*
X117554285Y-133532619D01*
X117601904Y-133627857D01*
X117601904Y-133723095D01*
X117554285Y-133865952D01*
X116982857Y-134437380D01*
X117601904Y-134437380D01*
X113538095Y-133532619D02*
X113585714Y-133485000D01*
X113680952Y-133437380D01*
X113919047Y-133437380D01*
X114014285Y-133485000D01*
X114061904Y-133532619D01*
X114109523Y-133627857D01*
X114109523Y-133723095D01*
X114061904Y-133865952D01*
X113490476Y-134437380D01*
X114109523Y-134437380D01*
X114966666Y-133770714D02*
X114966666Y-134437380D01*
X114728571Y-133389761D02*
X114490476Y-134104047D01*
X115109523Y-134104047D01*
X110998095Y-133532619D02*
X111045714Y-133485000D01*
X111140952Y-133437380D01*
X111379047Y-133437380D01*
X111474285Y-133485000D01*
X111521904Y-133532619D01*
X111569523Y-133627857D01*
X111569523Y-133723095D01*
X111521904Y-133865952D01*
X110950476Y-134437380D01*
X111569523Y-134437380D01*
X112426666Y-133437380D02*
X112236190Y-133437380D01*
X112140952Y-133485000D01*
X112093333Y-133532619D01*
X111998095Y-133675476D01*
X111950476Y-133865952D01*
X111950476Y-134246904D01*
X111998095Y-134342142D01*
X112045714Y-134389761D01*
X112140952Y-134437380D01*
X112331428Y-134437380D01*
X112426666Y-134389761D01*
X112474285Y-134342142D01*
X112521904Y-134246904D01*
X112521904Y-134008809D01*
X112474285Y-133913571D01*
X112426666Y-133865952D01*
X112331428Y-133818333D01*
X112140952Y-133818333D01*
X112045714Y-133865952D01*
X111998095Y-133913571D01*
X111950476Y-134008809D01*
X108458095Y-133532619D02*
X108505714Y-133485000D01*
X108600952Y-133437380D01*
X108839047Y-133437380D01*
X108934285Y-133485000D01*
X108981904Y-133532619D01*
X109029523Y-133627857D01*
X109029523Y-133723095D01*
X108981904Y-133865952D01*
X108410476Y-134437380D01*
X109029523Y-134437380D01*
X109600952Y-133865952D02*
X109505714Y-133818333D01*
X109458095Y-133770714D01*
X109410476Y-133675476D01*
X109410476Y-133627857D01*
X109458095Y-133532619D01*
X109505714Y-133485000D01*
X109600952Y-133437380D01*
X109791428Y-133437380D01*
X109886666Y-133485000D01*
X109934285Y-133532619D01*
X109981904Y-133627857D01*
X109981904Y-133675476D01*
X109934285Y-133770714D01*
X109886666Y-133818333D01*
X109791428Y-133865952D01*
X109600952Y-133865952D01*
X109505714Y-133913571D01*
X109458095Y-133961190D01*
X109410476Y-134056428D01*
X109410476Y-134246904D01*
X109458095Y-134342142D01*
X109505714Y-134389761D01*
X109600952Y-134437380D01*
X109791428Y-134437380D01*
X109886666Y-134389761D01*
X109934285Y-134342142D01*
X109981904Y-134246904D01*
X109981904Y-134056428D01*
X109934285Y-133961190D01*
X109886666Y-133913571D01*
X109791428Y-133865952D01*
X105870476Y-133437380D02*
X106489523Y-133437380D01*
X106156190Y-133818333D01*
X106299047Y-133818333D01*
X106394285Y-133865952D01*
X106441904Y-133913571D01*
X106489523Y-134008809D01*
X106489523Y-134246904D01*
X106441904Y-134342142D01*
X106394285Y-134389761D01*
X106299047Y-134437380D01*
X106013333Y-134437380D01*
X105918095Y-134389761D01*
X105870476Y-134342142D01*
X107108571Y-133437380D02*
X107203809Y-133437380D01*
X107299047Y-133485000D01*
X107346666Y-133532619D01*
X107394285Y-133627857D01*
X107441904Y-133818333D01*
X107441904Y-134056428D01*
X107394285Y-134246904D01*
X107346666Y-134342142D01*
X107299047Y-134389761D01*
X107203809Y-134437380D01*
X107108571Y-134437380D01*
X107013333Y-134389761D01*
X106965714Y-134342142D01*
X106918095Y-134246904D01*
X106870476Y-134056428D01*
X106870476Y-133818333D01*
X106918095Y-133627857D01*
X106965714Y-133532619D01*
X107013333Y-133485000D01*
X107108571Y-133437380D01*
X103330476Y-133437380D02*
X103949523Y-133437380D01*
X103616190Y-133818333D01*
X103759047Y-133818333D01*
X103854285Y-133865952D01*
X103901904Y-133913571D01*
X103949523Y-134008809D01*
X103949523Y-134246904D01*
X103901904Y-134342142D01*
X103854285Y-134389761D01*
X103759047Y-134437380D01*
X103473333Y-134437380D01*
X103378095Y-134389761D01*
X103330476Y-134342142D01*
X104330476Y-133532619D02*
X104378095Y-133485000D01*
X104473333Y-133437380D01*
X104711428Y-133437380D01*
X104806666Y-133485000D01*
X104854285Y-133532619D01*
X104901904Y-133627857D01*
X104901904Y-133723095D01*
X104854285Y-133865952D01*
X104282857Y-134437380D01*
X104901904Y-134437380D01*
X100790476Y-133437380D02*
X101409523Y-133437380D01*
X101076190Y-133818333D01*
X101219047Y-133818333D01*
X101314285Y-133865952D01*
X101361904Y-133913571D01*
X101409523Y-134008809D01*
X101409523Y-134246904D01*
X101361904Y-134342142D01*
X101314285Y-134389761D01*
X101219047Y-134437380D01*
X100933333Y-134437380D01*
X100838095Y-134389761D01*
X100790476Y-134342142D01*
X102266666Y-133770714D02*
X102266666Y-134437380D01*
X102028571Y-133389761D02*
X101790476Y-134104047D01*
X102409523Y-134104047D01*
X98250476Y-133437380D02*
X98869523Y-133437380D01*
X98536190Y-133818333D01*
X98679047Y-133818333D01*
X98774285Y-133865952D01*
X98821904Y-133913571D01*
X98869523Y-134008809D01*
X98869523Y-134246904D01*
X98821904Y-134342142D01*
X98774285Y-134389761D01*
X98679047Y-134437380D01*
X98393333Y-134437380D01*
X98298095Y-134389761D01*
X98250476Y-134342142D01*
X99726666Y-133437380D02*
X99536190Y-133437380D01*
X99440952Y-133485000D01*
X99393333Y-133532619D01*
X99298095Y-133675476D01*
X99250476Y-133865952D01*
X99250476Y-134246904D01*
X99298095Y-134342142D01*
X99345714Y-134389761D01*
X99440952Y-134437380D01*
X99631428Y-134437380D01*
X99726666Y-134389761D01*
X99774285Y-134342142D01*
X99821904Y-134246904D01*
X99821904Y-134008809D01*
X99774285Y-133913571D01*
X99726666Y-133865952D01*
X99631428Y-133818333D01*
X99440952Y-133818333D01*
X99345714Y-133865952D01*
X99298095Y-133913571D01*
X99250476Y-134008809D01*
X95710476Y-133437380D02*
X96329523Y-133437380D01*
X95996190Y-133818333D01*
X96139047Y-133818333D01*
X96234285Y-133865952D01*
X96281904Y-133913571D01*
X96329523Y-134008809D01*
X96329523Y-134246904D01*
X96281904Y-134342142D01*
X96234285Y-134389761D01*
X96139047Y-134437380D01*
X95853333Y-134437380D01*
X95758095Y-134389761D01*
X95710476Y-134342142D01*
X96900952Y-133865952D02*
X96805714Y-133818333D01*
X96758095Y-133770714D01*
X96710476Y-133675476D01*
X96710476Y-133627857D01*
X96758095Y-133532619D01*
X96805714Y-133485000D01*
X96900952Y-133437380D01*
X97091428Y-133437380D01*
X97186666Y-133485000D01*
X97234285Y-133532619D01*
X97281904Y-133627857D01*
X97281904Y-133675476D01*
X97234285Y-133770714D01*
X97186666Y-133818333D01*
X97091428Y-133865952D01*
X96900952Y-133865952D01*
X96805714Y-133913571D01*
X96758095Y-133961190D01*
X96710476Y-134056428D01*
X96710476Y-134246904D01*
X96758095Y-134342142D01*
X96805714Y-134389761D01*
X96900952Y-134437380D01*
X97091428Y-134437380D01*
X97186666Y-134389761D01*
X97234285Y-134342142D01*
X97281904Y-134246904D01*
X97281904Y-134056428D01*
X97234285Y-133961190D01*
X97186666Y-133913571D01*
X97091428Y-133865952D01*
X93694285Y-133770714D02*
X93694285Y-134437380D01*
X93456190Y-133389761D02*
X93218095Y-134104047D01*
X93837142Y-134104047D01*
X94408571Y-133437380D02*
X94503809Y-133437380D01*
X94599047Y-133485000D01*
X94646666Y-133532619D01*
X94694285Y-133627857D01*
X94741904Y-133818333D01*
X94741904Y-134056428D01*
X94694285Y-134246904D01*
X94646666Y-134342142D01*
X94599047Y-134389761D01*
X94503809Y-134437380D01*
X94408571Y-134437380D01*
X94313333Y-134389761D01*
X94265714Y-134342142D01*
X94218095Y-134246904D01*
X94170476Y-134056428D01*
X94170476Y-133818333D01*
X94218095Y-133627857D01*
X94265714Y-133532619D01*
X94313333Y-133485000D01*
X94408571Y-133437380D01*
X91154285Y-133770714D02*
X91154285Y-134437380D01*
X90916190Y-133389761D02*
X90678095Y-134104047D01*
X91297142Y-134104047D01*
X91630476Y-133532619D02*
X91678095Y-133485000D01*
X91773333Y-133437380D01*
X92011428Y-133437380D01*
X92106666Y-133485000D01*
X92154285Y-133532619D01*
X92201904Y-133627857D01*
X92201904Y-133723095D01*
X92154285Y-133865952D01*
X91582857Y-134437380D01*
X92201904Y-134437380D01*
X86074285Y-133770714D02*
X86074285Y-134437380D01*
X85836190Y-133389761D02*
X85598095Y-134104047D01*
X86217142Y-134104047D01*
X87026666Y-133437380D02*
X86836190Y-133437380D01*
X86740952Y-133485000D01*
X86693333Y-133532619D01*
X86598095Y-133675476D01*
X86550476Y-133865952D01*
X86550476Y-134246904D01*
X86598095Y-134342142D01*
X86645714Y-134389761D01*
X86740952Y-134437380D01*
X86931428Y-134437380D01*
X87026666Y-134389761D01*
X87074285Y-134342142D01*
X87121904Y-134246904D01*
X87121904Y-134008809D01*
X87074285Y-133913571D01*
X87026666Y-133865952D01*
X86931428Y-133818333D01*
X86740952Y-133818333D01*
X86645714Y-133865952D01*
X86598095Y-133913571D01*
X86550476Y-134008809D01*
X83534285Y-133770714D02*
X83534285Y-134437380D01*
X83296190Y-133389761D02*
X83058095Y-134104047D01*
X83677142Y-134104047D01*
X84200952Y-133865952D02*
X84105714Y-133818333D01*
X84058095Y-133770714D01*
X84010476Y-133675476D01*
X84010476Y-133627857D01*
X84058095Y-133532619D01*
X84105714Y-133485000D01*
X84200952Y-133437380D01*
X84391428Y-133437380D01*
X84486666Y-133485000D01*
X84534285Y-133532619D01*
X84581904Y-133627857D01*
X84581904Y-133675476D01*
X84534285Y-133770714D01*
X84486666Y-133818333D01*
X84391428Y-133865952D01*
X84200952Y-133865952D01*
X84105714Y-133913571D01*
X84058095Y-133961190D01*
X84010476Y-134056428D01*
X84010476Y-134246904D01*
X84058095Y-134342142D01*
X84105714Y-134389761D01*
X84200952Y-134437380D01*
X84391428Y-134437380D01*
X84486666Y-134389761D01*
X84534285Y-134342142D01*
X84581904Y-134246904D01*
X84581904Y-134056428D01*
X84534285Y-133961190D01*
X84486666Y-133913571D01*
X84391428Y-133865952D01*
X108116666Y-86707023D02*
X108116666Y-86230833D01*
X108402380Y-86802261D02*
X107402380Y-86468928D01*
X108402380Y-86135595D01*
X108402380Y-85278452D02*
X108402380Y-85849880D01*
X108402380Y-85564166D02*
X107402380Y-85564166D01*
X107545238Y-85659404D01*
X107640476Y-85754642D01*
X107688095Y-85849880D01*
X107402380Y-84659404D02*
X107402380Y-84564166D01*
X107450000Y-84468928D01*
X107497619Y-84421309D01*
X107592857Y-84373690D01*
X107783333Y-84326071D01*
X108021428Y-84326071D01*
X108211904Y-84373690D01*
X108307142Y-84421309D01*
X108354761Y-84468928D01*
X108402380Y-84564166D01*
X108402380Y-84659404D01*
X108354761Y-84754642D01*
X108307142Y-84802261D01*
X108211904Y-84849880D01*
X108021428Y-84897500D01*
X107783333Y-84897500D01*
X107592857Y-84849880D01*
X107497619Y-84802261D01*
X107450000Y-84754642D01*
X107402380Y-84659404D01*
X152852380Y-86659404D02*
X151852380Y-86659404D01*
X151852380Y-86421309D01*
X151900000Y-86278452D01*
X151995238Y-86183214D01*
X152090476Y-86135595D01*
X152280952Y-86087976D01*
X152423809Y-86087976D01*
X152614285Y-86135595D01*
X152709523Y-86183214D01*
X152804761Y-86278452D01*
X152852380Y-86421309D01*
X152852380Y-86659404D01*
X151852380Y-85230833D02*
X151852380Y-85421309D01*
X151900000Y-85516547D01*
X151947619Y-85564166D01*
X152090476Y-85659404D01*
X152280952Y-85707023D01*
X152661904Y-85707023D01*
X152757142Y-85659404D01*
X152804761Y-85611785D01*
X152852380Y-85516547D01*
X152852380Y-85326071D01*
X152804761Y-85230833D01*
X152757142Y-85183214D01*
X152661904Y-85135595D01*
X152423809Y-85135595D01*
X152328571Y-85183214D01*
X152280952Y-85230833D01*
X152233333Y-85326071D01*
X152233333Y-85516547D01*
X152280952Y-85611785D01*
X152328571Y-85659404D01*
X152423809Y-85707023D01*
X154110000Y-76737500D02*
X154110000Y-75737500D01*
X155392380Y-75927976D02*
X154916190Y-76261309D01*
X155392380Y-76499404D02*
X154392380Y-76499404D01*
X154392380Y-76118452D01*
X154440000Y-76023214D01*
X154487619Y-75975595D01*
X154582857Y-75927976D01*
X154725714Y-75927976D01*
X154820952Y-75975595D01*
X154868571Y-76023214D01*
X154916190Y-76118452D01*
X154916190Y-76499404D01*
X154110000Y-75737500D02*
X154110000Y-74880357D01*
X154868571Y-75166071D02*
X154868571Y-75499404D01*
X155392380Y-75499404D02*
X154392380Y-75499404D01*
X154392380Y-75023214D01*
X154110000Y-74880357D02*
X154110000Y-73927976D01*
X155344761Y-74689880D02*
X155392380Y-74547023D01*
X155392380Y-74308928D01*
X155344761Y-74213690D01*
X155297142Y-74166071D01*
X155201904Y-74118452D01*
X155106666Y-74118452D01*
X155011428Y-74166071D01*
X154963809Y-74213690D01*
X154916190Y-74308928D01*
X154868571Y-74499404D01*
X154820952Y-74594642D01*
X154773333Y-74642261D01*
X154678095Y-74689880D01*
X154582857Y-74689880D01*
X154487619Y-74642261D01*
X154440000Y-74594642D01*
X154392380Y-74499404D01*
X154392380Y-74261309D01*
X154440000Y-74118452D01*
X154110000Y-73927976D02*
X154110000Y-72880357D01*
X155392380Y-73689880D02*
X154392380Y-73689880D01*
X154868571Y-73689880D02*
X154868571Y-73118452D01*
X155392380Y-73118452D02*
X154392380Y-73118452D01*
X137612380Y-86659404D02*
X136612380Y-86659404D01*
X136612380Y-86421309D01*
X136660000Y-86278452D01*
X136755238Y-86183214D01*
X136850476Y-86135595D01*
X137040952Y-86087976D01*
X137183809Y-86087976D01*
X137374285Y-86135595D01*
X137469523Y-86183214D01*
X137564761Y-86278452D01*
X137612380Y-86421309D01*
X137612380Y-86659404D01*
X136612380Y-85468928D02*
X136612380Y-85373690D01*
X136660000Y-85278452D01*
X136707619Y-85230833D01*
X136802857Y-85183214D01*
X136993333Y-85135595D01*
X137231428Y-85135595D01*
X137421904Y-85183214D01*
X137517142Y-85230833D01*
X137564761Y-85278452D01*
X137612380Y-85373690D01*
X137612380Y-85468928D01*
X137564761Y-85564166D01*
X137517142Y-85611785D01*
X137421904Y-85659404D01*
X137231428Y-85707023D01*
X136993333Y-85707023D01*
X136802857Y-85659404D01*
X136707619Y-85611785D01*
X136660000Y-85564166D01*
X136612380Y-85468928D01*
X140152380Y-86659404D02*
X139152380Y-86659404D01*
X139152380Y-86421309D01*
X139200000Y-86278452D01*
X139295238Y-86183214D01*
X139390476Y-86135595D01*
X139580952Y-86087976D01*
X139723809Y-86087976D01*
X139914285Y-86135595D01*
X140009523Y-86183214D01*
X140104761Y-86278452D01*
X140152380Y-86421309D01*
X140152380Y-86659404D01*
X140152380Y-85135595D02*
X140152380Y-85707023D01*
X140152380Y-85421309D02*
X139152380Y-85421309D01*
X139295238Y-85516547D01*
X139390476Y-85611785D01*
X139438095Y-85707023D01*
X120816666Y-86707023D02*
X120816666Y-86230833D01*
X121102380Y-86802261D02*
X120102380Y-86468928D01*
X121102380Y-86135595D01*
X121102380Y-85278452D02*
X121102380Y-85849880D01*
X121102380Y-85564166D02*
X120102380Y-85564166D01*
X120245238Y-85659404D01*
X120340476Y-85754642D01*
X120388095Y-85849880D01*
X120102380Y-84373690D02*
X120102380Y-84849880D01*
X120578571Y-84897500D01*
X120530952Y-84849880D01*
X120483333Y-84754642D01*
X120483333Y-84516547D01*
X120530952Y-84421309D01*
X120578571Y-84373690D01*
X120673809Y-84326071D01*
X120911904Y-84326071D01*
X121007142Y-84373690D01*
X121054761Y-84421309D01*
X121102380Y-84516547D01*
X121102380Y-84754642D01*
X121054761Y-84849880D01*
X121007142Y-84897500D01*
X155392380Y-61056785D02*
X154392380Y-61056785D01*
X154392380Y-60818690D01*
X154440000Y-60675833D01*
X154535238Y-60580595D01*
X154630476Y-60532976D01*
X154820952Y-60485357D01*
X154963809Y-60485357D01*
X155154285Y-60532976D01*
X155249523Y-60580595D01*
X155344761Y-60675833D01*
X155392380Y-60818690D01*
X155392380Y-61056785D01*
X155106666Y-60104404D02*
X155106666Y-59628214D01*
X155392380Y-60199642D02*
X154392380Y-59866309D01*
X155392380Y-59532976D01*
X154392380Y-59342500D02*
X154392380Y-58771071D01*
X155392380Y-59056785D02*
X154392380Y-59056785D01*
X155106666Y-58485357D02*
X155106666Y-58009166D01*
X155392380Y-58580595D02*
X154392380Y-58247261D01*
X155392380Y-57913928D01*
X155392380Y-57580595D02*
X154392380Y-57580595D01*
X154392380Y-57342500D01*
X154440000Y-57199642D01*
X154535238Y-57104404D01*
X154630476Y-57056785D01*
X154820952Y-57009166D01*
X154963809Y-57009166D01*
X155154285Y-57056785D01*
X155249523Y-57104404D01*
X155344761Y-57199642D01*
X155392380Y-57342500D01*
X155392380Y-57580595D01*
X155392380Y-56580595D02*
X154392380Y-56580595D01*
X155392380Y-55532976D02*
X154916190Y-55866309D01*
X155392380Y-56104404D02*
X154392380Y-56104404D01*
X154392380Y-55723452D01*
X154440000Y-55628214D01*
X154487619Y-55580595D01*
X154582857Y-55532976D01*
X154725714Y-55532976D01*
X154820952Y-55580595D01*
X154868571Y-55628214D01*
X154916190Y-55723452D01*
X154916190Y-56104404D01*
X143950000Y-57437738D02*
X143950000Y-56294880D01*
X145232380Y-57199642D02*
X144232380Y-57199642D01*
X144946666Y-56866309D01*
X144232380Y-56532976D01*
X145232380Y-56532976D01*
X143950000Y-56294880D02*
X143950000Y-55342500D01*
X145232380Y-55532976D02*
X145232380Y-56104404D01*
X145232380Y-55818690D02*
X144232380Y-55818690D01*
X144375238Y-55913928D01*
X144470476Y-56009166D01*
X144518095Y-56104404D01*
X147772380Y-86659404D02*
X146772380Y-86659404D01*
X146772380Y-86421309D01*
X146820000Y-86278452D01*
X146915238Y-86183214D01*
X147010476Y-86135595D01*
X147200952Y-86087976D01*
X147343809Y-86087976D01*
X147534285Y-86135595D01*
X147629523Y-86183214D01*
X147724761Y-86278452D01*
X147772380Y-86421309D01*
X147772380Y-86659404D01*
X147105714Y-85230833D02*
X147772380Y-85230833D01*
X146724761Y-85468928D02*
X147439047Y-85707023D01*
X147439047Y-85087976D01*
X72556666Y-86707023D02*
X72556666Y-86230833D01*
X72842380Y-86802261D02*
X71842380Y-86468928D01*
X72842380Y-86135595D01*
X72842380Y-85278452D02*
X72842380Y-85849880D01*
X72842380Y-85564166D02*
X71842380Y-85564166D01*
X71985238Y-85659404D01*
X72080476Y-85754642D01*
X72128095Y-85849880D01*
X151570000Y-76737500D02*
X151570000Y-75785119D01*
X152804761Y-76547023D02*
X152852380Y-76404166D01*
X152852380Y-76166071D01*
X152804761Y-76070833D01*
X152757142Y-76023214D01*
X152661904Y-75975595D01*
X152566666Y-75975595D01*
X152471428Y-76023214D01*
X152423809Y-76070833D01*
X152376190Y-76166071D01*
X152328571Y-76356547D01*
X152280952Y-76451785D01*
X152233333Y-76499404D01*
X152138095Y-76547023D01*
X152042857Y-76547023D01*
X151947619Y-76499404D01*
X151900000Y-76451785D01*
X151852380Y-76356547D01*
X151852380Y-76118452D01*
X151900000Y-75975595D01*
X151570000Y-75785119D02*
X151570000Y-74975595D01*
X152852380Y-75070833D02*
X152852380Y-75547023D01*
X151852380Y-75547023D01*
X151570000Y-74975595D02*
X151570000Y-74213690D01*
X151852380Y-74880357D02*
X151852380Y-74308928D01*
X152852380Y-74594642D02*
X151852380Y-74594642D01*
X151570000Y-74213690D02*
X151570000Y-73261309D01*
X152804761Y-74023214D02*
X152852380Y-73880357D01*
X152852380Y-73642261D01*
X152804761Y-73547023D01*
X152757142Y-73499404D01*
X152661904Y-73451785D01*
X152566666Y-73451785D01*
X152471428Y-73499404D01*
X152423809Y-73547023D01*
X152376190Y-73642261D01*
X152328571Y-73832738D01*
X152280952Y-73927976D01*
X152233333Y-73975595D01*
X152138095Y-74023214D01*
X152042857Y-74023214D01*
X151947619Y-73975595D01*
X151900000Y-73927976D01*
X151852380Y-73832738D01*
X151852380Y-73594642D01*
X151900000Y-73451785D01*
X151570000Y-73261309D02*
X151570000Y-72451785D01*
X152852380Y-72547023D02*
X152852380Y-73023214D01*
X151852380Y-73023214D01*
X103036666Y-86707023D02*
X103036666Y-86230833D01*
X103322380Y-86802261D02*
X102322380Y-86468928D01*
X103322380Y-86135595D01*
X102750952Y-85659404D02*
X102703333Y-85754642D01*
X102655714Y-85802261D01*
X102560476Y-85849880D01*
X102512857Y-85849880D01*
X102417619Y-85802261D01*
X102370000Y-85754642D01*
X102322380Y-85659404D01*
X102322380Y-85468928D01*
X102370000Y-85373690D01*
X102417619Y-85326071D01*
X102512857Y-85278452D01*
X102560476Y-85278452D01*
X102655714Y-85326071D01*
X102703333Y-85373690D01*
X102750952Y-85468928D01*
X102750952Y-85659404D01*
X102798571Y-85754642D01*
X102846190Y-85802261D01*
X102941428Y-85849880D01*
X103131904Y-85849880D01*
X103227142Y-85802261D01*
X103274761Y-85754642D01*
X103322380Y-85659404D01*
X103322380Y-85468928D01*
X103274761Y-85373690D01*
X103227142Y-85326071D01*
X103131904Y-85278452D01*
X102941428Y-85278452D01*
X102846190Y-85326071D01*
X102798571Y-85373690D01*
X102750952Y-85468928D01*
X136330000Y-76737500D02*
X136330000Y-75594642D01*
X137612380Y-76499404D02*
X136612380Y-76499404D01*
X137326666Y-76166071D01*
X136612380Y-75832738D01*
X137612380Y-75832738D01*
X136330000Y-75594642D02*
X136330000Y-74689880D01*
X137088571Y-75356547D02*
X137088571Y-75023214D01*
X137612380Y-74880357D02*
X137612380Y-75356547D01*
X136612380Y-75356547D01*
X136612380Y-74880357D01*
X136330000Y-74689880D02*
X136330000Y-73689880D01*
X137612380Y-73880357D02*
X137136190Y-74213690D01*
X137612380Y-74451785D02*
X136612380Y-74451785D01*
X136612380Y-74070833D01*
X136660000Y-73975595D01*
X136707619Y-73927976D01*
X136802857Y-73880357D01*
X136945714Y-73880357D01*
X137040952Y-73927976D01*
X137088571Y-73975595D01*
X137136190Y-74070833D01*
X137136190Y-74451785D01*
X136330000Y-73689880D02*
X136330000Y-72642261D01*
X137707619Y-72785119D02*
X137660000Y-72880357D01*
X137564761Y-72975595D01*
X137421904Y-73118452D01*
X137374285Y-73213690D01*
X137374285Y-73308928D01*
X137612380Y-73261309D02*
X137564761Y-73356547D01*
X137469523Y-73451785D01*
X137279047Y-73499404D01*
X136945714Y-73499404D01*
X136755238Y-73451785D01*
X136660000Y-73356547D01*
X136612380Y-73261309D01*
X136612380Y-73070833D01*
X136660000Y-72975595D01*
X136755238Y-72880357D01*
X136945714Y-72832738D01*
X137279047Y-72832738D01*
X137469523Y-72880357D01*
X137564761Y-72975595D01*
X137612380Y-73070833D01*
X137612380Y-73261309D01*
X150217142Y-75927976D02*
X150264761Y-75975595D01*
X150312380Y-76118452D01*
X150312380Y-76213690D01*
X150264761Y-76356547D01*
X150169523Y-76451785D01*
X150074285Y-76499404D01*
X149883809Y-76547023D01*
X149740952Y-76547023D01*
X149550476Y-76499404D01*
X149455238Y-76451785D01*
X149360000Y-76356547D01*
X149312380Y-76213690D01*
X149312380Y-76118452D01*
X149360000Y-75975595D01*
X149407619Y-75927976D01*
X150312380Y-75023214D02*
X150312380Y-75499404D01*
X149312380Y-75499404D01*
X149312380Y-74499404D02*
X149312380Y-74308928D01*
X149360000Y-74213690D01*
X149455238Y-74118452D01*
X149645714Y-74070833D01*
X149979047Y-74070833D01*
X150169523Y-74118452D01*
X150264761Y-74213690D01*
X150312380Y-74308928D01*
X150312380Y-74499404D01*
X150264761Y-74594642D01*
X150169523Y-74689880D01*
X149979047Y-74737500D01*
X149645714Y-74737500D01*
X149455238Y-74689880D01*
X149360000Y-74594642D01*
X149312380Y-74499404D01*
X150217142Y-73070833D02*
X150264761Y-73118452D01*
X150312380Y-73261309D01*
X150312380Y-73356547D01*
X150264761Y-73499404D01*
X150169523Y-73594642D01*
X150074285Y-73642261D01*
X149883809Y-73689880D01*
X149740952Y-73689880D01*
X149550476Y-73642261D01*
X149455238Y-73594642D01*
X149360000Y-73499404D01*
X149312380Y-73356547D01*
X149312380Y-73261309D01*
X149360000Y-73118452D01*
X149407619Y-73070833D01*
X150312380Y-72642261D02*
X149312380Y-72642261D01*
X150312380Y-72070833D02*
X149740952Y-72499404D01*
X149312380Y-72070833D02*
X149883809Y-72642261D01*
X143950000Y-76737500D02*
X143950000Y-75594642D01*
X144232380Y-76594642D02*
X145232380Y-76356547D01*
X144518095Y-76166071D01*
X145232380Y-75975595D01*
X144232380Y-75737500D01*
X143950000Y-75594642D02*
X143950000Y-74594642D01*
X145232380Y-74785119D02*
X144756190Y-75118452D01*
X145232380Y-75356547D02*
X144232380Y-75356547D01*
X144232380Y-74975595D01*
X144280000Y-74880357D01*
X144327619Y-74832738D01*
X144422857Y-74785119D01*
X144565714Y-74785119D01*
X144660952Y-74832738D01*
X144708571Y-74880357D01*
X144756190Y-74975595D01*
X144756190Y-75356547D01*
X136330000Y-58247261D02*
X136330000Y-57247261D01*
X137517142Y-57437738D02*
X137564761Y-57485357D01*
X137612380Y-57628214D01*
X137612380Y-57723452D01*
X137564761Y-57866309D01*
X137469523Y-57961547D01*
X137374285Y-58009166D01*
X137183809Y-58056785D01*
X137040952Y-58056785D01*
X136850476Y-58009166D01*
X136755238Y-57961547D01*
X136660000Y-57866309D01*
X136612380Y-57723452D01*
X136612380Y-57628214D01*
X136660000Y-57485357D01*
X136707619Y-57437738D01*
X136330000Y-57247261D02*
X136330000Y-56294880D01*
X137564761Y-57056785D02*
X137612380Y-56913928D01*
X137612380Y-56675833D01*
X137564761Y-56580595D01*
X137517142Y-56532976D01*
X137421904Y-56485357D01*
X137326666Y-56485357D01*
X137231428Y-56532976D01*
X137183809Y-56580595D01*
X137136190Y-56675833D01*
X137088571Y-56866309D01*
X137040952Y-56961547D01*
X136993333Y-57009166D01*
X136898095Y-57056785D01*
X136802857Y-57056785D01*
X136707619Y-57009166D01*
X136660000Y-56961547D01*
X136612380Y-56866309D01*
X136612380Y-56628214D01*
X136660000Y-56485357D01*
X136330000Y-56294880D02*
X136330000Y-55342500D01*
X137612380Y-55532976D02*
X137612380Y-56104404D01*
X137612380Y-55818690D02*
X136612380Y-55818690D01*
X136755238Y-55913928D01*
X136850476Y-56009166D01*
X136898095Y-56104404D01*
X150312380Y-86659404D02*
X149312380Y-86659404D01*
X149312380Y-86421309D01*
X149360000Y-86278452D01*
X149455238Y-86183214D01*
X149550476Y-86135595D01*
X149740952Y-86087976D01*
X149883809Y-86087976D01*
X150074285Y-86135595D01*
X150169523Y-86183214D01*
X150264761Y-86278452D01*
X150312380Y-86421309D01*
X150312380Y-86659404D01*
X149312380Y-85183214D02*
X149312380Y-85659404D01*
X149788571Y-85707023D01*
X149740952Y-85659404D01*
X149693333Y-85564166D01*
X149693333Y-85326071D01*
X149740952Y-85230833D01*
X149788571Y-85183214D01*
X149883809Y-85135595D01*
X150121904Y-85135595D01*
X150217142Y-85183214D01*
X150264761Y-85230833D01*
X150312380Y-85326071D01*
X150312380Y-85564166D01*
X150264761Y-85659404D01*
X150217142Y-85707023D01*
X113196666Y-86707023D02*
X113196666Y-86230833D01*
X113482380Y-86802261D02*
X112482380Y-86468928D01*
X113482380Y-86135595D01*
X113482380Y-85278452D02*
X113482380Y-85849880D01*
X113482380Y-85564166D02*
X112482380Y-85564166D01*
X112625238Y-85659404D01*
X112720476Y-85754642D01*
X112768095Y-85849880D01*
X112577619Y-84897500D02*
X112530000Y-84849880D01*
X112482380Y-84754642D01*
X112482380Y-84516547D01*
X112530000Y-84421309D01*
X112577619Y-84373690D01*
X112672857Y-84326071D01*
X112768095Y-84326071D01*
X112910952Y-84373690D01*
X113482380Y-84945119D01*
X113482380Y-84326071D01*
X151570000Y-58580595D02*
X151570000Y-57437738D01*
X151852380Y-58437738D02*
X152852380Y-58199642D01*
X152138095Y-58009166D01*
X152852380Y-57818690D01*
X151852380Y-57580595D01*
X151570000Y-57437738D02*
X151570000Y-56580595D01*
X152566666Y-57247261D02*
X152566666Y-56771071D01*
X152852380Y-57342500D02*
X151852380Y-57009166D01*
X152852380Y-56675833D01*
X151570000Y-56580595D02*
X151570000Y-56104404D01*
X152852380Y-56342500D02*
X151852380Y-56342500D01*
X151570000Y-56104404D02*
X151570000Y-55342500D01*
X151852380Y-56009166D02*
X151852380Y-55437738D01*
X152852380Y-55723452D02*
X151852380Y-55723452D01*
X146490000Y-60818690D02*
X146490000Y-59818690D01*
X147248571Y-60247261D02*
X147296190Y-60104404D01*
X147343809Y-60056785D01*
X147439047Y-60009166D01*
X147581904Y-60009166D01*
X147677142Y-60056785D01*
X147724761Y-60104404D01*
X147772380Y-60199642D01*
X147772380Y-60580595D01*
X146772380Y-60580595D01*
X146772380Y-60247261D01*
X146820000Y-60152023D01*
X146867619Y-60104404D01*
X146962857Y-60056785D01*
X147058095Y-60056785D01*
X147153333Y-60104404D01*
X147200952Y-60152023D01*
X147248571Y-60247261D01*
X147248571Y-60580595D01*
X146490000Y-59818690D02*
X146490000Y-58771071D01*
X146772380Y-59580595D02*
X147581904Y-59580595D01*
X147677142Y-59532976D01*
X147724761Y-59485357D01*
X147772380Y-59390119D01*
X147772380Y-59199642D01*
X147724761Y-59104404D01*
X147677142Y-59056785D01*
X147581904Y-59009166D01*
X146772380Y-59009166D01*
X146490000Y-58771071D02*
X146490000Y-57818690D01*
X147724761Y-58580595D02*
X147772380Y-58437738D01*
X147772380Y-58199642D01*
X147724761Y-58104404D01*
X147677142Y-58056785D01*
X147581904Y-58009166D01*
X147486666Y-58009166D01*
X147391428Y-58056785D01*
X147343809Y-58104404D01*
X147296190Y-58199642D01*
X147248571Y-58390119D01*
X147200952Y-58485357D01*
X147153333Y-58532976D01*
X147058095Y-58580595D01*
X146962857Y-58580595D01*
X146867619Y-58532976D01*
X146820000Y-58485357D01*
X146772380Y-58390119D01*
X146772380Y-58152023D01*
X146820000Y-58009166D01*
X146490000Y-57818690D02*
X146490000Y-56818690D01*
X147772380Y-57580595D02*
X146772380Y-57580595D01*
X146772380Y-57342500D01*
X146820000Y-57199642D01*
X146915238Y-57104404D01*
X147010476Y-57056785D01*
X147200952Y-57009166D01*
X147343809Y-57009166D01*
X147534285Y-57056785D01*
X147629523Y-57104404D01*
X147724761Y-57199642D01*
X147772380Y-57342500D01*
X147772380Y-57580595D01*
X146490000Y-56818690D02*
X146490000Y-56342500D01*
X147772380Y-56580595D02*
X146772380Y-56580595D01*
X146490000Y-56342500D02*
X146490000Y-55342500D01*
X147772380Y-55532976D02*
X147296190Y-55866309D01*
X147772380Y-56104404D02*
X146772380Y-56104404D01*
X146772380Y-55723452D01*
X146820000Y-55628214D01*
X146867619Y-55580595D01*
X146962857Y-55532976D01*
X147105714Y-55532976D01*
X147200952Y-55580595D01*
X147248571Y-55628214D01*
X147296190Y-55723452D01*
X147296190Y-56104404D01*
X81041904Y-133437380D02*
X80565714Y-133437380D01*
X80518095Y-133913571D01*
X80565714Y-133865952D01*
X80660952Y-133818333D01*
X80899047Y-133818333D01*
X80994285Y-133865952D01*
X81041904Y-133913571D01*
X81089523Y-134008809D01*
X81089523Y-134246904D01*
X81041904Y-134342142D01*
X80994285Y-134389761D01*
X80899047Y-134437380D01*
X80660952Y-134437380D01*
X80565714Y-134389761D01*
X80518095Y-134342142D01*
X81708571Y-133437380D02*
X81803809Y-133437380D01*
X81899047Y-133485000D01*
X81946666Y-133532619D01*
X81994285Y-133627857D01*
X82041904Y-133818333D01*
X82041904Y-134056428D01*
X81994285Y-134246904D01*
X81946666Y-134342142D01*
X81899047Y-134389761D01*
X81803809Y-134437380D01*
X81708571Y-134437380D01*
X81613333Y-134389761D01*
X81565714Y-134342142D01*
X81518095Y-134246904D01*
X81470476Y-134056428D01*
X81470476Y-133818333D01*
X81518095Y-133627857D01*
X81565714Y-133532619D01*
X81613333Y-133485000D01*
X81708571Y-133437380D01*
X115736666Y-86707023D02*
X115736666Y-86230833D01*
X116022380Y-86802261D02*
X115022380Y-86468928D01*
X116022380Y-86135595D01*
X116022380Y-85278452D02*
X116022380Y-85849880D01*
X116022380Y-85564166D02*
X115022380Y-85564166D01*
X115165238Y-85659404D01*
X115260476Y-85754642D01*
X115308095Y-85849880D01*
X115022380Y-84945119D02*
X115022380Y-84326071D01*
X115403333Y-84659404D01*
X115403333Y-84516547D01*
X115450952Y-84421309D01*
X115498571Y-84373690D01*
X115593809Y-84326071D01*
X115831904Y-84326071D01*
X115927142Y-84373690D01*
X115974761Y-84421309D01*
X116022380Y-84516547D01*
X116022380Y-84802261D01*
X115974761Y-84897500D01*
X115927142Y-84945119D01*
X77636666Y-86707023D02*
X77636666Y-86230833D01*
X77922380Y-86802261D02*
X76922380Y-86468928D01*
X77922380Y-86135595D01*
X76922380Y-85897500D02*
X76922380Y-85278452D01*
X77303333Y-85611785D01*
X77303333Y-85468928D01*
X77350952Y-85373690D01*
X77398571Y-85326071D01*
X77493809Y-85278452D01*
X77731904Y-85278452D01*
X77827142Y-85326071D01*
X77874761Y-85373690D01*
X77922380Y-85468928D01*
X77922380Y-85754642D01*
X77874761Y-85849880D01*
X77827142Y-85897500D01*
X145232380Y-86659404D02*
X144232380Y-86659404D01*
X144232380Y-86421309D01*
X144280000Y-86278452D01*
X144375238Y-86183214D01*
X144470476Y-86135595D01*
X144660952Y-86087976D01*
X144803809Y-86087976D01*
X144994285Y-86135595D01*
X145089523Y-86183214D01*
X145184761Y-86278452D01*
X145232380Y-86421309D01*
X145232380Y-86659404D01*
X144232380Y-85754642D02*
X144232380Y-85135595D01*
X144613333Y-85468928D01*
X144613333Y-85326071D01*
X144660952Y-85230833D01*
X144708571Y-85183214D01*
X144803809Y-85135595D01*
X145041904Y-85135595D01*
X145137142Y-85183214D01*
X145184761Y-85230833D01*
X145232380Y-85326071D01*
X145232380Y-85611785D01*
X145184761Y-85707023D01*
X145137142Y-85754642D01*
X141954285Y-133532619D02*
X142001904Y-133485000D01*
X142097142Y-133437380D01*
X142335238Y-133437380D01*
X142430476Y-133485000D01*
X142478095Y-133532619D01*
X142525714Y-133627857D01*
X142525714Y-133723095D01*
X142478095Y-133865952D01*
X141906666Y-134437380D01*
X142525714Y-134437380D01*
X70016666Y-86707023D02*
X70016666Y-86230833D01*
X70302380Y-86802261D02*
X69302380Y-86468928D01*
X70302380Y-86135595D01*
X69302380Y-85611785D02*
X69302380Y-85516547D01*
X69350000Y-85421309D01*
X69397619Y-85373690D01*
X69492857Y-85326071D01*
X69683333Y-85278452D01*
X69921428Y-85278452D01*
X70111904Y-85326071D01*
X70207142Y-85373690D01*
X70254761Y-85421309D01*
X70302380Y-85516547D01*
X70302380Y-85611785D01*
X70254761Y-85707023D01*
X70207142Y-85754642D01*
X70111904Y-85802261D01*
X69921428Y-85849880D01*
X69683333Y-85849880D01*
X69492857Y-85802261D01*
X69397619Y-85754642D01*
X69350000Y-85707023D01*
X69302380Y-85611785D01*
X80176666Y-86707023D02*
X80176666Y-86230833D01*
X80462380Y-86802261D02*
X79462380Y-86468928D01*
X80462380Y-86135595D01*
X79795714Y-85373690D02*
X80462380Y-85373690D01*
X79414761Y-85611785D02*
X80129047Y-85849880D01*
X80129047Y-85230833D01*
X142692380Y-86659404D02*
X141692380Y-86659404D01*
X141692380Y-86421309D01*
X141740000Y-86278452D01*
X141835238Y-86183214D01*
X141930476Y-86135595D01*
X142120952Y-86087976D01*
X142263809Y-86087976D01*
X142454285Y-86135595D01*
X142549523Y-86183214D01*
X142644761Y-86278452D01*
X142692380Y-86421309D01*
X142692380Y-86659404D01*
X141787619Y-85707023D02*
X141740000Y-85659404D01*
X141692380Y-85564166D01*
X141692380Y-85326071D01*
X141740000Y-85230833D01*
X141787619Y-85183214D01*
X141882857Y-85135595D01*
X141978095Y-85135595D01*
X142120952Y-85183214D01*
X142692380Y-85754642D01*
X142692380Y-85135595D01*
X75096666Y-86707023D02*
X75096666Y-86230833D01*
X75382380Y-86802261D02*
X74382380Y-86468928D01*
X75382380Y-86135595D01*
X74477619Y-85849880D02*
X74430000Y-85802261D01*
X74382380Y-85707023D01*
X74382380Y-85468928D01*
X74430000Y-85373690D01*
X74477619Y-85326071D01*
X74572857Y-85278452D01*
X74668095Y-85278452D01*
X74810952Y-85326071D01*
X75382380Y-85897500D01*
X75382380Y-85278452D01*
X141410000Y-59199642D02*
X141410000Y-58199642D01*
X142597142Y-58390119D02*
X142644761Y-58437738D01*
X142692380Y-58580595D01*
X142692380Y-58675833D01*
X142644761Y-58818690D01*
X142549523Y-58913928D01*
X142454285Y-58961547D01*
X142263809Y-59009166D01*
X142120952Y-59009166D01*
X141930476Y-58961547D01*
X141835238Y-58913928D01*
X141740000Y-58818690D01*
X141692380Y-58675833D01*
X141692380Y-58580595D01*
X141740000Y-58437738D01*
X141787619Y-58390119D01*
X141410000Y-58199642D02*
X141410000Y-57247261D01*
X142644761Y-58009166D02*
X142692380Y-57866309D01*
X142692380Y-57628214D01*
X142644761Y-57532976D01*
X142597142Y-57485357D01*
X142501904Y-57437738D01*
X142406666Y-57437738D01*
X142311428Y-57485357D01*
X142263809Y-57532976D01*
X142216190Y-57628214D01*
X142168571Y-57818690D01*
X142120952Y-57913928D01*
X142073333Y-57961547D01*
X141978095Y-58009166D01*
X141882857Y-58009166D01*
X141787619Y-57961547D01*
X141740000Y-57913928D01*
X141692380Y-57818690D01*
X141692380Y-57580595D01*
X141740000Y-57437738D01*
X141410000Y-57247261D02*
X141410000Y-56294880D01*
X142692380Y-56485357D02*
X142692380Y-57056785D01*
X142692380Y-56771071D02*
X141692380Y-56771071D01*
X141835238Y-56866309D01*
X141930476Y-56961547D01*
X141978095Y-57056785D01*
X141410000Y-56294880D02*
X141410000Y-55342500D01*
X141787619Y-56104404D02*
X141740000Y-56056785D01*
X141692380Y-55961547D01*
X141692380Y-55723452D01*
X141740000Y-55628214D01*
X141787619Y-55580595D01*
X141882857Y-55532976D01*
X141978095Y-55532976D01*
X142120952Y-55580595D01*
X142692380Y-56152023D01*
X142692380Y-55532976D01*
X155392380Y-86659404D02*
X154392380Y-86659404D01*
X154392380Y-86421309D01*
X154440000Y-86278452D01*
X154535238Y-86183214D01*
X154630476Y-86135595D01*
X154820952Y-86087976D01*
X154963809Y-86087976D01*
X155154285Y-86135595D01*
X155249523Y-86183214D01*
X155344761Y-86278452D01*
X155392380Y-86421309D01*
X155392380Y-86659404D01*
X154392380Y-85754642D02*
X154392380Y-85087976D01*
X155392380Y-85516547D01*
X146490000Y-76737500D02*
X146490000Y-75737500D01*
X147772380Y-75927976D02*
X147296190Y-76261309D01*
X147772380Y-76499404D02*
X146772380Y-76499404D01*
X146772380Y-76118452D01*
X146820000Y-76023214D01*
X146867619Y-75975595D01*
X146962857Y-75927976D01*
X147105714Y-75927976D01*
X147200952Y-75975595D01*
X147248571Y-76023214D01*
X147296190Y-76118452D01*
X147296190Y-76499404D01*
X146490000Y-75737500D02*
X146490000Y-74832738D01*
X147248571Y-75499404D02*
X147248571Y-75166071D01*
X147772380Y-75023214D02*
X147772380Y-75499404D01*
X146772380Y-75499404D01*
X146772380Y-75023214D01*
X146490000Y-74832738D02*
X146490000Y-73880357D01*
X147724761Y-74642261D02*
X147772380Y-74499404D01*
X147772380Y-74261309D01*
X147724761Y-74166071D01*
X147677142Y-74118452D01*
X147581904Y-74070833D01*
X147486666Y-74070833D01*
X147391428Y-74118452D01*
X147343809Y-74166071D01*
X147296190Y-74261309D01*
X147248571Y-74451785D01*
X147200952Y-74547023D01*
X147153333Y-74594642D01*
X147058095Y-74642261D01*
X146962857Y-74642261D01*
X146867619Y-74594642D01*
X146820000Y-74547023D01*
X146772380Y-74451785D01*
X146772380Y-74213690D01*
X146820000Y-74070833D01*
X146490000Y-73880357D02*
X146490000Y-72975595D01*
X147248571Y-73642261D02*
X147248571Y-73308928D01*
X147772380Y-73166071D02*
X147772380Y-73642261D01*
X146772380Y-73642261D01*
X146772380Y-73166071D01*
X146490000Y-72975595D02*
X146490000Y-72213690D01*
X146772380Y-72880357D02*
X146772380Y-72308928D01*
X147772380Y-72594642D02*
X146772380Y-72594642D01*
X149030000Y-57628214D02*
X149030000Y-57152023D01*
X150312380Y-57390119D02*
X149312380Y-57390119D01*
X149030000Y-57152023D02*
X149030000Y-56104404D01*
X150312380Y-56913928D02*
X149312380Y-56913928D01*
X150312380Y-56342500D01*
X149312380Y-56342500D01*
X149030000Y-56104404D02*
X149030000Y-55342500D01*
X149312380Y-56009166D02*
X149312380Y-55437738D01*
X150312380Y-55723452D02*
X149312380Y-55723452D01*
X118276666Y-86707023D02*
X118276666Y-86230833D01*
X118562380Y-86802261D02*
X117562380Y-86468928D01*
X118562380Y-86135595D01*
X118562380Y-85278452D02*
X118562380Y-85849880D01*
X118562380Y-85564166D02*
X117562380Y-85564166D01*
X117705238Y-85659404D01*
X117800476Y-85754642D01*
X117848095Y-85849880D01*
X117895714Y-84421309D02*
X118562380Y-84421309D01*
X117514761Y-84659404D02*
X118229047Y-84897500D01*
X118229047Y-84278452D01*
X138870000Y-58247261D02*
X138870000Y-57247261D01*
X140057142Y-57437738D02*
X140104761Y-57485357D01*
X140152380Y-57628214D01*
X140152380Y-57723452D01*
X140104761Y-57866309D01*
X140009523Y-57961547D01*
X139914285Y-58009166D01*
X139723809Y-58056785D01*
X139580952Y-58056785D01*
X139390476Y-58009166D01*
X139295238Y-57961547D01*
X139200000Y-57866309D01*
X139152380Y-57723452D01*
X139152380Y-57628214D01*
X139200000Y-57485357D01*
X139247619Y-57437738D01*
X138870000Y-57247261D02*
X138870000Y-56294880D01*
X140104761Y-57056785D02*
X140152380Y-56913928D01*
X140152380Y-56675833D01*
X140104761Y-56580595D01*
X140057142Y-56532976D01*
X139961904Y-56485357D01*
X139866666Y-56485357D01*
X139771428Y-56532976D01*
X139723809Y-56580595D01*
X139676190Y-56675833D01*
X139628571Y-56866309D01*
X139580952Y-56961547D01*
X139533333Y-57009166D01*
X139438095Y-57056785D01*
X139342857Y-57056785D01*
X139247619Y-57009166D01*
X139200000Y-56961547D01*
X139152380Y-56866309D01*
X139152380Y-56628214D01*
X139200000Y-56485357D01*
X138870000Y-56294880D02*
X138870000Y-55342500D01*
X139247619Y-56104404D02*
X139200000Y-56056785D01*
X139152380Y-55961547D01*
X139152380Y-55723452D01*
X139200000Y-55628214D01*
X139247619Y-55580595D01*
X139342857Y-55532976D01*
X139438095Y-55532976D01*
X139580952Y-55580595D01*
X140152380Y-56152023D01*
X140152380Y-55532976D01*
X87796666Y-86707023D02*
X87796666Y-86230833D01*
X88082380Y-86802261D02*
X87082380Y-86468928D01*
X88082380Y-86135595D01*
X87082380Y-85897500D02*
X87082380Y-85230833D01*
X88082380Y-85659404D01*
X141410000Y-76737500D02*
X141410000Y-75737500D01*
X142692380Y-75927976D02*
X142216190Y-76261309D01*
X142692380Y-76499404D02*
X141692380Y-76499404D01*
X141692380Y-76118452D01*
X141740000Y-76023214D01*
X141787619Y-75975595D01*
X141882857Y-75927976D01*
X142025714Y-75927976D01*
X142120952Y-75975595D01*
X142168571Y-76023214D01*
X142216190Y-76118452D01*
X142216190Y-76499404D01*
X141410000Y-75737500D02*
X141410000Y-74737500D01*
X142692380Y-75499404D02*
X141692380Y-75499404D01*
X141692380Y-75261309D01*
X141740000Y-75118452D01*
X141835238Y-75023214D01*
X141930476Y-74975595D01*
X142120952Y-74927976D01*
X142263809Y-74927976D01*
X142454285Y-74975595D01*
X142549523Y-75023214D01*
X142644761Y-75118452D01*
X142692380Y-75261309D01*
X142692380Y-75499404D01*
X85256666Y-86707023D02*
X85256666Y-86230833D01*
X85542380Y-86802261D02*
X84542380Y-86468928D01*
X85542380Y-86135595D01*
X84542380Y-85373690D02*
X84542380Y-85564166D01*
X84590000Y-85659404D01*
X84637619Y-85707023D01*
X84780476Y-85802261D01*
X84970952Y-85849880D01*
X85351904Y-85849880D01*
X85447142Y-85802261D01*
X85494761Y-85754642D01*
X85542380Y-85659404D01*
X85542380Y-85468928D01*
X85494761Y-85373690D01*
X85447142Y-85326071D01*
X85351904Y-85278452D01*
X85113809Y-85278452D01*
X85018571Y-85326071D01*
X84970952Y-85373690D01*
X84923333Y-85468928D01*
X84923333Y-85659404D01*
X84970952Y-85754642D01*
X85018571Y-85802261D01*
X85113809Y-85849880D01*
X138870000Y-76737500D02*
X138870000Y-76261309D01*
X140152380Y-76499404D02*
X139152380Y-76499404D01*
X138870000Y-76261309D02*
X138870000Y-75213690D01*
X139152380Y-75832738D02*
X139152380Y-75642261D01*
X139200000Y-75547023D01*
X139295238Y-75451785D01*
X139485714Y-75404166D01*
X139819047Y-75404166D01*
X140009523Y-75451785D01*
X140104761Y-75547023D01*
X140152380Y-75642261D01*
X140152380Y-75832738D01*
X140104761Y-75927976D01*
X140009523Y-76023214D01*
X139819047Y-76070833D01*
X139485714Y-76070833D01*
X139295238Y-76023214D01*
X139200000Y-75927976D01*
X139152380Y-75832738D01*
X138870000Y-75213690D02*
X138870000Y-74213690D01*
X140152380Y-74404166D02*
X139676190Y-74737500D01*
X140152380Y-74975595D02*
X139152380Y-74975595D01*
X139152380Y-74594642D01*
X139200000Y-74499404D01*
X139247619Y-74451785D01*
X139342857Y-74404166D01*
X139485714Y-74404166D01*
X139580952Y-74451785D01*
X139628571Y-74499404D01*
X139676190Y-74594642D01*
X139676190Y-74975595D01*
X138870000Y-74213690D02*
X138870000Y-73166071D01*
X140247619Y-73308928D02*
X140200000Y-73404166D01*
X140104761Y-73499404D01*
X139961904Y-73642261D01*
X139914285Y-73737500D01*
X139914285Y-73832738D01*
X140152380Y-73785119D02*
X140104761Y-73880357D01*
X140009523Y-73975595D01*
X139819047Y-74023214D01*
X139485714Y-74023214D01*
X139295238Y-73975595D01*
X139200000Y-73880357D01*
X139152380Y-73785119D01*
X139152380Y-73594642D01*
X139200000Y-73499404D01*
X139295238Y-73404166D01*
X139485714Y-73356547D01*
X139819047Y-73356547D01*
X140009523Y-73404166D01*
X140104761Y-73499404D01*
X140152380Y-73594642D01*
X140152380Y-73785119D01*
X82716666Y-86707023D02*
X82716666Y-86230833D01*
X83002380Y-86802261D02*
X82002380Y-86468928D01*
X83002380Y-86135595D01*
X82002380Y-85326071D02*
X82002380Y-85802261D01*
X82478571Y-85849880D01*
X82430952Y-85802261D01*
X82383333Y-85707023D01*
X82383333Y-85468928D01*
X82430952Y-85373690D01*
X82478571Y-85326071D01*
X82573809Y-85278452D01*
X82811904Y-85278452D01*
X82907142Y-85326071D01*
X82954761Y-85373690D01*
X83002380Y-85468928D01*
X83002380Y-85707023D01*
X82954761Y-85802261D01*
X82907142Y-85849880D01*
X105576666Y-86707023D02*
X105576666Y-86230833D01*
X105862380Y-86802261D02*
X104862380Y-86468928D01*
X105862380Y-86135595D01*
X105862380Y-85754642D02*
X105862380Y-85564166D01*
X105814761Y-85468928D01*
X105767142Y-85421309D01*
X105624285Y-85326071D01*
X105433809Y-85278452D01*
X105052857Y-85278452D01*
X104957619Y-85326071D01*
X104910000Y-85373690D01*
X104862380Y-85468928D01*
X104862380Y-85659404D01*
X104910000Y-85754642D01*
X104957619Y-85802261D01*
X105052857Y-85849880D01*
X105290952Y-85849880D01*
X105386190Y-85802261D01*
X105433809Y-85754642D01*
X105481428Y-85659404D01*
X105481428Y-85468928D01*
X105433809Y-85373690D01*
X105386190Y-85326071D01*
X105290952Y-85278452D01*
X110656666Y-86707023D02*
X110656666Y-86230833D01*
X110942380Y-86802261D02*
X109942380Y-86468928D01*
X110942380Y-86135595D01*
X110942380Y-85278452D02*
X110942380Y-85849880D01*
X110942380Y-85564166D02*
X109942380Y-85564166D01*
X110085238Y-85659404D01*
X110180476Y-85754642D01*
X110228095Y-85849880D01*
X110942380Y-84326071D02*
X110942380Y-84897500D01*
X110942380Y-84611785D02*
X109942380Y-84611785D01*
X110085238Y-84707023D01*
X110180476Y-84802261D01*
X110228095Y-84897500D01*
X127952380Y-81638333D02*
X128666666Y-81638333D01*
X128809523Y-81685952D01*
X128904761Y-81781190D01*
X128952380Y-81924047D01*
X128952380Y-82019285D01*
X127952380Y-81257380D02*
X127952380Y-80590714D01*
X128952380Y-81019285D01*
D11*
X73594770Y-71617114D02*
X73548808Y-71663076D01*
X73410922Y-71709038D01*
X73318998Y-71709038D01*
X73181113Y-71663076D01*
X73089189Y-71571152D01*
X73043227Y-71479228D01*
X72997265Y-71295380D01*
X72997265Y-71157495D01*
X73043227Y-70973647D01*
X73089189Y-70881723D01*
X73181113Y-70789800D01*
X73318998Y-70743838D01*
X73410922Y-70743838D01*
X73548808Y-70789800D01*
X73594770Y-70835761D01*
X74422084Y-70743838D02*
X74238237Y-70743838D01*
X74146313Y-70789800D01*
X74100351Y-70835761D01*
X74008427Y-70973647D01*
X73962465Y-71157495D01*
X73962465Y-71525190D01*
X74008427Y-71617114D01*
X74054389Y-71663076D01*
X74146313Y-71709038D01*
X74330160Y-71709038D01*
X74422084Y-71663076D01*
X74468046Y-71617114D01*
X74514008Y-71525190D01*
X74514008Y-71295380D01*
X74468046Y-71203457D01*
X74422084Y-71157495D01*
X74330160Y-71111533D01*
X74146313Y-71111533D01*
X74054389Y-71157495D01*
X74008427Y-71203457D01*
X73962465Y-71295380D01*
X145984770Y-94477114D02*
X145938808Y-94523076D01*
X145800922Y-94569038D01*
X145708998Y-94569038D01*
X145571113Y-94523076D01*
X145479189Y-94431152D01*
X145433227Y-94339228D01*
X145387265Y-94155380D01*
X145387265Y-94017495D01*
X145433227Y-93833647D01*
X145479189Y-93741723D01*
X145571113Y-93649800D01*
X145708998Y-93603838D01*
X145800922Y-93603838D01*
X145938808Y-93649800D01*
X145984770Y-93695761D01*
X146306503Y-93603838D02*
X146904008Y-93603838D01*
X146582275Y-93971533D01*
X146720160Y-93971533D01*
X146812084Y-94017495D01*
X146858046Y-94063457D01*
X146904008Y-94155380D01*
X146904008Y-94385190D01*
X146858046Y-94477114D01*
X146812084Y-94523076D01*
X146720160Y-94569038D01*
X146444389Y-94569038D01*
X146352465Y-94523076D01*
X146306503Y-94477114D01*
X74860176Y-94350114D02*
X74814214Y-94396076D01*
X74676328Y-94442038D01*
X74584404Y-94442038D01*
X74446519Y-94396076D01*
X74354595Y-94304152D01*
X74308633Y-94212228D01*
X74262671Y-94028380D01*
X74262671Y-93890495D01*
X74308633Y-93706647D01*
X74354595Y-93614723D01*
X74446519Y-93522800D01*
X74584404Y-93476838D01*
X74676328Y-93476838D01*
X74814214Y-93522800D01*
X74860176Y-93568761D01*
X75779414Y-94442038D02*
X75227871Y-94442038D01*
X75503642Y-94442038D02*
X75503642Y-93476838D01*
X75411719Y-93614723D01*
X75319795Y-93706647D01*
X75227871Y-93752609D01*
D10*
X74168095Y-96182380D02*
X74168095Y-96991904D01*
X74215714Y-97087142D01*
X74263333Y-97134761D01*
X74358571Y-97182380D01*
X74549047Y-97182380D01*
X74644285Y-97134761D01*
X74691904Y-97087142D01*
X74739523Y-96991904D01*
X74739523Y-96182380D01*
X75739523Y-97182380D02*
X75168095Y-97182380D01*
X75453809Y-97182380D02*
X75453809Y-96182380D01*
X75358571Y-96325238D01*
X75263333Y-96420476D01*
X75168095Y-96468095D01*
X122642380Y-64261904D02*
X123451904Y-64261904D01*
X123547142Y-64214285D01*
X123594761Y-64166666D01*
X123642380Y-64071428D01*
X123642380Y-63880952D01*
X123594761Y-63785714D01*
X123547142Y-63738095D01*
X123451904Y-63690476D01*
X122642380Y-63690476D01*
X122642380Y-62785714D02*
X122642380Y-62976190D01*
X122690000Y-63071428D01*
X122737619Y-63119047D01*
X122880476Y-63214285D01*
X123070952Y-63261904D01*
X123451904Y-63261904D01*
X123547142Y-63214285D01*
X123594761Y-63166666D01*
X123642380Y-63071428D01*
X123642380Y-62880952D01*
X123594761Y-62785714D01*
X123547142Y-62738095D01*
X123451904Y-62690476D01*
X123213809Y-62690476D01*
X123118571Y-62738095D01*
X123070952Y-62785714D01*
X123023333Y-62880952D01*
X123023333Y-63071428D01*
X123070952Y-63166666D01*
X123118571Y-63214285D01*
X123213809Y-63261904D01*
X127952380Y-51133333D02*
X128666666Y-51133333D01*
X128809523Y-51180952D01*
X128904761Y-51276190D01*
X128952380Y-51419047D01*
X128952380Y-51514285D01*
X127952380Y-50228571D02*
X127952380Y-50419047D01*
X128000000Y-50514285D01*
X128047619Y-50561904D01*
X128190476Y-50657142D01*
X128380952Y-50704761D01*
X128761904Y-50704761D01*
X128857142Y-50657142D01*
X128904761Y-50609523D01*
X128952380Y-50514285D01*
X128952380Y-50323809D01*
X128904761Y-50228571D01*
X128857142Y-50180952D01*
X128761904Y-50133333D01*
X128523809Y-50133333D01*
X128428571Y-50180952D01*
X128380952Y-50228571D01*
X128333333Y-50323809D01*
X128333333Y-50514285D01*
X128380952Y-50609523D01*
X128428571Y-50657142D01*
X128523809Y-50704761D01*
X133842380Y-79073333D02*
X134556666Y-79073333D01*
X134699523Y-79120952D01*
X134794761Y-79216190D01*
X134842380Y-79359047D01*
X134842380Y-79454285D01*
X134175714Y-78168571D02*
X134842380Y-78168571D01*
X133794761Y-78406666D02*
X134509047Y-78644761D01*
X134509047Y-78025714D01*
X127508095Y-96182380D02*
X127508095Y-96991904D01*
X127555714Y-97087142D01*
X127603333Y-97134761D01*
X127698571Y-97182380D01*
X127889047Y-97182380D01*
X127984285Y-97134761D01*
X128031904Y-97087142D01*
X128079523Y-96991904D01*
X128079523Y-96182380D01*
X128984285Y-96515714D02*
X128984285Y-97182380D01*
X128746190Y-96134761D02*
X128508095Y-96849047D01*
X129127142Y-96849047D01*
D11*
X110233496Y-94350114D02*
X110187534Y-94396076D01*
X110049648Y-94442038D01*
X109957724Y-94442038D01*
X109819839Y-94396076D01*
X109727915Y-94304152D01*
X109681953Y-94212228D01*
X109635991Y-94028380D01*
X109635991Y-93890495D01*
X109681953Y-93706647D01*
X109727915Y-93614723D01*
X109819839Y-93522800D01*
X109957724Y-93476838D01*
X110049648Y-93476838D01*
X110187534Y-93522800D01*
X110233496Y-93568761D01*
X110601191Y-93568761D02*
X110647153Y-93522800D01*
X110739077Y-93476838D01*
X110968886Y-93476838D01*
X111060810Y-93522800D01*
X111106772Y-93568761D01*
X111152734Y-93660685D01*
X111152734Y-93752609D01*
X111106772Y-93890495D01*
X110555229Y-94442038D01*
X111152734Y-94442038D01*
X92533496Y-94477114D02*
X92487534Y-94523076D01*
X92349648Y-94569038D01*
X92257724Y-94569038D01*
X92119839Y-94523076D01*
X92027915Y-94431152D01*
X91981953Y-94339228D01*
X91935991Y-94155380D01*
X91935991Y-94017495D01*
X91981953Y-93833647D01*
X92027915Y-93741723D01*
X92119839Y-93649800D01*
X92257724Y-93603838D01*
X92349648Y-93603838D01*
X92487534Y-93649800D01*
X92533496Y-93695761D01*
X93406772Y-93603838D02*
X92947153Y-93603838D01*
X92901191Y-94063457D01*
X92947153Y-94017495D01*
X93039077Y-93971533D01*
X93268886Y-93971533D01*
X93360810Y-94017495D01*
X93406772Y-94063457D01*
X93452734Y-94155380D01*
X93452734Y-94385190D01*
X93406772Y-94477114D01*
X93360810Y-94523076D01*
X93268886Y-94569038D01*
X93039077Y-94569038D01*
X92947153Y-94523076D01*
X92901191Y-94477114D01*
D10*
X139982380Y-104306666D02*
X139506190Y-104640000D01*
X139982380Y-104878095D02*
X138982380Y-104878095D01*
X138982380Y-104497142D01*
X139030000Y-104401904D01*
X139077619Y-104354285D01*
X139172857Y-104306666D01*
X139315714Y-104306666D01*
X139410952Y-104354285D01*
X139458571Y-104401904D01*
X139506190Y-104497142D01*
X139506190Y-104878095D01*
X139982380Y-103354285D02*
X139982380Y-103925714D01*
X139982380Y-103640000D02*
X138982380Y-103640000D01*
X139125238Y-103735238D01*
X139220476Y-103830476D01*
X139268095Y-103925714D01*
D11*
X128013496Y-94477114D02*
X127967534Y-94523076D01*
X127829648Y-94569038D01*
X127737724Y-94569038D01*
X127599839Y-94523076D01*
X127507915Y-94431152D01*
X127461953Y-94339228D01*
X127415991Y-94155380D01*
X127415991Y-94017495D01*
X127461953Y-93833647D01*
X127507915Y-93741723D01*
X127599839Y-93649800D01*
X127737724Y-93603838D01*
X127829648Y-93603838D01*
X127967534Y-93649800D01*
X128013496Y-93695761D01*
X128840810Y-93925571D02*
X128840810Y-94569038D01*
X128611001Y-93557876D02*
X128381191Y-94247304D01*
X128978696Y-94247304D01*
D10*
X66532380Y-89233333D02*
X67246666Y-89233333D01*
X67389523Y-89280952D01*
X67484761Y-89376190D01*
X67532380Y-89519047D01*
X67532380Y-89614285D01*
X67532380Y-88233333D02*
X67532380Y-88804761D01*
X67532380Y-88519047D02*
X66532380Y-88519047D01*
X66675238Y-88614285D01*
X66770476Y-88709523D01*
X66818095Y-88804761D01*
X133842380Y-53673333D02*
X134556666Y-53673333D01*
X134699523Y-53720952D01*
X134794761Y-53816190D01*
X134842380Y-53959047D01*
X134842380Y-54054285D01*
X133842380Y-52720952D02*
X133842380Y-53197142D01*
X134318571Y-53244761D01*
X134270952Y-53197142D01*
X134223333Y-53101904D01*
X134223333Y-52863809D01*
X134270952Y-52768571D01*
X134318571Y-52720952D01*
X134413809Y-52673333D01*
X134651904Y-52673333D01*
X134747142Y-52720952D01*
X134794761Y-52768571D01*
X134842380Y-52863809D01*
X134842380Y-53101904D01*
X134794761Y-53197142D01*
X134747142Y-53244761D01*
X91948095Y-96182380D02*
X91948095Y-96991904D01*
X91995714Y-97087142D01*
X92043333Y-97134761D01*
X92138571Y-97182380D01*
X92329047Y-97182380D01*
X92424285Y-97134761D01*
X92471904Y-97087142D01*
X92519523Y-96991904D01*
X92519523Y-96182380D01*
X93471904Y-96182380D02*
X92995714Y-96182380D01*
X92948095Y-96658571D01*
X92995714Y-96610952D01*
X93090952Y-96563333D01*
X93329047Y-96563333D01*
X93424285Y-96610952D01*
X93471904Y-96658571D01*
X93519523Y-96753809D01*
X93519523Y-96991904D01*
X93471904Y-97087142D01*
X93424285Y-97134761D01*
X93329047Y-97182380D01*
X93090952Y-97182380D01*
X92995714Y-97134761D01*
X92948095Y-97087142D01*
X145288095Y-95972380D02*
X145288095Y-96781904D01*
X145335714Y-96877142D01*
X145383333Y-96924761D01*
X145478571Y-96972380D01*
X145669047Y-96972380D01*
X145764285Y-96924761D01*
X145811904Y-96877142D01*
X145859523Y-96781904D01*
X145859523Y-95972380D01*
X146240476Y-95972380D02*
X146859523Y-95972380D01*
X146526190Y-96353333D01*
X146669047Y-96353333D01*
X146764285Y-96400952D01*
X146811904Y-96448571D01*
X146859523Y-96543809D01*
X146859523Y-96781904D01*
X146811904Y-96877142D01*
X146764285Y-96924761D01*
X146669047Y-96972380D01*
X146383333Y-96972380D01*
X146288095Y-96924761D01*
X146240476Y-96877142D01*
X109728095Y-95972380D02*
X109728095Y-96781904D01*
X109775714Y-96877142D01*
X109823333Y-96924761D01*
X109918571Y-96972380D01*
X110109047Y-96972380D01*
X110204285Y-96924761D01*
X110251904Y-96877142D01*
X110299523Y-96781904D01*
X110299523Y-95972380D01*
X110728095Y-96067619D02*
X110775714Y-96020000D01*
X110870952Y-95972380D01*
X111109047Y-95972380D01*
X111204285Y-96020000D01*
X111251904Y-96067619D01*
X111299523Y-96162857D01*
X111299523Y-96258095D01*
X111251904Y-96400952D01*
X110680476Y-96972380D01*
X111299523Y-96972380D01*
X99552380Y-89233333D02*
X100266666Y-89233333D01*
X100409523Y-89280952D01*
X100504761Y-89376190D01*
X100552380Y-89519047D01*
X100552380Y-89614285D01*
X99647619Y-88804761D02*
X99600000Y-88757142D01*
X99552380Y-88661904D01*
X99552380Y-88423809D01*
X99600000Y-88328571D01*
X99647619Y-88280952D01*
X99742857Y-88233333D01*
X99838095Y-88233333D01*
X99980952Y-88280952D01*
X100552380Y-88852380D01*
X100552380Y-88233333D01*
X133842380Y-89233333D02*
X134556666Y-89233333D01*
X134699523Y-89280952D01*
X134794761Y-89376190D01*
X134842380Y-89519047D01*
X134842380Y-89614285D01*
X133842380Y-88852380D02*
X133842380Y-88233333D01*
X134223333Y-88566666D01*
X134223333Y-88423809D01*
X134270952Y-88328571D01*
X134318571Y-88280952D01*
X134413809Y-88233333D01*
X134651904Y-88233333D01*
X134747142Y-88280952D01*
X134794761Y-88328571D01*
X134842380Y-88423809D01*
X134842380Y-88709523D01*
X134794761Y-88804761D01*
X134747142Y-88852380D01*
D12*
X124460000Y-79975000D02*
X65980000Y-79975000D01*
X127060000Y-81305000D02*
X127060000Y-82635000D01*
X127060000Y-82635000D02*
X125730000Y-82635000D01*
X65980000Y-79975000D02*
X65980000Y-82635000D01*
X124460000Y-82635000D02*
X65980000Y-82635000D01*
X124460000Y-79975000D02*
X124460000Y-82635000D01*
X75970000Y-70050000D02*
X71430000Y-70050000D01*
X75970000Y-72190000D02*
X71430000Y-72190000D01*
X71430000Y-72190000D02*
X71430000Y-72175000D01*
X75970000Y-72190000D02*
X75970000Y-72175000D01*
X71430000Y-70065000D02*
X71430000Y-70050000D01*
X75970000Y-70065000D02*
X75970000Y-70050000D01*
X148360000Y-95050000D02*
X143820000Y-95050000D01*
X143820000Y-95050000D02*
X143820000Y-95035000D01*
X148360000Y-92910000D02*
X143820000Y-92910000D01*
X148360000Y-92925000D02*
X148360000Y-92910000D01*
X148360000Y-95050000D02*
X148360000Y-95035000D01*
X143820000Y-92925000D02*
X143820000Y-92910000D01*
X72700000Y-95050000D02*
X77240000Y-95050000D01*
X77240000Y-92910000D02*
X77240000Y-92925000D01*
X72700000Y-92910000D02*
X77240000Y-92910000D01*
X77240000Y-95035000D02*
X77240000Y-95050000D01*
X72700000Y-95035000D02*
X72700000Y-95050000D01*
X72700000Y-92910000D02*
X72700000Y-92925000D01*
X73930000Y-97730000D02*
X72280000Y-97730000D01*
X77580000Y-123250000D02*
X77580000Y-97730000D01*
X77580000Y-97730000D02*
X75930000Y-97730000D01*
X72280000Y-123250000D02*
X77580000Y-123250000D01*
X72280000Y-97730000D02*
X72280000Y-123250000D01*
X73930000Y-97730000D02*
G75*
G03*
X75930000Y-97730000I1000000J0D01*
G01*
X127120000Y-53170000D02*
X59690000Y-53170000D01*
D13*
X65980000Y-53340000D02*
X65980000Y-78740000D01*
D12*
X128270000Y-69850000D02*
X127127000Y-69850000D01*
X127060000Y-56170000D02*
X65980000Y-56170000D01*
X59690000Y-57150000D02*
X57150000Y-57150000D01*
X128270000Y-63500000D02*
X128270000Y-69850000D01*
X127060000Y-75910000D02*
X127060000Y-70850000D01*
X127060000Y-63500000D02*
X128270000Y-63500000D01*
X59690000Y-53170000D02*
X59690000Y-78910000D01*
X127060000Y-71120000D02*
X127060000Y-56170000D01*
X57150000Y-57150000D02*
X57150000Y-74930000D01*
X59690000Y-78910000D02*
X127120000Y-78910000D01*
X57150000Y-74930000D02*
X59690000Y-74930000D01*
X65980000Y-75910000D02*
X127060000Y-75910000D01*
X127120000Y-78910000D02*
X127120000Y-53170000D01*
X127060000Y-50800000D02*
X127060000Y-52130000D01*
X124460000Y-49470000D02*
X65980000Y-49470000D01*
X124460000Y-49470000D02*
X124460000Y-52130000D01*
X124460000Y-52130000D02*
X65980000Y-52130000D01*
X127060000Y-52130000D02*
X125730000Y-52130000D01*
X65980000Y-49470000D02*
X65980000Y-52130000D01*
X138430000Y-80070000D02*
X156270000Y-80070000D01*
X135830000Y-78740000D02*
X135830000Y-77410000D01*
X135830000Y-77410000D02*
X137160000Y-77410000D01*
X138430000Y-80070000D02*
X138430000Y-77410000D01*
X156270000Y-80070000D02*
X156270000Y-77410000D01*
X138430000Y-77410000D02*
X156270000Y-77410000D01*
X127270000Y-97730000D02*
G75*
G03*
X129270000Y-97730000I1000000J0D01*
G01*
X130920000Y-123250000D02*
X130920000Y-97730000D01*
X130920000Y-97730000D02*
X129270000Y-97730000D01*
X127270000Y-97730000D02*
X125620000Y-97730000D01*
X125620000Y-97730000D02*
X125620000Y-123250000D01*
X125620000Y-123250000D02*
X130920000Y-123250000D01*
X108180000Y-95050000D02*
X112720000Y-95050000D01*
X108180000Y-95035000D02*
X108180000Y-95050000D01*
X108180000Y-92910000D02*
X108180000Y-92925000D01*
X112720000Y-95035000D02*
X112720000Y-95050000D01*
X108180000Y-92910000D02*
X112720000Y-92910000D01*
X112720000Y-92910000D02*
X112720000Y-92925000D01*
X90480000Y-95050000D02*
X95020000Y-95050000D01*
X95020000Y-92910000D02*
X95020000Y-92925000D01*
X90480000Y-95035000D02*
X90480000Y-95050000D01*
X90480000Y-92910000D02*
X95020000Y-92910000D01*
X95020000Y-95035000D02*
X95020000Y-95050000D01*
X90480000Y-92910000D02*
X90480000Y-92925000D01*
X135790000Y-107410000D02*
X136120000Y-107410000D01*
X138530000Y-100870000D02*
X138530000Y-107410000D01*
X135790000Y-100870000D02*
X135790000Y-107410000D01*
X136120000Y-100870000D02*
X135790000Y-100870000D01*
X138200000Y-100870000D02*
X138530000Y-100870000D01*
X138530000Y-107410000D02*
X138200000Y-107410000D01*
X125960000Y-95035000D02*
X125960000Y-95050000D01*
X125960000Y-95050000D02*
X130500000Y-95050000D01*
X130500000Y-95035000D02*
X130500000Y-95050000D01*
X125960000Y-92910000D02*
X125960000Y-92925000D01*
X130500000Y-92910000D02*
X130500000Y-92925000D01*
X125960000Y-92910000D02*
X130500000Y-92910000D01*
X68520000Y-88900000D02*
X68520000Y-87570000D01*
X88960000Y-90230000D02*
X88960000Y-87570000D01*
X71120000Y-87570000D02*
X88960000Y-87570000D01*
X71120000Y-90230000D02*
X88960000Y-90230000D01*
X71120000Y-90230000D02*
X71120000Y-87570000D01*
X68520000Y-87570000D02*
X69850000Y-87570000D01*
X156270000Y-54670000D02*
X156270000Y-52010000D01*
X135830000Y-53340000D02*
X135830000Y-52010000D01*
X135830000Y-52010000D02*
X137160000Y-52010000D01*
X138430000Y-52010000D02*
X156270000Y-52010000D01*
X138430000Y-54670000D02*
X138430000Y-52010000D01*
X138430000Y-54670000D02*
X156270000Y-54670000D01*
X90060000Y-97730000D02*
X90060000Y-123250000D01*
X90060000Y-123250000D02*
X95360000Y-123250000D01*
X95360000Y-123250000D02*
X95360000Y-97730000D01*
X91710000Y-97730000D02*
X90060000Y-97730000D01*
X95360000Y-97730000D02*
X93710000Y-97730000D01*
X91710000Y-97730000D02*
G75*
G03*
X93710000Y-97730000I1000000J0D01*
G01*
X148700000Y-97730000D02*
X147050000Y-97730000D01*
X145050000Y-97730000D02*
X143400000Y-97730000D01*
X148700000Y-123250000D02*
X148700000Y-97730000D01*
X143400000Y-123250000D02*
X148700000Y-123250000D01*
X143400000Y-97730000D02*
X143400000Y-123250000D01*
X145050000Y-97730000D02*
G75*
G03*
X147050000Y-97730000I1000000J0D01*
G01*
X113140000Y-97730000D02*
X111490000Y-97730000D01*
X107840000Y-123250000D02*
X113140000Y-123250000D01*
X107840000Y-97730000D02*
X107840000Y-123250000D01*
X109490000Y-97730000D02*
X107840000Y-97730000D01*
X113140000Y-123250000D02*
X113140000Y-97730000D01*
X109490000Y-97730000D02*
G75*
G03*
X111490000Y-97730000I1000000J0D01*
G01*
X121980000Y-90230000D02*
X121980000Y-87570000D01*
X104140000Y-87570000D02*
X121980000Y-87570000D01*
X104140000Y-90230000D02*
X121980000Y-90230000D01*
X104140000Y-90230000D02*
X104140000Y-87570000D01*
X101540000Y-88900000D02*
X101540000Y-87570000D01*
X101540000Y-87570000D02*
X102870000Y-87570000D01*
X135830000Y-88900000D02*
X135830000Y-87570000D01*
X138430000Y-90230000D02*
X138430000Y-87570000D01*
X156270000Y-90230000D02*
X156270000Y-87570000D01*
X138430000Y-87570000D02*
X156270000Y-87570000D01*
X138430000Y-90230000D02*
X156270000Y-90230000D01*
X135830000Y-87570000D02*
X137160000Y-87570000D01*
%LPC*%
D14*
X125730000Y-81305000D03*
D15*
X123190000Y-81305000D03*
X120650000Y-81305000D03*
X118110000Y-81305000D03*
X115570000Y-81305000D03*
X113030000Y-81305000D03*
X110490000Y-81305000D03*
X107950000Y-81305000D03*
X105410000Y-81305000D03*
X102870000Y-81305000D03*
X100330000Y-81305000D03*
X97790000Y-81305000D03*
X95250000Y-81305000D03*
X92710000Y-81305000D03*
X90170000Y-81305000D03*
X87630000Y-81305000D03*
X85090000Y-81305000D03*
X82550000Y-81305000D03*
X80010000Y-81305000D03*
X77470000Y-81305000D03*
X74930000Y-81305000D03*
X72390000Y-81305000D03*
X69850000Y-81305000D03*
X67310000Y-81305000D03*
D16*
X76200000Y-71120000D03*
X71200000Y-71120000D03*
X148590000Y-93980000D03*
X143590000Y-93980000D03*
X72470000Y-93980000D03*
X77470000Y-93980000D03*
D17*
X71120000Y-99060000D03*
D18*
X71120000Y-101600000D03*
X71120000Y-104140000D03*
X71120000Y-106680000D03*
X71120000Y-109220000D03*
X71120000Y-111760000D03*
X71120000Y-114300000D03*
X71120000Y-116840000D03*
X71120000Y-119380000D03*
X71120000Y-121920000D03*
X78740000Y-121920000D03*
X78740000Y-119380000D03*
X78740000Y-116840000D03*
X78740000Y-114300000D03*
X78740000Y-111760000D03*
X78740000Y-109220000D03*
X78740000Y-106680000D03*
X78740000Y-104140000D03*
X78740000Y-101600000D03*
X78740000Y-99060000D03*
D19*
X142240000Y-139065000D03*
X139700000Y-139065000D03*
X137160000Y-139065000D03*
X134620000Y-139065000D03*
X132080000Y-139065000D03*
X129540000Y-139065000D03*
X127000000Y-139065000D03*
X124460000Y-139065000D03*
X121920000Y-139065000D03*
X119380000Y-139065000D03*
X116840000Y-139065000D03*
X114300000Y-139065000D03*
X111760000Y-139065000D03*
X109220000Y-139065000D03*
X106680000Y-139065000D03*
X104140000Y-139065000D03*
X101600000Y-139065000D03*
X99060000Y-139065000D03*
X96520000Y-139065000D03*
X93980000Y-139065000D03*
X91440000Y-139065000D03*
X88900000Y-137795000D03*
X86360000Y-139065000D03*
X83820000Y-139065000D03*
X81280000Y-139065000D03*
D20*
X125730000Y-54610000D03*
D21*
X123190000Y-54610000D03*
X120650000Y-54610000D03*
X118110000Y-54610000D03*
X115570000Y-54610000D03*
X113030000Y-54610000D03*
X110490000Y-54610000D03*
X107950000Y-54610000D03*
X105410000Y-54610000D03*
X102870000Y-54610000D03*
X100330000Y-54610000D03*
X97790000Y-54610000D03*
X95250000Y-54610000D03*
X92710000Y-54610000D03*
X90170000Y-54610000D03*
X87630000Y-54610000D03*
X85090000Y-54610000D03*
X82550000Y-54610000D03*
X80010000Y-54610000D03*
X77470000Y-54610000D03*
X74930000Y-54610000D03*
X72390000Y-54610000D03*
X69850000Y-54610000D03*
X67310000Y-54610000D03*
X67310000Y-77470000D03*
X69850000Y-77470000D03*
X72390000Y-77470000D03*
X74930000Y-77470000D03*
X77470000Y-77470000D03*
X80010000Y-77470000D03*
X82550000Y-77470000D03*
X85090000Y-77470000D03*
X87630000Y-77470000D03*
X90170000Y-77470000D03*
X92710000Y-77470000D03*
X95250000Y-77470000D03*
X97790000Y-77470000D03*
X100330000Y-77470000D03*
X102870000Y-77470000D03*
X105410000Y-77470000D03*
X107950000Y-77470000D03*
X110490000Y-77470000D03*
X113030000Y-77470000D03*
X115570000Y-77470000D03*
X118110000Y-77470000D03*
X120650000Y-77470000D03*
X123190000Y-77470000D03*
X125730000Y-77470000D03*
D14*
X125730000Y-50800000D03*
D15*
X123190000Y-50800000D03*
X120650000Y-50800000D03*
X118110000Y-50800000D03*
X115570000Y-50800000D03*
X113030000Y-50800000D03*
X110490000Y-50800000D03*
X107950000Y-50800000D03*
X105410000Y-50800000D03*
X102870000Y-50800000D03*
X100330000Y-50800000D03*
X97790000Y-50800000D03*
X95250000Y-50800000D03*
X92710000Y-50800000D03*
X90170000Y-50800000D03*
X87630000Y-50800000D03*
X85090000Y-50800000D03*
X82550000Y-50800000D03*
X80010000Y-50800000D03*
X77470000Y-50800000D03*
X74930000Y-50800000D03*
X72390000Y-50800000D03*
X69850000Y-50800000D03*
X67310000Y-50800000D03*
D14*
X137160000Y-78740000D03*
D15*
X139700000Y-78740000D03*
X142240000Y-78740000D03*
X144780000Y-78740000D03*
X147320000Y-78740000D03*
X149860000Y-78740000D03*
X152400000Y-78740000D03*
X154940000Y-78740000D03*
D18*
X132080000Y-99060000D03*
X132080000Y-101600000D03*
X132080000Y-104140000D03*
X132080000Y-106680000D03*
X132080000Y-109220000D03*
X132080000Y-111760000D03*
X132080000Y-114300000D03*
X132080000Y-116840000D03*
X132080000Y-119380000D03*
X132080000Y-121920000D03*
X124460000Y-121920000D03*
X124460000Y-119380000D03*
X124460000Y-116840000D03*
X124460000Y-114300000D03*
X124460000Y-111760000D03*
X124460000Y-109220000D03*
X124460000Y-106680000D03*
X124460000Y-104140000D03*
X124460000Y-101600000D03*
D17*
X124460000Y-99060000D03*
D16*
X107950000Y-93980000D03*
X112950000Y-93980000D03*
X90250000Y-93980000D03*
X95250000Y-93980000D03*
X137160000Y-100330000D03*
D18*
X137160000Y-107950000D03*
D16*
X125730000Y-93980000D03*
X130730000Y-93980000D03*
D14*
X69850000Y-88900000D03*
D15*
X72390000Y-88900000D03*
X74930000Y-88900000D03*
X77470000Y-88900000D03*
X80010000Y-88900000D03*
X82550000Y-88900000D03*
X85090000Y-88900000D03*
X87630000Y-88900000D03*
D14*
X137160000Y-53340000D03*
D15*
X139700000Y-53340000D03*
X142240000Y-53340000D03*
X144780000Y-53340000D03*
X147320000Y-53340000D03*
X149860000Y-53340000D03*
X152400000Y-53340000D03*
X154940000Y-53340000D03*
D17*
X88900000Y-99060000D03*
D18*
X88900000Y-101600000D03*
X88900000Y-104140000D03*
X88900000Y-106680000D03*
X88900000Y-109220000D03*
X88900000Y-111760000D03*
X88900000Y-114300000D03*
X88900000Y-116840000D03*
X88900000Y-119380000D03*
X88900000Y-121920000D03*
X96520000Y-121920000D03*
X96520000Y-119380000D03*
X96520000Y-116840000D03*
X96520000Y-114300000D03*
X96520000Y-111760000D03*
X96520000Y-109220000D03*
X96520000Y-106680000D03*
X96520000Y-104140000D03*
X96520000Y-101600000D03*
X96520000Y-99060000D03*
D17*
X142240000Y-99060000D03*
D18*
X142240000Y-101600000D03*
X142240000Y-104140000D03*
X142240000Y-106680000D03*
X142240000Y-109220000D03*
X142240000Y-111760000D03*
X142240000Y-114300000D03*
X142240000Y-116840000D03*
X142240000Y-119380000D03*
X142240000Y-121920000D03*
X149860000Y-121920000D03*
X149860000Y-119380000D03*
X149860000Y-116840000D03*
X149860000Y-114300000D03*
X149860000Y-111760000D03*
X149860000Y-109220000D03*
X149860000Y-106680000D03*
X149860000Y-104140000D03*
X149860000Y-101600000D03*
X149860000Y-99060000D03*
D17*
X106680000Y-99060000D03*
D18*
X106680000Y-101600000D03*
X106680000Y-104140000D03*
X106680000Y-106680000D03*
X106680000Y-109220000D03*
X106680000Y-111760000D03*
X106680000Y-114300000D03*
X106680000Y-116840000D03*
X106680000Y-119380000D03*
X106680000Y-121920000D03*
X114300000Y-121920000D03*
X114300000Y-119380000D03*
X114300000Y-116840000D03*
X114300000Y-114300000D03*
X114300000Y-111760000D03*
X114300000Y-109220000D03*
X114300000Y-106680000D03*
X114300000Y-104140000D03*
X114300000Y-101600000D03*
X114300000Y-99060000D03*
D14*
X102870000Y-88900000D03*
D15*
X105410000Y-88900000D03*
X107950000Y-88900000D03*
X110490000Y-88900000D03*
X113030000Y-88900000D03*
X115570000Y-88900000D03*
X118110000Y-88900000D03*
X120650000Y-88900000D03*
D14*
X137160000Y-88900000D03*
D15*
X139700000Y-88900000D03*
X142240000Y-88900000D03*
X144780000Y-88900000D03*
X147320000Y-88900000D03*
X149860000Y-88900000D03*
X152400000Y-88900000D03*
X154940000Y-88900000D03*
M02*
